<svg height="735" viewBox="0 0 1307 735" width="1307" xmlns="http://www.w3.org/2000/svg"><g fill="#bf9650"><path d="m37.067493 17.247192c-.758815.92743-.88528 2.318543-.88528 5.185181v14.83905c.07204 3.227417-.442166 6.441223-1.517628 9.485108-.843128 2.276428-3.456814 8.431274-14.586075 8.431274-11.129258 0-13.742947-6.3656-14.543917-8.431274-.992049-3.087586-1.406484-6.331665-1.222532-9.569458v-14.839051c0-2.866577 0-4.215637-.927438-5.18518-1.168252-1.035645-2.699237-1.566162-4.257785-1.475525v-1.812683c2.95094 0 5.733255.252929 8.684194.252929 2.95094 0 5.944037-.252929 8.979289-.252929v1.812683c-1.519847-.057984-3.011824.419433-4.215628 1.34906-.843127.927429-1.011751 2.276428-1.011751 5.227356v13.995911c-.264058 3.119873.108846 6.260925 1.096063 9.232238 1.687571 3.499817 5.41818 5.534729 9.274381 5.058716 3.839113.443787 7.540157-1.584228 9.232227-5.058716 1.030005-2.962524 1.445967-6.10382 1.222532-9.232238v-13.995911c0-2.950928 0-4.215637-.969595-5.227356-.969594-1.01178-1.981344-1.180359-4.215627-1.34906v-1.812683c2.529379 0 4.468565.252929 6.99794.252929 2.529381 0 4.215629-.252929 6.829319-.252929v1.812683c-2.107815 0-3.414658.50592-4.21563 1.391174"/><path d="m87.02269 17.247192c-.843125.843079-.927445 2.276368-.969589 5.10083l-.252945 21.288941c0 5.100952.379409 10.749878.379409 10.749878l-3.288185 1.096008c-1.924919-2.129578-3.726524-4.367554-5.396011-6.70282l-19.897766-27.570251.548031 24.492859c0 2.824463.210785 4.215637 1.138221 5.100891.927437.885315 2.065659 1.09613 4.679348 1.34906v1.896973c-2.950939 0-4.76366-.295105-7.630291-.295105-2.866622 0-4.215625.295105-7.293033.295105v-1.812745c2.360748-.337158 3.583282-.632324 4.426411-1.517639.843124-.885254.88528-2.192077.88528-4.974365l.295094-24.956543c.064495-1.333435-.459488-2.627991-1.433316-3.541077-1.191539-.981811-2.672779-1.544677-4.215625-1.601989v-1.770569c2.065654 0 3.667595.252929 5.817566.252929s6.239128-.252929 6.239128-.252929c.889804 1.61853 1.919536 3.156067 3.077411 4.595032l18.464447 25.293762-.295089-21.668335c0-2.824463-.252938-4.215637-1.222527-5.185181-1.349647-.844543-2.919357-1.269958-4.510727-1.222595v-1.812683c2.824471 0 4.637184.252929 7.335198.252929 2.697998 0 4.552879-.252929 7.377349-.252929v1.812683c-1.514617-.021362-2.994789.452331-4.215629 1.34906"/><path d="m108.733177 53.754456c-2.993095 0-6.154815.295105-9.105758.295105v-1.854859c2.655845-.33728 3.709747-.59021 4.552879-1.517639.843124-.927429 1.011749-2.445068 1.011749-5.311646v-22.848693c0-2.8667 0-4.215638-.927437-5.311768-.927444-1.096008-2.234283-1.348938-4.215629-1.517639v-1.812683c2.993095 0 5.817566.252929 8.684196.252929 2.866623 0 5.986191-.252929 8.937134-.252929v1.812683c-1.539139-.045227-3.040634.480347-4.21563 1.475525-.800972.969543-.843124 2.487182-.843124 5.311645v23.017395c0 2.908753 0 4.215576.927429 5.143067 1.34182 1.023254 2.992371 1.558593 4.679352 1.517639v1.896973c-2.950943 0-6.154816-.295105-9.190071-.295105"/><path d="m161.175583 18.132385c-.661331 1.271057-1.211411 2.596863-1.644089 3.962708l-8.642029 24.324219c-.884094 2.310485-1.616363 4.676269-2.192138 7.082214-.927445.210815-4.552872.800964-6.365586 1.306824-.666549-2.860352-1.511306-5.67627-2.529388-8.431275l-9.063599-26.010376c-.376602-1.175293-1.026764-2.244446-1.897033-3.119507-.922959-.801086-2.043953-1.339721-3.246033-1.559875v-1.812683c2.950943 0 5.143066.252929 8.178329.252929 3.035248 0 6.112656-.252929 8.979279-.252929v1.812683c-3.203873.379455-4.510727 1.09613-4.510727 2.782349.154327 1.746704.595871 3.455871 1.306854 5.058715l7.883225 24.324219 8.009704-24.324219c.61023-1.569885 1.007233-3.21466 1.180359-4.890075 0-1.559815-.969589-2.571534-4.552887-2.950989v-1.812683c2.697998 0 4.215637.252929 7.12442.252929s3.541138-.252929 6.239136-.252929v1.812683c-1.691803.1698-3.228241 1.060852-4.215622 2.445068"/><path d="m202.910309 54.049561c-7.419495 0-19.223267-.295105-22.258515-.295105-3.035247 0-6.28128.295105-9.105743.295105v-1.854859c2.445053-.33728 3.667587-.59021 4.552856-1.517639.885285-.927429.969605-2.445068.969605-5.227417v-22.932922c0-2.824463 0-4.215638-.927429-5.311768-.927445-1.096008-2.276444-1.348938-4.215637-1.517639v-1.812683c2.950927 0 5.775405.252929 8.768508.252929 5.480317 0 21.710495-.295105 21.710495-.295105v9.569459h-1.854888c-1.981339-5.817505-2.697998-6.78711-6.913636-6.78711h-7.37735c-1.854873 0-2.023498.42157-2.023498 2.192139v13.279175h5.733261c2.276443 0 3.498962-.295044 4.215622-1.180359.929581-1.208679 1.433502-2.690796 1.433319-4.215637h1.897034c0 2.571533-.29509 4.552917-.29509 7.0401 0 2.487243.29509 4.468628.29509 7.124389h-1.897034c.024414-1.632202-.478241-3.228943-1.433319-4.552856-.758804-.885254-2.023499-1.09607-4.215622-1.180359h-5.733261v12.646851c0 2.782348.632355 3.499023 3.498978 3.499023h6.95578c3.878387 0 6.3656-3.119568 8.810669-8.431274l2.023498.674499z"/><path d="m245.572464 53.754456c-1.728409 0-5.395996.295105-5.395996.295105l-8.09401-16.145874c-.800964-1.644043-1.222518-2.613648-2.866622-2.697999h-3.119568v10.159729c0 2.866578 0 4.215638.885284 5.269532.885269 1.053894 1.854889 1.222473 4.215622 1.517639v1.896973c-2.908783 0-5.648941-.295105-8.684189-.295105s-6.154815.295105-9.105743.295105v-1.812745c2.445053-.337158 3.709732-.632324 4.552856-1.559753.84314-.927429.969605-2.402893.969605-5.311646v-22.848693c0-2.950989 0-4.215638-.885285-5.311768-1.148681-1.044311-2.664856-1.590088-4.215622-1.517639v-1.812683c2.950943 0 5.480317.252929 8.43126.252929s6.112655-.295105 9.021438-.295105c2.444672-.050048 4.880707.306031 7.20871 1.053895 3.917053.939086 6.70636 4.404052 6.78717 8.431274 0 6.19696-6.40776 9.527344-10.033203 10.328308 2.529389.33728 4.215637 2.529358 5.606796 5.353821l4.552872 9.021423c.614304 1.197449 1.529572 2.214356 2.655853 2.950989.92952.63916 1.999772 1.044067 3.119568 1.18042v1.896973c-1.644088 0-3.920532-.295105-5.606796-.295105m-16.862503-37.645508h-1.433319c-.590195 0-1.096054.379394-1.096054 1.306823v15.640015h2.655853c2.350891.109863 4.633209-.80896 6.252243-2.51709 1.619049-1.708069 2.414459-4.036255 2.179001-6.377929.133865-2.288025-.762131-4.516053-2.44281-6.074341-1.680679-1.558289-3.969986-2.283631-6.241379-1.977478"/><path d="m278.791595 51.520203c-2.672637 2.290039-6.092559 3.52008-9.611602 3.456848-3.992981.19342-7.905854-1.166321-10.918488-3.794129l-.758789-9.738098 2.318573-.33728c1.897034 8.895019 6.196991 11.002808 9.147919 11.002808 1.855499.061706 3.664703-.586548 5.058746-1.812684 1.155213-1.239074 1.815308-2.859252 1.854889-4.552856.083954-1.635193-.343323-3.255981-1.222534-4.637268-1.031433-1.393433-2.355133-2.544556-3.878357-3.372437l-5.480347-3.203918c-1.804535-.966858-3.429992-2.235901-4.805816-3.751892-1.665558-1.975586-2.537049-4.499878-2.445069-7.082214-.042022-3.398072 1.660584-6.580567 4.510742-8.431275 2.704956-1.65686 5.855866-2.437195 9.021424-2.234253 3.393066-.061096 6.731262.861267 9.611664 2.655762l-.33725 8.431274-1.939209.295105c-.927429-7.166504-4.932312-8.726379-7.883209-8.726379-3.157746-.248474-5.948609 2.040039-6.323456 5.185303-.160584 1.707336.303772 3.414917 1.306854 4.805786 1.043518 1.083984 2.253113 1.99469 3.583283 2.697998l5.648925 3.372436c2.086182 1.139527 3.932709 2.671204 5.438172 4.510804 1.385986 1.938537 2.096923 4.278686 2.023498 6.660705.021301 3.339783-1.409363 6.524231-3.920563 8.726318"/><path d="m302.652069 53.754456c-3.035248 0-6.19696.295105-9.147888.295105v-1.854859c2.655823-.33728 3.709747-.59021 4.552887-1.517639.843109-.927429 1.011749-2.445068 1.011749-5.311646v-22.848693c0-2.8667 0-4.215638-.92746-5.311768-.927429-1.096008-2.234283-1.348938-4.215637-1.517639v-1.812683c2.950928 0 5.775421.252929 8.431275.252929 2.655822 0 5.85971-.252929 8.726349-.252929v1.812683c-1.551606-.03009-3.057343.527038-4.215638 1.559875-.800964.969544-.885284 2.487183-.885284 5.311646v22.933044c0 2.908753 0 4.215576.92746 5.143067 1.341796 1.023254 2.99234 1.558593 4.679351 1.517639v1.896973c-2.950958 0-6.154815-.295105-9.147949-.295105"/><path d="m353.239624 50.339783c-4.17749 2.603943-9.033691 3.909729-13.953735 3.751953-4.215607 0-6.196961-.33728-9.190064-.33728s-6.112671.33728-9.105774.33728v-1.897034c2.613709-.33728 3.667603-.674499 4.552887-1.559753.885285-.885315.969605-2.27649.969605-5.269532v-22.848693c0-2.908814 0-4.215638-.927429-5.311768-1.146241-1.04834-2.664185-1.594788-4.215638-1.517639v-1.812683c3.035248 0 5.775391.252929 8.810639.252929 3.035278 0 5.353882-.252929 9.190094-.252929 4.215454-.158386 8.403595.740112 12.183166 2.613708 6.251587 3.447388 10.045075 10.106262 9.822418 17.241883.271607 6.626525-2.921844 12.917602-8.431274 16.609558m-5.564606-31.069153c-2.915527-2.188843-6.523163-3.251648-10.159698-2.993103h-.843109c-2.149994 0-2.571533.463745-2.571533 2.782348v29.17212c0 2.276489.843109 3.161743 3.203887 3.161743h1.222535c3.675628.207153 7.283508-1.051026 10.033172-3.499024 3.464081-3.98938 5.207184-9.188293 4.847992-14.459533.512757-5.330628-1.536926-10.587769-5.522461-14.164551"/><path d="m396.955688 53.754456c-2.950958 0-6.02835.295105-8.979309.295105v-1.854859c3.077423-.463745 4.595063-1.222534 4.595063-3.077392-.137146-1.109986-.406037-2.199707-.800995-3.246033l-2.023468-6.660706h-12.984131l-2.445099 6.660706c-.346405 1.0531-.572662 2.14209-.674499 3.246033 0 1.854858 1.180389 2.740112 4.552886 3.035278v1.896973c-2.529388 0-4.468566-.295105-6.997924-.295105-2.529389 0-3.625458.295105-6.154816.295105v-1.854859c1.537933-.138244 2.946198-.918884 3.878357-2.149963.762146-1.331909 1.3703-2.746216 1.812744-4.215637l9.232178-24.366333c.877228-2.37024 1.609283-4.791626 2.192169-7.250855 0 0 4.805817-.632385 6.407715-.969665.719269 2.786193 1.591797 5.530578 2.613708 8.22052l9.063629 26.263366c.359528 1.195313 1.011536 2.281983 1.897004 3.161743.918487.817872 2.066589 1.333069 3.288177 1.475464v1.897034c-2.908752 0-5.311645-.295105-8.431244-.295105m-13.57431-34.27301-5.691101 16.440918h11.002777z"/><path d="m444.170715 50.339783c-4.192566 2.60498-9.062469 3.910522-13.99588 3.751953-4.215637 0-6.154815-.33728-9.190063-.33728s-6.112641.33728-9.105744.33728v-1.897034c2.655823-.33728 3.709748-.674499 4.552857-1.559753.843139-.885315.969604-2.27649.969604-5.269532v-22.848693c0-2.908814 0-4.215638-.927429-5.311768-.92746-1.096008-2.276459-1.348938-4.215637-1.517639v-1.812683c3.035248 0 5.817535.252929 8.810638.252929 2.993134 0 5.480347-.252929 9.274414-.252929 4.215454-.158386 8.403595.740112 12.183167 2.613708 6.251587 3.447388 10.045074 10.106262 9.822418 17.241883.327515 6.577819-2.764984 12.85852-8.178345 16.609558m-5.817535-31.069153c-2.912048-2.19574-6.522339-3.259338-10.159699-2.993103h-1.053894c-2.149993 0-2.571533.463745-2.571533 2.782348v29.17212c0 2.276489.84314 3.161743 3.203888 3.161743h1.348999c3.676911.216553 7.2883-1.042847 10.033173-3.499024 3.495727-3.973266 5.256592-9.180053 4.890136-14.459533.50232-5.337647-1.563507-10.59607-5.564605-14.164551"/><path d="m551.92218 651.994324c-4.53949 3.297424-10.080871 4.921142-15.682129 4.595031-15.682129 0-25.883972-10.117553-25.883972-26.980041-.186157-7.03241 2.516846-13.833984 7.479248-18.820251 4.962402-4.986329 11.750977-7.721985 18.784119-7.569581 5.785705-.211547 11.509399 1.25232 16.483154 4.215638l.25293 11.845886-1.812805.295166c-1.559754-7.841126-5.901856-13.574341-15.302674-13.574341-9.400879 0-17.747802 8.093994-17.747802 23.776123s7.925415 23.776123 17.368408 23.776123c8.098877-.07605 15.221191-5.375061 17.621338-13.110596l1.981323.716675z"/><path d="m586.237427 653.554077c-2.802857 2.020325-6.201355 3.044312-9.653809 2.908814-9.442993 0-14.92334-7.630249-14.92334-18.000733 0-10.370483 7.46167-19.138916 16.483155-19.138916 9.021423 0 12.14093 6.744934 12.14093 13.447754 0 1.138245-.379395 1.770569-1.559754 1.770569l-20.783081-.210754v2.360778c0 8.431214 4.215638 14.122315 11.044983 14.122315 3.977844.159851 7.837464-1.371765 10.623413-4.215637l1.180359 1.348999zm-9.021424-31.617187c-4.215637 0-8.431274 3.372497-9.105774 10.412597l13.700745-.379394c1.18042 0 1.60199-.379456 1.644104-1.559815 0-5.100891-2.192139-8.473388-6.239075-8.473388z"/><path d="m627.719177 655.113831c-2.908813 0-5.18518.379394-8.136169.379394v-1.939148c4.215637-.379394 5.016601-1.180359 5.016601-5.480347v-14.923278c0-5.480286-1.812683-9.021424-7.714599-9.021424-3.371338.41565-6.556824 1.774597-9.190064 3.920533v20.024169c0 4.215638.969605 5.016663 5.058716 5.480347v1.939148c-2.908752 0-5.058716-.379394-8.009643-.379394-2.950928 0-5.564637.379394-8.431275.379394v-1.939148c4.215637-.25293 5.395996-1.180359 5.395996-5.480347v-17.663452c0-3.920532-.75885-4.721496-4.679321-5.901855v-1.559815c3.494202-.890991 6.906982-2.075622 10.201782-3.541137h.59021v5.733276c3.760376-2.841797 8.065247-4.879394 12.646912-5.986206 7.46167 0 10.286133 3.625427 10.286133 11.466553v17.284057c0 4.215638 1.096008 5.100891 5.480346 5.480286v1.939209c-2.993164.168579-5.522522-.210815-8.515625-.210815z"/><path d="m654.109009 656.547119c-7.461609 0-8.979248-4.974365-8.89502-10.834106l.337281-21.078125h-5.185181v-1.559754c4.301575-2.361267 7.840576-5.900268 10.201782-10.201904h1.180359v8.431274h10.286194v3.541199h-10.286194l-.337219 20.782959c0 4.721497 1.601928 6.702881 4.721557 6.702881 2.040161-.072876 4.010132-.763794 5.648926-1.981384l1.011658 1.559875c-2.532288 2.145142-5.492798 3.726013-8.684143 4.637085z"/><path d="m688.12915 628.21814c-1.446899.19757-2.84082-.621338-3.372497-1.981324.308655-.246826.493591-.616699.505859-1.011718-.009704-.295533-.143005-.573365-.367431-.765747-.224488-.192383-.519471-.281678-.812989-.246094-2.192077 0-4.890075 4.215637-6.28125 6.660766v17.199707c0 4.215638.6745 5.100953 6.576416 5.480347v1.939148c-3.119629 0-6.112671-.379394-9.105774-.379394-2.993164 0-6.02832.379394-9.021484.379394v-1.939148c4.215637-.25293 5.438171-1.180359 5.438171-5.480347v-17.663452c0-3.920532-.800903-4.721496-4.721496-5.901855v-1.559815c3.494263-.890991 6.906982-2.075622 10.201782-3.541137h.632385v7.841064c3.119568-5.10083 6.660706-8.093994 9.400879-8.093994 1.245545-.107239 2.478394.3172 3.393921 1.168457.915527.851318 1.428406 2.050049 1.411865 3.30011.104981 1.125732-.246643 2.246582-.975891 3.110596-.729309.864013-1.775024 1.398864-2.902466 1.484436z"/><path d="m714.055237 656.462891c-4.723877-.027222-9.229737-1.991394-12.464905-5.433777-3.235168-3.442322-4.91626-8.061218-4.650513-12.777771 0-11.171387 7.588135-18.928101 16.651673-18.928101 4.72052.026489 9.222656 1.992005 12.451233 5.435791 3.228637 3.443848 4.899841 8.063233 4.62207 12.775635 0 11.129272-7.588135 18.928223-16.609558 18.928223zm-.632324-34.399537c-6.281311 0-9.443055 5.185181-9.443055 15.00763 0 9.822388 3.962708 16.483093 10.201844 16.483093 6.239196 0 9.443054-5.185181 9.443054-15.007629 0-9.822388-3.920593-16.483094-10.201843-16.483094z"/><path d="m765.064392 655.113831c-3.541138 0-7.082336.379394-10.623413.379394v-2.023437c3.920532-.548096 4.721497-.801026 5.901917-1.981385 1.180358-1.180359 1.391113-2.740112 1.391113-6.660705v-29.888794c0-4.215637-.210755-5.733216-1.18042-6.913635-1.608887-1.277466-3.643433-1.895386-5.69104-1.728394v-2.023499c3.498962 0 6.660705.379395 10.201843.379395 3.541077 0 6.660645-.379395 10.201782-.379395v1.939209c-2.782348.25293-4.721496.632325-5.648925 1.812684-.92743 1.180419-1.180359 2.740173-1.180359 6.829345v29.973084c0 3.920593 0 5.522461 1.306823 6.660705 1.306824 1.138245 2.445069 1.60199 5.986206 1.981385v2.023437c-3.625488 0-7.166565-.379394-10.665527-.379394z"/><path d="m812.363708 655.113831c-2.908752 0-5.185241.379394-8.178344.379394v-1.939148c4.215637-.379394 5.058777-1.180359 5.058777-5.480347v-14.923278c0-5.480286-1.812683-9.021424-7.7146-9.021424-3.371338.41565-6.556824 1.774597-9.190063 3.920533v20.024169c0 4.215638.969604 5.016663 5.016601 5.480347v1.939148c-2.866638 0-5.016601-.379394-7.967529-.379394-2.950989 0-5.606812.379394-8.431275.379394v-1.939148c4.215638-.25293 5.395996-1.180359 5.395996-5.480347v-17.663452c0-3.920532-.800964-4.721496-4.721496-5.901855v-1.559815c3.498291-.877502 6.91217-2.0625 10.201782-3.541137h.632385v5.733276c3.767823-2.82959 8.070008-4.865967 12.646912-5.986206 7.46167 0 10.286133 3.625427 10.286133 11.466553v17.284057c0 4.215638 1.096008 5.100891 5.480285 5.480286v1.939209c-3.035217.168579-5.522522-.210815-8.515564-.210815z"/><path d="m836.224182 656.547119c-3.648132.167725-7.227051-1.035278-10.033203-3.372436l-.632385-9.274414 1.939209-.33722c1.180359 5.522461 3.920532 10.370423 8.431274 10.370423 1.729431.163452 3.443848-.437928 4.692261-1.645813 1.248474-1.207886 1.906006-2.901551 1.799744-4.635498 0-4.847962-4.215577-6.660645-8.009644-8.431214s-8.05188-4.468567-8.05188-10.328308c.167786-2.743347 1.453552-5.297729 3.557129-7.06665 2.103577-1.76886 4.840698-2.597412 7.572144-2.292053 3.164672-.130372 6.30719.582519 9.105773 2.065673v7.96753l-1.812683.252929c-.927429-5.901855-4.468628-7.925415-7.20874-7.925415-1.502319-.206176-3.020691.244751-4.16687 1.23761-1.14624.992798-1.809143 2.431275-1.819336 3.947693 0 4.721497 5.353882 6.28125 8.894959 8.220459 5.340759 1.687134 8.561767 7.117004 7.482116 12.612854-1.079773 5.495789-6.115722 9.303528-11.697754 8.844666z"/><path d="m868.052124 656.547119c-7.419495 0-8.937073-4.974365-8.852783-10.834106l.33728-21.078125h-5.185303v-1.559754c4.301636-2.361267 7.840638-5.900268 10.201844-10.201904h1.18042v8.431274h10.243957v3.541199h-10.286133l-.33728 20.782959c0 4.721497 1.60199 6.702881 4.721558 6.702881 2.040222-.072876 4.010192-.763794 5.648925-1.981384l1.011719 1.559875c-2.531616 2.14624-5.49237 3.727234-8.684204 4.637085z"/><path d="m888.624451 655.113831c-2.740174 0-5.564698.379394-8.431275.379394v-1.939148c4.215637-.25293 5.395996-1.180359 5.395996-5.480347v-17.663452c0-3.920532-.758789-4.721496-4.679382-5.901855v-1.559815c3.494324-.890991 6.907043-2.075622 10.201843-3.541137h.632386v28.49768c0 4.215638 1.096008 5.100891 5.395996 5.480286v1.939209c-2.866639.168579-5.606812-.210815-8.515564-.210815zm-.463745-44.01117c-1.882874.034302-3.599488-1.073547-4.343811-2.803345-.744385-1.729858-.368775-3.738037.950561-5.081848 1.319336-1.34375 3.320313-1.756164 5.063538-1.04364 1.743103.712525 2.882263 2.408508 2.882568 4.291687.034058 1.196472-.408874 2.357361-1.23114 3.227112-.822388.869751-1.956604 1.377014-3.153137 1.410034z"/><path d="m915.225037 656.547119c-7.46167 0-8.937134-4.974365-8.852784-10.834106l.295044-21.078125h-5.143066v-1.559754c4.301636-2.361267 7.840637-5.900268 10.201843-10.201904h1.138184v8.431274h10.243957v3.541199h-10.243957l-.337219 20.782959c0 4.721497 1.559753 6.702881 4.721496 6.702881 2.038269-.083252 4.005249-.773132 5.648987-1.981384l1.011658 1.559875c-2.531555 2.14624-5.49231 3.727234-8.684143 4.637085z"/><path d="m954.85199 656.29425-.379456-.379394-.25293-5.901856c-3.141357 2.921021-6.881713 5.122071-10.960632 6.449891-3.501159.262756-6.881592-1.339356-8.894958-4.215638-1.821411-3.074218-2.632386-6.642395-2.318604-10.201782v-13.532226c0-3.541077-.969604-4.974427-4.552917-5.353882v-1.939148c3.457458-.210755 6.887268-.747132 10.243957-1.601929h.632385c-.210754 6.11261-.210754 19.855591-.210754 19.855591-.270447 2.875305.17865 5.772705 1.306824 8.431274 1.35022 2.241761 3.838501 3.542786 6.44989 3.372437 3.131653-.640869 6.03949-2.094788 8.431274-4.215576v-18.548767c0-3.541077-.92749-4.974427-4.468567-5.353882v-1.939148c3.443482-.21167 6.859192-.748047 10.201783-1.601929h.632385v19.771301 7.166565c0 4.215577 1.096069 4.215577 5.395996 3.920533l.25293 1.939148c-3.119568 1.138244-9.147888 3.077392-11.508606 3.878417z"/><path d="m993.382813 653.807007c-2.402955 1.692932-5.281556 2.578613-8.220521 2.529419-3.980712.066589-7.760498-1.745239-10.201843-4.890137-2.790161-3.604431-4.182617-8.096313-3.920471-12.646912-.152649-5.675109 2.115906-11.147277 6.239075-15.049804 3.104004-2.867493 7.156921-4.488709 11.382202-4.552918 7.082275 0 9.443054 3.920594 9.443054 6.660706.057373 1.225159-.386658 2.420776-1.229736 3.311584-.843018.890747-2.01239 1.399842-3.238831 1.409973-1.776306.026001-3.260254-1.346679-3.372497-3.119567.793823-.538941 1.304321-1.405274 1.391113-2.360718 0-.801026-.379334-3.372559-4.215576-3.372559-3.836243 0-10.117554 3.751892-10.117554 14.7547s5.733215 14.122375 10.412598 14.122375c3.622314.087952 7.118469-1.331909 9.653808-3.920532l1.180359 1.306824z"/><path d="m1011.762939 655.113831c-2.740173 0-5.564636.379394-8.431213.379394v-1.939148c4.215576-.25293 5.395996-1.180359 5.395996-5.480347v-17.663452c0-3.920532-.75885-4.721496-4.679382-5.901855v-1.559815c3.494202-.890991 6.906921-2.075622 10.201843-3.541137h.590149v28.49768c0 4.215638 1.096069 5.100891 5.438171 5.480286v1.939209c-3.035278.168579-5.77539-.210815-8.515564-.210815zm-.463684-44.01117c-1.886291.051514-3.615539-1.045044-4.373352-2.773193-.757751-1.728089-.392883-3.743042.922852-5.095581 1.315674-1.352539 3.319702-1.773072 5.068115-1.063355 1.748352.709717 2.892334 2.408081 2.893067 4.294983.034118 1.218079-.425965 2.398132-1.275574 3.271607-.849671.873535-2.016602 1.366088-3.235108 1.365539z"/><path d="m1042.368408 656.462891c-4.723999-.027222-9.229858-1.991394-12.464966-5.433777-3.235107-3.442322-4.916259-8.061218-4.650512-12.777771 0-11.171387 7.588134-18.928101 16.609619-18.928101 4.727783.014954 9.240967 1.975403 12.47876 5.420532 3.237793 3.445191 4.914795 8.071228 4.636718 12.790894 0 11.129272-7.588134 18.928223-16.609619 18.928223zm-.632324-34.399537c-6.281372 0-9.442993 5.185181-9.442993 15.00763 0 9.822388 3.92041 16.483093 10.201782 16.483093 6.28125 0 9.442993-5.185181 9.442993-15.007629 0-9.822388-3.920532-16.483094-10.201782-16.483094z"/><path d="m1096.792114 655.113831c-2.866577 0-5.143066.379394-8.136108.379394v-1.939148c4.215698-.379394 5.016601-1.180359 5.016601-5.480347v-14.923278c0-5.480286-1.812744-9.021424-7.672485-9.021424-3.376099.397461-6.566528 1.758545-9.190063 3.920533v20.024169c0 4.215638.92749 5.016663 5.016601 5.480347v1.939148c-2.908691 0-5.016601-.379394-8.009765-.379394-2.993042 0-5.564576.379394-8.431153.379394v-1.939148c4.215576-.25293 5.438111-1.180359 5.438111-5.480347v-17.663452c0-3.920532-.800904-4.721496-4.721436-5.901855v-1.559815c3.494263-.890991 6.906982-2.075622 10.201782-3.541137h.632324v5.733276c3.760376-2.841797 8.065308-4.879394 12.646973-5.986206 7.461548 0 10.286011 3.625427 10.286011 11.466553v17.284057c0 4.215638 1.096069 5.100891 5.480347 5.480286v1.939209c-3.035279.168579-5.564576-.210815-8.55774-.210815z"/><path d="m1134.775024 656.462891c-3.119628 0-5.100952-2.529419-5.100952-6.449891-2.519775 2.854554-5.685058 5.065918-9.2323 6.449891-2.436401.258056-4.871459-.500183-6.73059-2.09607-1.859131-1.595764-2.977661-3.887817-3.091797-6.335205-.20105-3.710144 2.285278-7.031189 5.901855-7.88324l13.068482-4.215637v-4.721496c0-5.85968-3.288208-8.220459-7.208618-8.220459-3.920655 0-4.932374 2.360779-4.932374 3.920532.06897 1.038147.519532 2.014099 1.264649 2.740173-.709229 1.447571-2.181885 2.363953-3.794067 2.360718-1.0448.068604-2.066407-.328674-2.790284-1.085144-.723877-.756531-1.076049-1.794556-.961548-2.835388 0-3.161743 3.372437-4.552857 6.913575-5.901856 0 0 5.269531-2.023498 7.588134-2.824463 5.901856 0 10.075318 2.824463 10.075318 8.726319v19.602722c0 2.740112 1.138306 4.215637 2.487182 4.215637 1.271363-.047607 2.489502-.522949 3.45691-1.34906l.92749 1.517639c-2.011109 2.344971-4.790283 3.898865-7.841065 4.384278zm-5.185302-18.464478-7.96753 2.993103c-3.962768 1.433289-4.552856 3.541138-4.552856 5.901856.200073 2.994079 2.690308 5.318359 5.691162 5.311706 2.782349 0 6.829224-4.552917 6.829224-4.552917z"/><path d="m1153.365845 655.113831c-3.498902 0-6.28125.379394-8.431275.379394v-1.939148c4.468506-.379394 5.480347-1.180359 5.480347-5.480347v-40.048461c0-3.920472-1.180298-5.100892-5.185181-5.901856v-1.559814c3.744385-1.013184 7.419556-2.266419 11.002808-3.751892l.758789.379455c-.463745 3.541138-.463745 11.761597-.463745 15.724243v35.158325c0 4.215638.927368 5.100953 5.480347 5.480347v1.939148c-2.487183 0-5.100831-.379394-8.64209-.379394z"/><path d="m535.860657 734.74707-.42157-.379394v-5.480347c-3.043701 3.18573-7.036804 5.300537-11.382202 6.028381-4.188477.125061-8.166931-1.83258-10.623413-5.227356-2.418183-3.570922-3.602539-7.834533-3.372498-12.141052-.084869-4.967041 1.587311-9.804321 4.721497-13.658569 3.141845-3.748535 7.75653-5.948181 12.646911-6.028381 2.896485-.174683 5.762024.676025 8.093994 2.402893v-13.700745c0-3.962708-1.180358-5.100952-5.18518-5.901978v-1.559753c3.729675-1.032837 7.390503-2.300049 10.960632-3.794006l.716614.421508c-.379395 3.498963-.463684 11.761658-.463684 15.682129v34.062317c0 3.920471 1.348999 4.215637 5.269531 3.920471l.463684 1.981385c-3.372497.632385-8.304748 2.234253-11.424316 3.372497zm-.548035-25.082946c0-5.522522-2.360779-9.021485-7.88324-9.021485s-10.665527 4.679382-10.665527 14.881165c0 10.201843 5.100891 14.754699 10.075317 14.754699 3.248658-.266174 6.269165-1.776367 8.431275-4.215637z"/><path d="m577.131653 732.006958c-2.802857 2.020325-6.201355 3.044312-9.653748 2.908752-9.443054 0-14.923401-7.588134-14.923401-17.958618 0-10.370361 7.46167-19.138916 16.483155-19.138916 9.021423 0 12.140991 6.744995 12.140991 13.405701 0 1.180359-.379456 1.812744-1.559815 1.812744l-20.78302-.25293v2.360718c0 8.431275 4.004822 14.122315 11.087098 14.122315 3.962463.142578 7.802307-1.387268 10.581237-4.215638l1.180359 1.306946zm-9.021424-31.617249c-4.215637 0-8.431274 3.372559-9.105773 10.454773l13.700744-.42163c1.18042 0 1.60199-.379395 1.686341-1.559754 0-5.10083-2.234375-8.473389-6.154847-8.473389z"/><path d="m615.156616 733.608826c-3.498962 0-7.0401.379455-10.581238.379455v-2.065674c3.920533-.548034 4.721558-.758789 5.901917-1.939148 1.180359-1.180419 1.391174-2.740173 1.391174-6.660705v-29.930969c0-4.215638 0-5.733277-1.18042-6.871521-1.611511-1.30365-3.669677-1.924134-5.733215-1.728333v-2.065674c3.541077 0 6.70282.42157 10.201782.42157 3.499024 0 6.70282-.42157 10.201843-.42157v1.981324c-2.045105-.13678-4.065307.511535-5.648925 1.812683-1.01178 1.138244-1.180481 2.740234-1.180481 6.829345v29.973145c0 3.920532 0 5.480286 1.34906 6.660705 1.34906 1.180359 2.445068 1.559754 5.986206 1.939148v1.981324c-3.625488 0-7.0401-.295105-10.707703-.295105z"/><path d="m662.498108 733.608826c-2.908814 0-5.185181.379455-8.178345.379455v-1.981323c4.215637-.379395 5.016663-1.180359 5.016663-5.480347v-14.923278c0-5.480347-1.770569-9.021485-7.672486-9.021485-3.373779.406677-6.561645 1.766663-9.190063 3.920532v20.024231c0 4.215638.927429 5.016602 5.016602 5.480347v1.896973c-2.908753 0-5.016602-.379334-8.009705-.379334s-5.564636.379334-8.431274.379334v-1.981324c4.215637-.210815 5.438171-1.180358 5.438171-5.480346v-17.663452c0-3.920533-.800964-4.721497-4.721436-5.901856v-1.559814c3.501587-.866089 6.916504-2.051453 10.201783-3.541138h.632324v5.733276c3.775451-2.807556 8.075989-4.828857 12.646911-5.94403 7.46167 0 10.286133 3.583252 10.286133 11.424316v17.284119c0 4.215637 1.096009 5.100891 5.480347 5.480346v2.149903c-3.035278 0-5.522461-.295105-8.515625-.295105z"/><path d="m706.340637 733.608826c-2.908752 0-5.185241.379455-8.136169.379455v-1.981323c4.215637-.379395 5.016662-1.180359 5.016662-5.480347v-14.923278c0-5.480347-1.812805-9.021485-7.71466-9.021485-3.36145.405274-6.536133 1.765869-9.147888 3.920532v20.024231c0 4.215638.927429 5.016602 5.016601 5.480347v1.896973c-2.908752 0-5.016601-.379334-8.009704-.379334-2.993042 0-5.564637.379334-8.431275.379334v-1.981324c4.215637-.210815 5.395996-1.180358 5.395996-5.480346v-17.663452c0-3.920533-.758789-4.721497-4.679321-5.901856v-1.559814c3.499939-.871888 6.914307-2.057068 10.201782-3.541138h.632385v5.733276c3.772461-2.812622 8.074036-4.83435 12.646912-5.94403 7.46167 0 10.286133 3.583252 10.286133 11.424316v17.284119c0 4.215637 1.096008 5.100891 5.480285 5.480346v2.149903c-3.035217 0-5.564636-.295105-8.557739-.295105z"/><path d="m736.861816 734.91571c-4.723938-.02716-9.229797-1.991333-12.464904-5.433715-3.23523-3.442322-4.91626-8.06128-4.650574-12.777832 0-11.129212 7.63031-18.885987 16.651733-18.885987 4.727845.015015 9.241028 1.975464 12.478882 5.420655 3.237793 3.445129 4.914734 8.071228 4.636597 12.790832.210754 11.129273-7.63031 18.886047-16.651734 18.886047zm-.632324-34.35736c-6.281311 0-9.400879 5.185241-9.400879 14.965454 0 9.780273 3.920533 16.483154 10.201783 16.483154 6.281311 0 9.400878-5.185242 9.400878-14.965515 0-9.780274-3.920532-16.483093-10.201782-16.483093z"/><path d="m791.116943 702.581848c-1.367736 1.920471-2.433899 4.038696-3.161743 6.28125l-10.749817 25.504578-2.824524.379394-11.129272-27.82312c-.546265-1.526977-1.344238-2.951904-2.360718-4.215637-.898132-.789368-1.98883-1.327454-3.161743-1.559814v-1.981324c2.782349 0 4.890137.33722 7.63031.33722s5.901917-.33722 8.726379-.33722v1.981324c-4.215637.379455-5.185241 1.180358-5.185241 2.360778.197937 1.357911.595703 2.679077 1.18042 3.920533l7.292968 19.223266 7.208802-19.223266c.603759-1.23407 1.002441-2.558289 1.180359-3.920533 0-1.18042-1.096131-1.981323-4.468628-2.360778v-1.981324c2.487243 0 4.468628.33722 7.040161.33722s3.330322-.33722 5.901855-.33722v1.981324c-1.164917.137084-2.256775.638671-3.119568 1.433349z"/><path d="m821.848877 734.91571c-3.119568 0-5.100952-2.487243-5.100952-6.407775-2.522217 2.841735-5.687744 5.038818-9.232239 6.407775-2.439026.270874-4.881103-.482788-6.743286-2.081237-1.862122-1.598389-2.977234-3.898072-3.079102-6.349976-.201477-3.687317 2.266419-6.989746 5.859803-7.841064l13.110534-4.215638v-4.679382c0-5.901916-3.288208-8.431274-7.208679-8.431274-3.920593 0-4.932312 2.360778-4.932312 3.920532.06897 1.038147.519409 2.01416 1.26471 2.740173-.745545 1.414429-2.195862 2.316773-3.794129 2.360779-1.044739.068543-2.066345-.328735-2.790344-1.085266-.723938-.75647-1.075989-1.794556-.961548-2.835327 0-3.119507 3.372498-4.552857 6.913635-5.85968 0 0 5.227417-2.065674 7.588135-2.824463 5.901855 0 10.075378 2.824463 10.075378 8.684143v19.644836c0 2.740174 1.138245 4.215637 2.487183 4.215637 1.263123-.05133 2.475708-.509765 3.456848-1.306823l.927429 1.475464c-1.997741 2.376281-4.778381 3.960998-7.841064 4.468566zm-5.185242-18.422302-8.009704 2.950989c-3.920472 1.433289-4.510681 3.541077-4.510681 5.901855.17871 3.010682 2.675109 5.359131 5.69104 5.353882 2.782348 0 6.829345-4.552917 6.829345-4.552917z"/><path d="m855.911194 732.428467c-2.473023 1.707641-5.42749 2.579162-8.431275 2.487243-3.973449.076722-7.751831-1.718811-10.201843-4.847961-2.773254-3.613159-4.163696-8.098572-3.920532-12.646912-.148499-5.695129 2.135986-11.183899 6.281311-15.09198 3.099548-2.874389 7.155273-4.496643 11.382141-4.552856 7.082275 0 9.443054 3.962707 9.443054 6.702881.057617 1.221252-.387573 2.41272-1.231872 3.296875-.844422.884216-2.014099 1.38385-3.236756 1.382507-1.776184.02594-3.260254-1.346741-3.372436-3.119629.812744-.520874 1.329223-1.3974 1.391113-2.360718 0-.800964-.379394-3.372497-4.215637-3.372497-3.836182 0-10.159607 3.751892-10.159607 14.7547 0 11.002746 5.733215 14.122375 10.454712 14.122375 3.626037.108704 7.13031-1.314453 9.653747-3.920593l1.18042 1.34906z"/><path d="m874.291321 733.608826c-2.782349 0-5.606812.379455-8.431275.379455v-1.981323c4.215638-.210815 5.395996-1.180359 5.395996-5.480347v-17.663513c0-3.920471-.800964-4.721496-4.721557-5.901855v-1.559815c3.504028-.858398 6.919556-2.044006 10.201843-3.541076h.632385v28.49768c0 4.215637 1.096009 5.10083 5.438111 5.480225v2.065674c-3.035279 0-5.775391-.295105-8.515503-.295105zm-.505921-44.053284c-1.882873.034302-3.599487-1.073608-4.343811-2.803467-.744384-1.729736-.368713-3.737976.950562-5.081726 1.319336-1.34375 3.320312-1.756225 5.063537-1.043701 1.743104.712524 2.882264 2.408508 2.882569 4.291748.034424 1.225403-.431336 2.412048-1.290222 3.286804-.858887.874756-2.036805 1.362305-3.262635 1.350342z"/><path d="m904.854614 734.91571c-4.683716-.083679-9.130615-2.074157-12.313232-5.511352-3.182617-3.437256-4.825623-8.023926-4.549256-12.700195 0-11.129212 7.588074-18.885987 16.609498-18.885987 4.727844.015015 9.241027 1.975464 12.478881 5.420655 3.237793 3.445129 4.914673 8.071228 4.636597 12.790832-.210754 11.129273-7.798889 18.886047-16.862488 18.886047zm-.59021-34.35736c-6.281311 0-9.442993 5.185241-9.442993 14.965454 0 9.780273 3.920471 16.483154 10.201782 16.483154s9.443055-5.185242 9.443055-14.965515c0-9.780274-3.962708-16.483093-10.201844-16.483093zm7.967591-15.639954-10.749878 9.442932-1.01178-.800964 6.660705-10.581177c1.26471-1.981384 1.981324-3.161743 3.709778-3.161743 1.40387-.000183 2.548462 1.12561 2.571534 2.529419.086425 1.005127-.361878 1.98175-1.180359 2.571533z"/><path d="m959.320557 733.608826c-2.908814 0-5.185303.379455-8.136231.379455v-1.981323c4.215637-.379395 5.016602-1.180359 5.016602-5.480347v-14.923278c0-5.480347-1.812683-9.021485-7.7146-9.021485-3.36145.405274-6.536194 1.765869-9.147888 3.920532v20.024231c0 4.215638.927429 5.016602 5.016602 5.480347v1.896973c-2.908814 0-5.016602-.379334-8.009705-.379334s-5.564636.379334-8.431213.379334v-1.981324c4.215637-.210815 5.395996-1.180358 5.395996-5.480346v-17.663452c0-3.920533-.75885-4.721497-4.679383-5.901856v-1.559814c3.499939-.871888 6.914368-2.057068 10.201844-3.541138h.632324v5.733276c3.772461-2.812622 8.074035-4.83435 12.64685-5.94403 7.46167 0 10.286133 3.583252 10.286133 11.424316v17.284119c0 4.215637 1.09607 5.100891 5.480347 5.480346v2.149903c-3.035217 0-5.564636-.295105-8.557678-.295105z"/><path d="m1027.740112 733.903931c-7.841003 0-24.324157-.379334-27.865234-.379334-3.541138 0-7.082275.379334-10.581238.379334v-2.065674c3.498963-.463684 4.679382-.758789 5.859741-1.939148s1.433289-2.740173 1.433289-6.660706v-29.930969c0-4.215637-.25293-5.733276-1.180359-6.871399-1.615723-1.295715-3.670593-1.915283-5.733276-1.728454v-2.065674c3.541137 0 6.660705.42157 10.201843.42157 7.040039 0 26.853516-.42157 26.853516-.42157l.210815 11.635193h-1.559814c-2.360718-6.829407-3.161683-8.431275-9.822388-8.431275h-9.021485c-3.119567 0-3.288147.295044-3.288147 3.456787v16.862488l8.009644-.25293c3.541138 0 5.100952-.379394 6.028381-1.391174 1.290345-1.544617 1.965821-3.510925 1.897034-5.522461h1.897034c0 3.161743-.421509 5.901856-.421509 8.810669 0 2.908814.421509 5.733276.421509 8.852844h-1.770569c-.042297-2.097351-.702149-4.135559-1.897034-5.859741-1.01178-.969604-2.571533-1.348999-6.11261-1.433349l-8.009765-.210694v16.314453c0 4.215637.800964 5.353882 5.269531 5.353882h9.021484c5.859681 0 9.021424-4.468567 11.382141-10.370483l1.939209.548034z"/><path d="m1062.434814 734.74707-.379394-.379394v-5.480347c-3.043701 3.18573-7.036743 5.300537-11.382202 6.028381-4.193238.154786-8.178223-1.829772-10.581299-5.269531-2.438355-3.561462-3.624634-7.832092-3.372437-12.140991-.096801-4.961853 1.560303-9.798584 4.679322-13.658691 3.141845-3.748475 7.756469-5.948121 12.64685-6.028321 2.897827-.185669 5.766968.666199 8.093994 2.402893v-13.700805c0-3.962647-1.180297-5.100891-5.18518-5.901856v-1.517639c3.745483-1.026428 7.420776-2.293762 11.002807-3.794006l.716675.421508c-.421631 3.498963-.505981 11.761658-.505981 15.682129v34.062317c0 3.920471 1.349121 4.215637 5.269531 3.920471l.463745 1.981385c-3.372436.632385-8.220459 2.234253-11.466431 3.372497zm-.548095-25.082946c0-5.522522-2.360718-9.021485-7.841065-9.021485-5.480224 0-10.665527 4.679382-10.665527 14.881165 0 10.201843 5.100952 14.754699 10.033203 14.754699 3.248657-.266174 6.269165-1.776367 8.431274-4.215637z"/><path d="m1105.518555 734.74707-.379517-.379394-.25293-5.859741c-3.138183 2.937255-6.899414 5.127685-11.002685 6.407775-3.491455.273499-6.864502-1.332641-8.852905-4.215576-1.84961-3.063965-2.67627-6.636902-2.360718-10.201843v-13.490051c0-3.541138-.92749-4.932312-4.552857-5.311707v-1.981323c3.468262-.212158 6.910767-.734131 10.286133-1.559753h.632324c-.252929 6.112609-.252929 19.85559-.252929 19.85559-.227295 2.809143.23584 5.631287 1.348877 8.220459 1.336425 2.256531 3.83435 3.562622 6.449951 3.372498 3.131714-.640869 6.039673-2.094849 8.431274-4.215637v-18.590882c0-3.541137-.92749-4.932312-4.468506-5.311706v-1.981384c3.43982-.218812 6.853638-.740845 10.201783-1.559754h.632324c-.25293 6.112671-.25293 15.134094-.25293 19.771301v7.756775c0 4.215637 1.096192 4.215637 5.438233 3.920471v1.981385c-2.655884.632385-8.726441 2.529358-11.044922 3.372497z"/><path d="m1144.049316 732.428467c-2.4729 1.707641-5.427368 2.579162-8.431274 2.487243-3.973389.076722-7.751831-1.718811-10.20166-4.847961-2.773438-3.613159-4.163819-8.098572-3.920654-12.646912-.14856-5.695129 2.135986-11.183899 6.281372-15.09198 3.099487-2.874389 7.155273-4.496643 11.38208-4.552856 7.082275 0 9.443115 3.962707 9.443115 6.702881.057983 1.228576-.392944 2.426758-1.24646 3.312256-.853638.885559-2.034424 1.380005-3.264282 1.367126-1.768433.024964-3.239868-1.353393-3.330445-3.119629.812867-.520874 1.329224-1.3974 1.391236-2.360718 0-.800964-.379517-3.372497-4.215576-3.372497-3.836304 0-10.159668 3.751892-10.159668 14.7547 0 11.002746 5.733154 14.122375 10.454589 14.122375 3.626099.108704 7.130372-1.314453 9.653931-3.920593l1.180298 1.34906z"/><path d="m1179.502808 734.91571c-3.119507 0-5.100953-2.487243-5.100953-6.407775-2.522338 2.841735-5.687744 5.038818-9.232177 6.407775-2.439087.270874-4.881104-.482788-6.743408-2.081237-1.862061-1.598389-2.977173-3.898072-3.079102-6.349976-.215088-3.705383 2.281738-7.022522 5.901978-7.841064l13.068359-4.215638v-4.679382c0-5.901916-3.288208-8.431274-7.20874-8.431274-3.920411 0-4.932129 2.360778-4.932129 3.920532.068969 1.038147.519287 2.01416 1.264648 2.740173-.70935 1.447632-2.182129 2.363953-3.794067 2.360779-1.044922.068543-2.066529-.328735-2.790405-1.085266-.723999-.75647-1.075928-1.794556-.961548-2.835327 0-3.119507 3.372558-4.552857 6.913696-5.85968 0 0 5.269531-2.065674 7.588013-2.824463 5.901855 0 10.075439 2.824463 10.075439 8.684143v19.644836c0 2.740174 1.18042 4.215637 2.487183 4.215637 1.263061-.05133 2.475708-.509765 3.456909-1.306823l.927246 1.475464c-1.997681 2.376281-4.77832 3.960998-7.840942 4.468566zm-5.185303-18.422302-7.967407 2.950989c-3.962769 1.433289-4.552979 3.541077-4.552979 5.901855.178833 3.010682 2.675171 5.359131 5.69104 5.353882 2.782349 0 6.829346-4.552917 6.829346-4.552917z"/><path d="m1204.164185 735c-7.46167 0-8.979248-4.932251-8.89502-10.834106l.337402-21.078186h-5.185302v-1.559754c4.31018-2.349792 7.85205-5.891662 10.201904-10.201843h1.180298v8.431213h10.286133v3.499024h-10.286133l-.33728 20.825195c0 4.721497 1.601928 6.660706 4.721435 6.660706 2.034424-.06836 4.001709-.743714 5.649048-1.939209l1.011719 1.559814c-2.535889 2.139832-5.49524 3.720032-8.684204 4.637146z"/><path d="m1224.863037 733.608826c-2.740356 0-5.564697.379455-8.431274.379455v-1.981323c4.215576-.210815 5.437988-1.180359 5.437988-5.480347v-17.663513c0-3.920471-.800903-4.721496-4.721436-5.901855v-1.559815c3.499878-.871948 6.914307-2.057068 10.201905-3.541076h.632324v28.49768c0 4.215637 1.096069 5.10083 5.395996 5.480225v2.065674c-3.035278 0-5.775391-.295105-8.515503-.295105zm-.463867-44.053284c-2.561035 0-4.637207-2.076111-4.637207-4.637146 0-2.561096 2.076172-4.637207 4.637207-4.637207s4.637207 2.076111 4.637207 4.637207c0 2.561035-2.076172 4.637146-4.637207 4.637146z"/><path d="m1268.578979 702.581848c-1.368286 1.91388-2.421508 4.034485-3.119506 6.28125l-10.792115 25.504578-2.82434.379394-11.129395-27.82312c-.530029-1.534363-1.329468-2.961914-2.360718-4.215637-.876831-.796509-1.956176-1.336182-3.119507-1.559814v-1.981324c2.740113 0 4.847901.33722 7.588013.33722 2.740357 0 5.9021-.33722 8.726441-.33722v1.981324c-4.215577.379455-5.185303 1.180358-5.185303 2.360778.217529 1.353516.614624 2.671936 1.180542 3.920533l7.292969 19.223266 7.208618-19.223266c.622192-1.226807 1.021972-2.554139 1.18042-3.920533 0-1.18042-1.095948-1.981323-4.468506-2.360778v-1.981324c2.529297 0 4.468506.33722 7.082275.33722 2.613648 0 3.288208-.33722 5.859741-.33722v1.981324c-1.162719.145324-2.252075.645813-3.119629 1.433349z"/><path d="m1299.353027 734.91571c-3.161743 0-5.10083-2.487243-5.10083-6.407775-2.529785 2.852294-5.711548 5.050598-9.274414 6.407775-2.439087.270874-4.881225-.482788-6.743286-2.081237-1.862183-1.598389-2.977173-3.898072-3.079101-6.349976-.215088-3.705383 2.281616-7.022522 5.901855-7.841064l13.110718-4.215638v-4.679382c0-5.901916-3.330445-8.431274-7.250977-8.431274s-4.932251 2.360778-4.932251 3.920532c.068848 1.038147.519409 2.01416 1.264649 2.740173-.702637 1.434021-2.15503 2.347962-3.751953 2.360779-1.051758.081726-2.085328-.309753-2.819092-1.067932-.733643-.758118-1.091187-1.804016-.974854-2.852661 0-3.119507 3.372437-4.552857 6.913574-5.85968 0 0 5.269532-2.065674 7.630249-2.824463 5.859742 0 10.033204 2.824463 10.033204 8.684143v19.644836c0 2.740174 1.180297 4.215637 2.487182 4.215637 1.263062-.05133 2.475708-.509765 3.456909-1.306823l.969605 1.475464c-2.011841 2.359252-4.786011 3.940185-7.841187 4.468566zm-5.185058-18.422302-8.009888 2.950989c-3.92041 1.433289-4.552734 3.541077-4.552734 5.901855.179565 3.027039 2.700927 5.381653 5.733154 5.353882 2.740234 0 6.829468-4.552917 6.829468-4.552917z"/><path d="m407.655609 520.34314c-11.752014 0-20.808227-8.719239-21.060943-17.775452-.210602-7.034363 1.769104-16.848755 15.585113-24.220093 0 0 25.273132-13.05777 28.263763-14.911163v41.742828s-13.858093 15.16388-22.703674 15.16388m-318.441467-434.655762h357.193573v39.973694c-5.349457-9.435303-16.090546-14.11084-29.822296-14.026612l-25.273133 9.519593c-11.709869 4.507019-22.914276 9.308899-22.830047 19.713012-.360077 3.478821.842438 6.93805 3.282745 9.443421 2.440308 2.505432 5.866699 3.798523 9.353821 3.530151 5.365448-.055725 10.246796-3.114746 12.636566-7.918945-2.474243-2.394959-3.97467-5.62085-4.212189-9.056213 0-5.223084 3.327637-13.099854 16.385407-13.141968 13.05777-.042176 24.051575 7.666137 24.135864 27.252807v4.717652c-8.424377 5.223083-43.933136 22.830078-43.933136 22.830078-11.288666 5.391601-21.060943 13.268371-21.060943 28.937683 0 15.669373 15.332367 27.800476 37.06723 27.674103 10.421295-5.870758 19.999756-13.125458 28.474396-21.566376 0 12.636566 6.191925 20.639679 15.922088 21.060944v27.294952h-2.990661c-9.325104 6.70874-20.374146 10.610962-31.844117 11.246552v5.180999c13.05777 3.917328 15.627198 6.52887 15.627198 19.58667v58.886383c0 14.321442-3.622467 17.480591-17.986054 18.2388v6.5289h37.067261v42.795807c-5.433716-8.92984-15.964203-13.394745-29.232605-13.394745l-25.273132 9.393189c-11.751984 4.212189-22.998536 9.140442-22.998536 19.586639-.358093 3.482178.843506 6.944245 3.281891 9.455811 2.438385 2.511536 5.863465 3.814941 9.354676 3.559875 5.332122-.050567 10.197387-3.050811 12.636566-7.792541-2.483124-2.423218-3.983246-5.678497-4.212189-9.140473 0-5.223114 3.411896-13.057769 16.427551-13.057769 13.015625 0 24.009461 7.834655 24.009461 27.379211v4.759796c-8.424378 5.138855-44.05951 22.535218-44.05951 22.535218-11.330749 5.349456-21.060913 13.184143-21.060913 28.81137.27826 9.212952 5.46991 17.570984 13.605378 21.903382h-33.149933c-5.349488-2.232422-7.034363-6.528931-7.034363-16.048462v-63.182831c0-27.926819-13.689606-40.310669-39.215454-37.909698-11.920502 6.5289-37.488495 19.839416-37.488495 19.839416l.252716-19.039093h-3.580353c-9.963791 5.843262-20.9879 9.651611-32.433838 11.204437v5.223084c13.057785 3.917358 15.669342 6.5289 15.669342 19.544555v64.572876c0 9.182557-1.558502 13.731751-6.360412 16.048401h-29.23259l10.99382-11.288635-1.937607-2.527283c-3.254791 2.620728-7.279907 4.100525-11.457153 4.212159-4.212189 0-8.424377-4.675538-8.424377-13.815979v-65.246827c0-19.586639-13.815979-28.979828-33.36055-28.979828l-25.273117 9.393189c-11.752007 4.212189-22.956429 9.140442-22.956429 19.586639-.373527 3.485749.822968 6.957001 3.264961 9.47226 2.441986 2.515259 5.876366 3.813782 9.371605 3.543426 5.323998-.07846 10.176079-3.070587 12.636574-7.792541-2.483124-2.423218-3.983246-5.678497-4.212189-9.140473 0-5.223114 3.369751-13.057769 16.427521-13.057769 13.0578 0 23.967362 7.834655 23.967362 27.379211v4.759796c-8.424378 5.138855-44.059494 22.535218-44.059494 22.535218-11.288666 5.349456-21.060944 13.184143-21.060944 28.81137.260788 9.21814 5.457458 17.58429 13.60537 21.903382h-48.566536c.589714-.294861 1.305786-.547608 1.853363-.884522l17.85968-16.343353-.210602-6.444641c-11.230728 7.676544-24.560204 11.693024-38.162434 11.499298-23.461891 0-41.532178-16.553894-42.121884-50.546265-.547585-27.421386 11.836249-45.828643 33.697507-45.828643 13.984466 0 25.610111 5.981323 25.610111 15.45874 0 5.728546-3.454002 9.140442-7.371338 9.014099.383774 5.955688 5.498574 10.487549 11.457161 10.151337 3.940911-.064087 7.687836-1.721619 10.386193-4.594605 2.698349-2.872925 4.118026-6.716278 3.935241-10.653503-.336975-15.121766-16.259048-27.674103-43.006443-27.674103-17.720592-.040772-34.471493 8.086059-45.407391 22.029785v-51.978394h35.213895v-6.5289c-13.815978-1.305786-16.848752-3.917358-16.848752-18.2388v-65.415283c6.528891-5.223114 18.82848-14.363556 30.538365-14.363556 18.280903 0 22.998546 11.751984 22.998546 30.032898v49.745941c0 14.321442-3.159141 16.848755-16.848751 18.2388v6.5289h54.000256v-6.5289c-13.815971-1.305786-16.848755-3.917358-16.848755-18.2388v-54.758453c0-5.223114-.294853-10.446198-.294853-10.446198 6.5289-5.223144 19.039093-14.363586 30.791099-14.363586 18.280899 0 22.956421 11.752014 22.956421 30.032898v49.535339c0 14.321442-3.117019 16.848755-16.848739 18.2388v6.5289h55.643005v-6.5289c-14.616287-1.305786-18.280899-3.917358-18.280899-18.2388v-57.412109c0-28.51651-16.638153-40.563385-40.015793-38.120331-11.245544 8.29364-23.054107 15.79538-35.340263 22.450989-5.34948-19.123352-19.123329-25.273132-37.909695-22.450989-11.154808 7.704498-22.7589 14.737274-34.750555 21.060944v-20.344849h-4.212187c-3.976356 3.667664-8.748678 6.363831-13.942345 7.87677v-37.909698h46.671048v-6.865845c-13.057785-1.558533-16.848755-2.611572-21.060942-6.486756-4.212189-3.875244-4.212189-9.140441-4.212189-22.198242v-24.346435h28.685008c12.762626.312256 25.233261-3.844605 35.256019-11.752075 12.064171-9.88855 18.811752-24.848511 18.23877-40.436951.224578-13.783203-6.668389-26.709473-18.23877-34.203003m164.780808 175.60614c-29.485321 0-56.906662 22.577332-56.906662 62.930115 0 32.012634 20.555465 60.48703 56.738174 60.48703 6.455536.004547 12.855225-1.195374 18.870606-3.538269 15.837829-11.035889 26.031311-17.85965 26.031311-17.85965v-6.613159c-11.199189 6.914246-24.211762 10.317749-37.362092 9.772278-26.368301 0-38.83638-22.703675-40.310653-37.909699l77.672745-15.585083c2.822174-40.015777-21.060944-51.725647-44.733429-51.725647m98.396728 26.873749.252747-26.199829h-4.633423c-9.425141 6.167725-20.180725 10.007996-31.380829 11.204437v5.223114c13.0578 3.917328 15.669373 6.52887 15.669373 19.58667v58.886383c0 14.321442-3.622498 17.480591-17.986054 18.2388v6.5289h60.276428v-6.5289c-19.5867-1.305786-21.945495-3.917358-21.945495-18.2388v-56.990906c4.717621-7.834686 13.563232-22.156097 21.060913-22.156097.97876-.132629 1.967438.160126 2.716217.80423s1.185974 1.577972 1.201141 2.565521c-.041992 1.287903-.604309 2.503784-1.558533 3.369721 1.717286 4.555175 6.394715 7.280761 11.204438 6.5289 7.410309-.772065 12.943573-7.172181 12.636566-14.616303.074036-4.145294-1.610809-8.128082-4.637177-10.961822-3.026428-2.833741-7.111297-4.253327-11.242797-3.907196-5.08722.323577-9.907319 2.391479-13.647461 5.85495-8.929871 11.33081-17.691193 21.060943-17.691193 21.060943m-130.240875-56.485443h55.053283v-6.486755c-13.563232-1.558533-16.848724-3.917359-16.848724-18.280884v-66.510498c6.52887-5.223084 20.092133-13.0578 30.496246-13.0578 19.58664 0 25.610077 11.752075 25.610077 29.990844v49.619568c0 14.363526-3.159149 16.848725-16.848755 18.280884v6.486786h55.600922v-6.5289c-14.616302-1.390045-18.2388-3.917359-18.2388-18.23877v-57.454223c0-27.926819-13.689606-40.310669-39.215454-37.909729-11.920502 6.360412-37.530609 19.544555-37.530609 19.544555l.29483-19.081177h-3.580353c-9.953003 5.87439-20.980697 9.698304-32.433853 11.246521v5.223084c13.0578 3.917358 15.627243 6.52887 15.627243 19.544556v58.886413c0 14.363526-3.622497 17.48056-17.986053 18.280884zm-46.755295-76.198486c-8.424378 5.223083-43.933121 22.830078-43.933121 22.830078-11.288673 5.391601-21.060943 13.268371-21.060943 28.937683 0 15.669373 15.290237 27.800476 37.06726 27.674103 10.414215-5.881501 19.991303-13.135163 28.474381-21.566376 0 13.05777 6.655258 21.355774 16.848755 21.31366 3.896042-.162934 7.695648-1.260926 11.078064-3.201264l13.731735-14.237213-1.937607-2.527283c-3.22908 2.705323-7.25032 4.287171-11.457153 4.507019-4.46492 0-8.424378-4.675537-8.424378-13.773864l-.379104-65.246765c0-19.58667-13.984467-28.89563-33.69751-28.769288l-25.273132 9.519593c-11.709877 4.507019-22.87217 9.308899-22.830048 19.713012-.360069 3.478821.842438 6.93805 3.282745 9.443421 2.4403 2.505432 5.8667 3.798523 9.353821 3.530151 5.359833-.074951 10.23198-3.128174 12.636566-7.918945-2.474258-2.394959-3.97467-5.62085-4.212188-9.056213 0-5.223084 3.327621-13.099854 16.385406-13.141968 13.057785-.042176 24.009476 7.666137 24.135834 27.252807zm210.820053 47.681946c.336945 9.056213 9.477417 17.691223 21.060944 17.649108 8.845581 0 22.619415-15.290222 22.619415-15.290222l-.252716-41.700683c-2.906433 1.853332-28.179566 15.037536-28.179566 15.037536-13.731689 7.455506-15.711425 17.269959-15.416595 24.304261m-232.976135 17.649108c8.845581 0 22.577331-15.290222 22.577331-15.290222l-.210602-41.700683c-3.032791 1.853332-28.305923 15.037536-28.305923 15.037536-13.731735 7.455506-15.669327 17.269959-15.416595 24.304261.379089 9.056213 9.519531 17.691223 21.060928 17.649108m101.892837 48.566529c-21.65065 0-35.340255 19.291809-34.792663 51.262298l56.190597-11.288665c4.212189-29.48526-9.688049-39.973633-21.397934-39.973633m175.64827 243.422363c-5.782837 5.76886-12.149322 10.921326-18.996979 15.374512h23.461914c-3.140625-4.493408-4.710113-9.897827-4.464935-15.374512m-402.643099-427.326538c-2.106094 1.853393-2.611557 4.970398-2.611557 11.499329v66.510437h25.820715c16.427532 0 30.791096-13.815979 30.791096-41.195191 0-21.060974-10.193489-32.475952-26.578907-36.814575zm-24.093718 426.568359v16.132691h19.207579c-7.584438-3.788697-14.165903-9.31659-19.207579-16.132691m171.646668.758179c-5.782837 5.76886-12.149322 10.921326-18.996963 15.374512h23.461898c-3.140594-4.493408-4.710098-9.897827-4.464935-15.374512m142.919556-.67395v-55.432404c0-18.238769-6.023438-29.990783-25.610108-29.990783-10.404083 0-23.967315 7.834655-30.496246 13.057769v72.365418c0 9.688049 1.516388 13.858093 6.613159 16.048462h43.132782c4.88617-2.232422 6.360413-6.528931 6.360413-16.048462m-143.214401-7.160706v-41.742828c-2.906403 1.853393-28.263779 14.911163-28.263779 14.911163-13.815979 7.413452-15.795715 17.18573-15.542969 24.220093.294846 9.056213 9.393173 17.775452 21.060944 17.775452 8.845581 0 22.661575-15.16388 22.661575-15.16388"/></g><text font-family="Laurentian Std" font-size="96" x="505" y="536">SMART</text></svg>