<?xml version="1.0" encoding="UTF-8"?>
<!-- Generated by Pixelmator Pro 3.6.13 -->
<svg width="798" height="261" viewBox="0 0 798 261" xmlns="http://www.w3.org/2000/svg">
    <g id="talent-center">
        <g id="Capa1-2">
            <path id="Trazado" fill="#bf9650" stroke="none" d="M 41.922203 177.994324 C 37.382698 181.291779 31.841324 182.915482 26.240063 182.589355 C 10.55792 182.589355 0.356075 172.471802 0.356075 155.609283 C 0.169917 148.57692 2.872902 141.775345 7.835316 136.789032 C 12.797729 131.802719 19.586277 129.067093 26.619453 129.219482 C 32.405136 129.007919 38.128872 130.471771 43.102577 133.435104 L 43.355503 145.281006 L 41.542751 145.576141 C 39.982986 137.735077 35.640896 132.001816 26.240063 132.001816 C 16.839197 132.001816 8.492239 140.09581 8.492239 155.777954 C 8.492239 171.460083 16.417641 179.554092 25.86064 179.554092 C 33.95956 179.478058 41.08186 174.179001 43.481968 166.443481 L 45.463318 167.160126 Z"/>
            <path id="path1" fill="#bf9650" stroke="none" d="M 76.237419 179.554092 C 73.43457 181.574432 70.036064 182.598419 66.583595 182.462891 C 57.140625 182.462891 51.660297 174.832611 51.660297 164.462128 C 51.660297 154.09166 59.121975 145.323212 68.143417 145.323212 C 77.164864 145.323212 80.284386 152.068176 80.284386 158.771011 C 80.284386 159.909241 79.904991 160.541565 78.724625 160.541565 L 57.94154 160.330841 C 57.94154 160.330841 57.94154 161.5112 57.94154 162.691589 C 57.94154 171.122833 62.157169 176.813904 68.986534 176.813904 C 72.964348 176.973755 76.823997 175.442154 79.609932 172.598267 L 80.790306 173.947296 Z M 67.215973 147.93689 C 63.000347 147.93689 58.784718 151.309387 58.110203 158.349487 L 71.810997 157.970093 C 72.991364 157.970093 73.412956 157.590637 73.455086 156.410278 C 73.455086 151.309387 71.262939 147.93689 67.215973 147.93689 Z"/>
            <path id="path2" fill="#bf9650" stroke="none" d="M 117.719185 181.113861 C 114.810394 181.113861 112.533981 181.493256 109.582985 181.493256 L 109.582985 179.554092 C 113.798615 179.174698 114.599594 178.373718 114.599594 174.073761 L 114.599594 159.150467 C 114.599594 153.670135 112.786911 150.129028 106.884987 150.129028 C 103.513695 150.544693 100.328171 151.903625 97.694946 154.04953 L 97.694946 174.073761 C 97.694946 178.289398 98.664528 179.090363 102.753693 179.554092 L 102.753693 181.493256 C 99.844894 181.493256 97.694946 181.113861 94.744026 181.113861 C 91.793098 181.113861 89.179359 181.493256 86.312767 181.493256 L 86.312767 179.554092 C 90.528397 179.301163 91.708763 178.373718 91.708763 174.073761 L 91.708763 156.410278 C 91.708763 152.489777 90.949921 151.688782 87.029419 150.508423 L 87.029419 148.948593 C 90.523636 148.057617 93.936417 146.873001 97.231232 145.407471 L 97.821411 145.407471 L 97.821411 151.140732 C 101.58181 148.298965 105.886658 146.261322 110.4683 145.154541 C 117.929977 145.154541 120.75444 148.779999 120.75444 156.621063 L 120.75444 173.905167 C 120.75444 178.120789 121.850479 179.006042 126.234772 179.385437 L 126.234772 181.324646 C 123.241646 181.493256 120.712311 181.113861 117.719185 181.113861 Z"/>
            <path id="path3" fill="#bf9650" stroke="none" d="M 144.108994 182.54715 C 136.647385 182.54715 135.129745 177.572739 135.21402 171.713013 L 135.55127 150.634888 L 130.366074 150.634888 L 130.366074 149.075119 C 134.667633 146.713867 138.206696 143.174866 140.567886 138.87323 L 141.74826 138.87323 L 141.74826 147.304504 L 152.034393 147.304504 L 152.034393 150.845673 L 141.74826 150.845673 L 141.410995 171.628693 C 141.410995 176.350174 143.012955 178.331528 146.132538 178.331528 C 148.172745 178.258636 150.142715 177.567719 151.781464 176.350174 L 152.793182 177.910004 C 150.26088 180.055191 147.300369 181.636047 144.108994 182.54715 Z"/>
            <path id="path4" fill="#bf9650" stroke="none" d="M 178.12915 154.218124 C 176.682281 154.415741 175.288345 153.596802 174.756638 152.236847 C 175.065323 151.98996 175.250259 151.620148 175.262482 151.225067 C 175.252838 150.929565 175.119492 150.651733 174.895065 150.459335 C 174.670563 150.266937 174.375626 150.177658 174.082123 150.213287 C 171.89003 150.213287 169.192032 154.428925 167.800873 156.873993 L 167.800873 174.073761 C 167.800873 178.289398 168.475327 179.174698 174.377243 179.554092 L 174.377243 181.493256 C 171.257645 181.493256 168.264587 181.113861 165.271469 181.113861 C 162.278336 181.113861 159.243149 181.493256 156.250031 181.493256 L 156.250031 179.554092 C 160.465652 179.301163 161.688156 178.373718 161.688156 174.073761 L 161.688156 156.410278 C 161.688156 152.489777 160.887238 151.688782 156.966675 150.508423 L 156.966675 148.948593 C 160.460953 148.057617 163.873672 146.873001 167.168488 145.407471 L 167.800873 145.407471 L 167.800873 153.24855 C 170.920395 148.147675 174.461563 145.154541 177.201706 145.154541 C 178.447235 145.047318 179.680099 145.471741 180.595642 146.323029 C 181.511185 147.174301 182.024048 148.373077 182.007523 149.623108 C 182.112503 150.748871 181.760895 151.869659 181.031631 152.733688 C 180.302322 153.597717 179.256577 154.132568 178.12915 154.218124 Z"/>
            <path id="path5" fill="#bf9650" stroke="none" d="M 204.055237 182.462891 C 199.331375 182.435669 194.8255 180.471497 191.590332 177.029129 C 188.355148 173.586823 186.674072 168.967865 186.939789 164.251343 C 186.939789 153.079956 194.527939 145.323212 203.591507 145.323212 C 208.312027 145.349716 212.814163 147.315247 216.042725 150.759033 C 219.271347 154.202881 220.942581 158.822281 220.664825 163.534698 C 220.664825 174.66394 213.076675 182.462891 204.055237 182.462891 Z M 203.422913 148.063354 C 197.141602 148.063354 193.979889 153.24855 193.979889 163.070969 C 193.979889 172.893402 197.942581 179.554092 204.181702 179.554092 C 210.420868 179.554092 213.624725 174.368896 213.624725 164.546463 C 213.624725 154.724045 209.704163 148.063354 203.422913 148.063354 Z"/>
            <path id="path6" fill="#bf9650" stroke="none" d="M 255.064362 181.113861 C 251.523254 181.113861 247.982071 181.493256 244.440964 181.493256 L 244.440964 179.469757 C 248.361526 178.921707 249.162445 178.668793 250.34288 177.488403 C 251.523254 176.308044 251.733978 174.748276 251.733978 170.827713 L 251.733978 140.938919 C 251.733978 136.723297 251.523254 135.205658 250.553604 134.025299 C 248.944702 132.747787 246.910156 132.129883 244.862549 132.296875 L 244.862549 130.273392 C 248.361526 130.273392 251.523254 130.652771 255.064362 130.652771 C 258.605469 130.652771 261.725067 130.273392 265.266174 130.273392 L 265.266174 132.212601 C 262.483856 132.46553 260.544708 132.844925 259.617249 134.025299 C 258.689819 135.205658 258.43689 136.765427 258.43689 140.854584 L 258.43689 170.827713 C 258.43689 174.748276 258.43689 176.350174 259.743713 177.488403 C 261.050537 178.626648 262.188782 179.090363 265.729889 179.469757 L 265.729889 181.493256 C 262.104462 181.493256 258.563354 181.113861 255.064362 181.113861 Z"/>
            <path id="path7" fill="#bf9650" stroke="none" d="M 302.363708 181.113861 C 299.454926 181.113861 297.178436 181.493256 294.185394 181.493256 L 294.185394 179.554092 C 298.401031 179.174698 299.244141 178.373718 299.244141 174.073761 L 299.244141 159.150467 C 299.244141 153.670135 297.431427 150.129028 291.52951 150.129028 C 288.158234 150.544693 284.972717 151.903625 282.339478 154.04953 L 282.339478 174.073761 C 282.339478 178.289398 283.309052 179.090363 287.356079 179.554092 L 287.356079 181.493256 C 284.489441 181.493256 282.339478 181.113861 279.38855 181.113861 C 276.437561 181.113861 273.781769 181.493256 270.957306 181.493256 L 270.957306 179.554092 C 275.172943 179.301163 276.353302 178.373718 276.353302 174.073761 L 276.353302 156.410278 C 276.353302 152.489777 275.552307 151.688782 271.631744 150.508423 L 271.631744 148.948593 C 275.130096 148.071136 278.543976 146.886124 281.833557 145.407471 L 282.465942 145.407471 L 282.465942 151.140732 C 286.233734 148.311188 290.53595 146.27478 295.112823 145.154541 C 302.574524 145.154541 305.398987 148.779999 305.398987 156.621063 L 305.398987 173.905167 C 305.398987 178.120789 306.495026 179.006042 310.879242 179.385437 L 310.879242 181.324646 C 307.844055 181.493256 305.356781 181.113861 302.363708 181.113861 Z"/>
            <path id="path8" fill="#bf9650" stroke="none" d="M 326.224182 182.54715 C 322.57605 182.714844 318.997101 181.511841 316.190979 179.174698 L 315.558594 169.900269 L 317.497803 169.56308 C 318.678192 175.085541 321.418304 179.933487 325.929077 179.933487 C 327.658508 180.096924 329.372925 179.49556 330.621338 178.287659 C 331.869843 177.079742 332.527374 175.386139 332.421112 173.652176 C 332.421112 168.80423 328.205475 166.991547 324.411438 165.220917 C 320.617401 163.450363 316.359558 160.752365 316.359558 154.892639 C 316.527344 152.149292 317.813141 149.59494 319.916687 147.825989 C 322.020264 146.057098 324.757385 145.228592 327.488831 145.533936 C 330.653503 145.403564 333.79599 146.11647 336.594604 147.599625 L 336.594604 155.567154 L 334.781921 155.820084 C 333.854462 149.918228 330.313293 147.894684 327.573151 147.894684 C 326.070831 147.688446 324.55249 148.139374 323.406281 149.132233 C 322.260071 150.125031 321.597137 151.563538 321.586975 153.079956 C 321.586975 157.801437 326.940826 159.361206 330.481964 161.300415 C 335.822693 162.987549 339.043732 168.41745 337.96402 173.913269 C 336.884247 179.409042 331.848358 183.216782 326.266327 182.75795 Z"/>
            <path id="path9" fill="#bf9650" stroke="none" d="M 358.052124 182.54715 C 350.63266 182.54715 349.115021 177.572739 349.199341 171.713013 L 349.536621 150.634888 L 344.351349 150.634888 L 344.351349 149.075119 C 348.652985 146.713867 352.191956 143.174866 354.553162 138.87323 L 355.733582 138.87323 L 355.733582 147.304504 L 365.977539 147.304504 L 365.977539 150.845673 L 355.691406 150.845673 L 355.354126 171.628693 C 355.354126 176.350174 356.956085 178.331528 360.075684 178.331528 C 362.115875 178.258636 364.085846 177.567719 365.724609 176.350174 L 366.736328 177.910004 C 364.204742 180.056274 361.243958 181.637268 358.052124 182.54715 Z"/>
            <path id="path10" fill="#bf9650" stroke="none" d="M 378.62442 181.113861 C 375.884277 181.113861 373.059753 181.493256 370.193176 181.493256 L 370.193176 179.554092 C 374.408783 179.301163 375.589172 178.373718 375.589172 174.073761 L 375.589172 156.410278 C 375.589172 152.489777 374.830383 151.688782 370.909821 150.508423 L 370.909821 148.948593 C 374.404083 148.057617 377.816803 146.873001 381.111633 145.407471 L 381.744019 145.407471 L 381.744019 173.905167 C 381.744019 178.120789 382.840057 179.006042 387.140015 179.385437 L 387.140015 181.324646 C 384.273346 181.493256 381.533203 181.113861 378.62442 181.113861 Z M 378.160706 137.102692 C 376.277832 137.136963 374.561249 136.029083 373.816864 134.299316 C 373.07251 132.569489 373.44809 130.56131 374.767456 129.217484 C 376.086792 127.873734 378.087769 127.461334 379.830963 128.173813 C 381.574127 128.886337 382.713257 130.582336 382.713593 132.46553 C 382.74762 133.661987 382.304657 134.822861 381.482391 135.692596 C 380.660065 136.562347 379.525818 137.069611 378.329285 137.102692 Z"/>
            <path id="path11" fill="#bf9650" stroke="none" d="M 405.225037 182.54715 C 397.763336 182.54715 396.287903 177.572739 396.372253 171.713013 L 396.667297 150.634888 L 391.524231 150.634888 L 391.524231 149.075119 C 395.825867 146.713867 399.364868 143.174866 401.726044 138.87323 L 402.864288 138.87323 L 402.864288 147.304504 L 413.108215 147.304504 L 413.108215 150.845673 L 402.864288 150.845673 L 402.527039 171.628693 C 402.527039 176.350174 404.086792 178.331528 407.248505 178.331528 C 409.286774 178.248291 411.253784 177.558395 412.897491 176.350174 L 413.90921 177.910004 C 411.377625 180.056274 408.41684 181.637268 405.225037 182.54715 Z"/>
            <path id="path12" fill="#bf9650" stroke="none" d="M 444.851959 182.29422 L 444.472504 181.914825 L 444.219574 176.01297 C 441.078247 178.93399 437.33786 181.135071 433.259003 182.462891 C 429.757813 182.725647 426.377411 181.123505 424.364014 178.247253 C 422.542572 175.173019 421.731628 171.604889 422.04541 168.045441 L 422.04541 154.513245 C 422.04541 150.972137 421.075836 149.538849 417.492523 149.159393 L 417.492523 147.22023 C 420.949951 147.00943 424.379761 146.473083 427.736481 145.618271 L 428.368835 145.618271 C 428.158051 151.730927 428.158051 165.473907 428.158051 165.473907 C 427.887634 168.349182 428.336761 171.246597 429.464874 173.905167 C 430.815155 176.146912 433.303375 177.447952 435.914795 177.277618 C 439.046478 176.636749 441.954315 175.1828 444.346039 173.061981 L 444.346039 154.513245 C 444.346039 150.972137 443.41861 149.538849 439.877502 149.159393 L 439.877502 147.22023 C 443.320953 147.008545 446.736694 146.472198 450.079315 145.618271 L 450.7117 145.618271 C 450.7117 151.730927 450.7117 160.752365 450.7117 165.389587 L 450.7117 172.556137 C 450.7117 176.771759 451.807739 176.771759 456.107697 176.4767 L 456.360626 178.415863 C 453.241028 179.554092 447.212708 181.493256 444.851959 182.29422 Z"/>
            <path id="path13" fill="#bf9650" stroke="none" d="M 483.382813 179.807022 C 480.979858 181.499939 478.101257 182.385635 475.162292 182.336426 C 471.18158 182.403 467.401825 180.591217 464.96048 177.446289 C 462.170288 173.841873 460.777832 169.34996 461.039978 164.799393 C 460.887329 159.124283 463.155884 153.65213 467.279083 149.749573 C 470.383026 146.88208 474.435974 145.26088 478.661255 145.196686 C 485.743561 145.196686 488.104309 149.117249 488.104309 151.857391 C 488.161682 153.08252 487.717621 154.278137 486.874573 155.168915 C 486.031525 156.059692 484.862152 156.568771 483.635742 156.578934 C 481.859467 156.604919 480.375458 155.232208 480.263214 153.459351 C 481.057068 152.920425 481.567535 152.054092 481.654388 151.098602 C 481.654388 150.297623 481.274994 147.726089 477.438751 147.726089 C 473.602509 147.726089 467.321228 151.477997 467.321228 162.480774 C 467.321228 173.483582 473.054474 176.603165 477.733826 176.603165 C 481.35611 176.691101 484.852325 175.27124 487.387634 172.682587 L 488.568024 173.989441 Z"/>
            <path id="path14" fill="#bf9650" stroke="none" d="M 501.762939 181.113861 C 499.022766 181.113861 496.198303 181.493256 493.331696 181.493256 L 493.331696 179.554092 C 497.547333 179.301163 498.727692 178.373718 498.727692 174.073761 L 498.727692 156.410278 C 498.727692 152.489777 497.968842 151.688782 494.04834 150.508423 L 494.04834 148.948593 C 497.542572 148.057617 500.955292 146.873001 504.250153 145.407471 L 504.840332 145.407471 L 504.840332 173.905167 C 504.840332 178.120789 505.936371 179.006042 510.278473 179.385437 L 510.278473 181.324646 C 507.243225 181.493256 504.503082 181.113861 501.762939 181.113861 Z M 501.299225 137.102692 C 499.412964 137.154144 497.683685 136.057587 496.925873 134.329498 C 496.168121 132.601379 496.533051 130.586456 497.848755 129.233887 C 499.164398 127.881317 501.168457 127.460831 502.916901 128.170532 C 504.665253 128.880234 505.809204 130.578613 505.809906 132.46553 C 505.844086 133.683594 505.383972 134.863647 504.534363 135.737122 C 503.684662 136.610657 502.517761 137.103195 501.299225 137.102692 Z"/>
            <path id="path15" fill="#bf9650" stroke="none" d="M 532.368408 182.462891 C 527.64447 182.435669 523.138611 180.471497 519.903503 177.029129 C 516.668274 173.586823 514.987244 168.967865 515.25293 164.251343 C 515.25293 153.079956 522.841125 145.323212 531.862549 145.323212 C 536.590332 145.338196 541.103516 147.298645 544.34137 150.743774 C 547.579163 154.188995 549.256104 158.815002 548.977966 163.534698 C 548.977966 174.66394 541.389832 182.462891 532.368408 182.462891 Z M 531.736084 148.063354 C 525.454773 148.063354 522.29303 153.24855 522.29303 163.070969 C 522.29303 172.893402 526.213562 179.554092 532.494873 179.554092 C 538.776184 179.554092 541.937866 174.368896 541.937866 164.546463 C 541.937866 154.724045 538.017334 148.063354 531.736084 148.063354 Z"/>
            <path id="path16" fill="#bf9650" stroke="none" d="M 586.792175 181.113861 C 583.925598 181.113861 581.649109 181.493256 578.656067 181.493256 L 578.656067 179.554092 C 582.871643 179.174698 583.672668 178.373718 583.672668 174.073761 L 583.672668 159.150467 C 583.672668 153.670135 581.859802 150.129028 576.000183 150.129028 C 572.623962 150.526489 569.433594 151.887543 566.810059 154.04953 L 566.810059 174.073761 C 566.810059 178.289398 567.737488 179.090363 571.826599 179.554092 L 571.826599 181.493256 C 568.917969 181.493256 566.810059 181.113861 563.816956 181.113861 C 560.823914 181.113861 558.252319 181.493256 555.385681 181.493256 L 555.385681 179.554092 C 559.601318 179.301163 560.823914 178.373718 560.823914 174.073761 L 560.823914 156.410278 C 560.823914 152.489777 560.022888 151.688782 556.102417 150.508423 L 556.102417 148.948593 C 559.596619 148.057617 563.009338 146.873001 566.304199 145.407471 L 566.936523 145.407471 L 566.936523 151.140732 C 570.696899 148.298965 575.001831 146.261322 579.583496 145.154541 C 587.045105 145.154541 589.869507 148.779999 589.869507 156.621063 L 589.869507 173.905167 C 589.869507 178.120789 590.965576 179.006042 595.349915 179.385437 L 595.349915 181.324646 C 592.314636 181.493256 589.785217 181.113861 586.792175 181.113861 Z"/>
            <path id="path17" fill="#bf9650" stroke="none" d="M 624.775024 182.462891 C 621.655396 182.462891 619.674011 179.933487 619.674011 176.01297 C 617.154236 178.867554 613.989075 181.078918 610.441772 182.462891 C 608.005371 182.720963 605.570313 181.962692 603.711182 180.366852 C 601.852051 178.771057 600.733521 176.479019 600.619446 174.031631 C 600.418335 170.321472 602.904663 167.000412 606.521301 166.148361 L 619.589783 161.932739 L 619.589783 157.211243 C 619.589783 151.351532 616.301575 148.990784 612.381042 148.990784 C 608.460449 148.990784 607.44873 151.351532 607.44873 152.911285 C 607.5177 153.949432 607.968201 154.925446 608.713379 155.651489 C 608.004089 157.09906 606.531433 158.015442 604.919312 158.012238 C 603.874573 158.080811 602.852905 157.683533 602.129028 156.927063 C 601.40509 156.170532 601.052979 155.132507 601.16748 154.09166 C 601.16748 150.929932 604.539917 149.538849 608.081055 148.189804 C 608.081055 148.189804 613.350586 146.166321 615.66925 145.365341 C 621.571106 145.365341 625.744507 148.189804 625.744507 154.09166 L 625.744507 173.694366 C 625.744507 176.434509 626.882813 177.910004 628.23175 177.910004 C 629.503052 177.862396 630.72113 177.3871 631.688599 176.560974 L 632.616028 178.078598 C 630.60498 180.423584 627.825867 181.977478 624.775024 182.462891 Z M 619.589783 163.998413 L 611.622131 166.991547 C 607.659424 168.424835 607.069336 170.532654 607.069336 172.893402 C 607.269409 175.887421 609.759705 178.211761 612.760437 178.205063 C 615.542786 178.205063 619.589783 173.652176 619.589783 173.652176 Z"/>
            <path id="path18" fill="#bf9650" stroke="none" d="M 643.365845 181.113861 C 639.866943 181.113861 637.084595 181.493256 634.93457 181.493256 L 634.93457 179.554092 C 639.403137 179.174698 640.414978 178.373718 640.414978 174.073761 L 640.414978 134.025299 C 640.414978 130.104797 639.234619 128.924362 635.229675 128.123444 L 635.229675 126.563614 C 638.97406 125.55043 642.649231 124.29718 646.232544 122.811722 L 646.991333 123.191177 C 646.527527 126.732269 646.527527 134.952728 646.527527 138.915436 L 646.527527 174.073761 C 646.527527 178.289398 647.455017 179.174698 652.007935 179.554092 L 652.007935 181.493256 C 649.520752 181.493256 646.907043 181.113861 643.365845 181.113861 Z"/>
            <path id="path19" fill="#bf9650" stroke="none" d="M 25.86064 260.74707 L 25.439083 260.367676 L 25.439083 254.88736 C 22.395399 258.073059 18.402304 260.187897 14.056867 260.915741 C 9.868416 261.040771 5.889955 259.083099 3.433497 255.688324 C 1.015281 252.117432 -0.169078 247.853821 0.060982 243.547302 C -0.023895 238.580292 1.648275 233.74295 4.782497 229.888702 C 7.924342 226.140213 12.53898 223.940536 17.429382 223.860321 C 20.32589 223.685684 23.191393 224.536377 25.52338 226.26326 L 25.52338 212.562469 C 25.52338 208.599762 24.34301 207.461533 20.338177 206.660553 L 20.338177 205.1008 C 24.06789 204.067917 27.728712 202.800705 31.298803 201.306747 L 32.015453 201.728271 C 31.636061 205.227249 31.551731 213.489914 31.551731 217.410416 L 31.551731 251.472702 C 31.551731 255.393204 32.900764 255.688324 36.821266 255.393204 L 37.284988 257.374542 C 33.912472 258.006927 28.980194 259.608826 25.86064 260.74707 Z M 25.312618 235.664093 C 25.312618 230.141632 22.951845 226.642654 17.429382 226.642654 C 11.906919 226.642654 6.763848 231.322006 6.763848 241.523819 C 6.763848 251.725632 11.864754 256.278503 16.839197 256.278503 C 20.087854 256.012329 23.108316 254.502106 25.270454 252.062881 Z"/>
            <path id="path20" fill="#bf9650" stroke="none" d="M 67.131645 258.006927 C 64.328796 260.027283 60.93029 261.05127 57.477882 260.915741 C 48.034855 260.915741 42.554523 253.327591 42.554523 242.957123 C 42.554523 232.5867 50.016205 223.818192 59.037647 223.818192 C 68.05909 223.818192 71.178673 230.563156 71.178673 237.223862 C 71.178673 238.404236 70.799217 239.036606 69.618851 239.036606 L 48.835835 238.783691 C 48.835835 238.783691 48.835835 239.96405 48.835835 241.144424 C 48.835835 249.575684 52.840668 255.266739 59.922894 255.266739 C 63.885399 255.409286 67.725243 253.87944 70.504158 251.051117 L 71.684532 252.358017 Z M 58.110203 226.389725 C 53.894573 226.389725 49.678947 229.762238 49.004429 236.844467 L 62.705223 236.422882 C 63.885593 236.422882 64.307182 236.043488 64.39151 234.863113 C 64.39151 229.762238 62.157169 226.389725 58.236668 226.389725 Z"/>
            <path id="path21" fill="#bf9650" stroke="none" d="M 105.156631 259.608826 C 101.657654 259.608826 98.116539 259.988281 94.575363 259.988281 L 94.575363 257.922607 C 98.495926 257.374542 99.296913 257.163818 100.47728 255.983459 C 101.657654 254.803024 101.868446 253.243256 101.868446 249.322754 L 101.868446 219.391769 C 101.868446 215.176147 101.868446 213.658508 100.688072 212.520264 C 99.07653 211.216583 97.018379 210.5961 94.954819 210.791916 L 94.954819 208.726227 C 98.495926 208.726227 101.657654 209.147827 105.156631 209.147827 C 108.655609 209.147827 111.859467 208.726227 115.358444 208.726227 L 115.358444 210.707581 C 113.313347 210.570831 111.293144 211.219101 109.709518 212.520264 C 108.697746 213.658508 108.529083 215.260468 108.529083 219.34964 L 108.529083 249.322754 C 108.529083 253.243256 108.529083 254.803024 109.878113 255.983459 C 111.227142 257.163818 112.323189 257.543213 115.864296 257.922607 L 115.864296 259.903961 C 112.238853 259.903961 108.824203 259.608826 105.156631 259.608826 Z"/>
            <path id="path22" fill="#bf9650" stroke="none" d="M 152.498123 259.608826 C 149.589325 259.608826 147.312912 259.988281 144.319794 259.988281 L 144.319794 258.006927 C 148.535416 257.627563 149.336395 256.826569 149.336395 252.526611 L 149.336395 237.603317 C 149.336395 232.122986 147.565842 228.581879 141.663925 228.581879 C 138.290192 228.988541 135.10228 230.348511 132.473877 232.50238 L 132.473877 252.526611 C 132.473877 256.742249 133.401321 257.543213 137.490494 258.006927 L 137.490494 259.903961 C 134.581696 259.903961 132.473877 259.524567 129.480759 259.524567 C 126.487701 259.524567 123.916161 259.903961 121.0495 259.903961 L 121.0495 257.922607 C 125.265129 257.711823 126.487701 256.742249 126.487701 252.442276 L 126.487701 234.778778 C 126.487701 230.858276 125.686722 230.057297 121.766212 228.876923 L 121.766212 227.317169 C 125.26783 226.451019 128.682739 225.265701 131.968033 223.776001 L 132.600342 223.776001 L 132.600342 229.509247 C 136.375793 226.701706 140.676331 224.680405 145.247238 223.565262 C 152.708908 223.565262 155.533371 227.148514 155.533371 234.989578 L 155.533371 252.273682 C 155.533371 256.489319 156.62941 257.374542 161.013702 257.753998 L 161.013702 259.903961 C 157.978455 259.903961 155.491241 259.608826 152.498123 259.608826 Z"/>
            <path id="path23" fill="#bf9650" stroke="none" d="M 196.340622 259.608826 C 193.4319 259.608826 191.155426 259.988281 188.204498 259.988281 L 188.204498 258.006927 C 192.42012 257.627563 193.2211 256.826569 193.2211 252.526611 L 193.2211 237.603317 C 193.2211 232.122986 191.408356 228.581879 185.5065 228.581879 C 182.14505 228.987122 178.970337 230.347733 176.358597 232.50238 L 176.358597 252.526611 C 176.358597 256.742249 177.286041 257.543213 181.375198 258.006927 L 181.375198 259.903961 C 178.4664 259.903961 176.358597 259.524567 173.365463 259.524567 C 170.372406 259.524567 167.800873 259.903961 164.934204 259.903961 L 164.934204 257.922607 C 169.149841 257.711823 170.330215 256.742249 170.330215 252.442276 L 170.330215 234.778778 C 170.330215 230.858276 169.571426 230.057297 165.650864 228.876923 L 165.650864 227.317169 C 169.150803 226.445236 172.565201 225.26004 175.852676 223.776001 L 176.485062 223.776001 L 176.485062 229.509247 C 180.257477 226.696686 184.559113 224.674942 189.131943 223.565262 C 196.593613 223.565262 199.418076 227.148514 199.418076 234.989578 L 199.418076 252.273682 C 199.418076 256.489319 200.51413 257.374542 204.898346 257.753998 L 204.898346 259.903961 C 201.863159 259.903961 199.333755 259.608826 196.340622 259.608826 Z"/>
            <path id="path24" fill="#bf9650" stroke="none" d="M 226.861801 260.915741 C 222.137878 260.888519 217.632004 258.924347 214.396896 255.481979 C 211.161713 252.039673 209.480637 247.420715 209.746353 242.704193 C 209.746353 231.574936 217.376633 223.818192 226.398071 223.818192 C 231.125931 223.833176 235.63913 225.793625 238.876953 229.238831 C 242.114761 232.68396 243.791656 237.310059 243.513519 242.029663 C 243.724319 253.158936 235.88324 260.915741 226.861801 260.915741 Z M 226.229477 226.558319 C 219.948166 226.558319 216.828583 231.743591 216.828583 241.523819 C 216.828583 251.304108 220.749146 258.006927 227.030396 258.006927 C 233.311707 258.006927 236.43129 252.821732 236.43129 243.041443 C 236.43129 233.261154 232.510727 226.558319 226.229477 226.558319 Z"/>
            <path id="path25" fill="#bf9650" stroke="none" d="M 281.116913 228.581879 C 279.749237 230.502304 278.683044 232.620544 277.9552 234.863113 L 267.205383 260.367676 L 264.380859 260.74707 L 253.251617 232.923965 C 252.705292 231.396942 251.907333 229.972076 250.890869 228.708344 C 249.992752 227.91893 248.902054 227.380859 247.729141 227.148514 L 247.729141 225.16716 C 250.511475 225.16716 252.619293 225.504425 255.359421 225.504425 C 258.099609 225.504425 261.261353 225.16716 264.085815 225.16716 L 264.085815 227.148514 C 259.870178 227.527969 258.900604 228.328888 258.900604 229.509247 C 259.098541 230.867157 259.496246 232.188339 260.080963 233.42981 L 267.373993 252.653076 L 274.582733 233.42981 C 275.186493 232.19574 275.585205 230.871536 275.763123 229.509247 C 275.763123 228.328888 274.667023 227.527969 271.294495 227.148514 L 271.294495 225.16716 C 273.781769 225.16716 275.763123 225.504425 278.334656 225.504425 C 280.906189 225.504425 281.664978 225.16716 284.236511 225.16716 L 284.236511 227.148514 C 283.071564 227.285583 281.979706 227.787201 281.116913 228.581879 Z"/>
            <path id="path26" fill="#bf9650" stroke="none" d="M 311.848877 260.915741 C 308.729309 260.915741 306.747955 258.428467 306.747955 254.507965 C 304.225677 257.34967 301.060181 259.546753 297.515717 260.915741 C 295.076691 261.186615 292.634583 260.432922 290.7724 258.834473 C 288.910248 257.236053 287.795166 254.936432 287.693298 252.484482 C 287.491821 248.79715 289.959717 245.494751 293.55307 244.643402 L 306.663605 240.42778 L 306.663605 235.748428 C 306.663605 229.846512 303.375427 227.317169 299.454926 227.317169 C 295.534363 227.317169 294.522644 229.677917 294.522644 231.237671 C 294.591614 232.275818 295.042084 233.251831 295.787354 233.977875 C 295.041809 235.392258 293.591461 236.294617 291.993256 236.338608 C 290.948486 236.407181 289.926849 236.009903 289.202881 235.253372 C 288.478943 234.496918 288.126892 233.458832 288.241333 232.418045 C 288.241333 229.298523 291.613861 227.865158 295.154968 226.558319 C 295.154968 226.558319 300.382355 224.492706 302.743103 223.733856 C 308.644958 223.733856 312.818451 226.558319 312.818451 232.418045 L 312.818451 252.062881 C 312.818451 254.803024 313.956696 256.278503 315.305664 256.278503 C 316.568756 256.227173 317.781342 255.768738 318.762512 254.97168 L 319.689941 256.447113 C 317.6922 258.823425 314.91153 260.408142 311.848877 260.915741 Z M 306.663605 242.493393 L 298.653961 245.444382 C 294.733429 246.877686 294.14325 248.985504 294.14325 251.346237 C 294.32196 254.356918 296.818359 256.705383 299.83432 256.700104 C 302.616638 256.700104 306.663605 252.147217 306.663605 252.147217 Z"/>
            <path id="path27" fill="#bf9650" stroke="none" d="M 345.911163 258.428467 C 343.438171 260.136108 340.483704 261.00766 337.479919 260.915741 C 333.50647 260.992401 329.728058 259.196899 327.278107 256.067719 C 324.504852 252.454559 323.11438 247.969162 323.357544 243.420837 C 323.209076 237.725723 325.49353 232.236969 329.638855 228.328888 C 332.738434 225.454498 336.794128 223.832214 341.021027 223.776001 C 348.103241 223.776001 350.46405 227.738693 350.46405 230.478897 C 350.521698 231.700104 350.076508 232.891602 349.232147 233.775757 C 348.387756 234.659973 347.218079 235.159592 345.995422 235.158234 C 344.219208 235.184235 342.735168 233.811523 342.622986 232.038651 C 343.43573 231.517746 343.952209 230.641251 344.014099 229.677917 C 344.014099 228.876923 343.634705 226.305389 339.798462 226.305389 C 335.96228 226.305389 329.638855 230.057297 329.638855 241.060089 C 329.638855 252.062881 335.372101 255.18248 340.093567 255.18248 C 343.719604 255.291183 347.223846 253.868057 349.747345 251.261902 L 350.927704 252.610947 Z"/>
            <path id="path28" fill="#bf9650" stroke="none" d="M 364.291321 259.608826 C 361.508972 259.608826 358.684509 259.988281 355.860046 259.988281 L 355.860046 258.006927 C 360.075684 257.796143 361.256042 256.826569 361.256042 252.526611 L 361.256042 234.863113 C 361.256042 230.942612 360.455078 230.141632 356.534515 228.961258 L 356.534515 227.401428 C 360.038513 226.543015 363.454041 225.357437 366.736328 223.860321 L 367.368713 223.860321 L 367.368713 252.358017 C 367.368713 256.573639 368.464752 257.458893 372.806824 257.838287 L 372.806824 259.903961 C 369.771576 259.903961 367.031433 259.608826 364.291321 259.608826 Z M 363.7854 215.555527 C 361.902527 215.589813 360.185944 214.481934 359.441559 212.752106 C 358.697174 211.022324 359.072845 209.014084 360.392151 207.670334 C 361.711487 206.326569 363.712433 205.914124 365.455658 206.626648 C 367.198822 207.339188 368.337952 209.035187 368.338287 210.918381 C 368.372681 212.143768 367.906921 213.330444 367.048035 214.205215 C 366.189178 215.079971 365.01123 215.56749 363.7854 215.555527 Z"/>
            <path id="path29" fill="#bf9650" stroke="none" d="M 394.854614 260.915741 C 390.170898 260.832031 385.723999 258.841553 382.541382 255.404327 C 379.358765 251.967102 377.715759 247.380447 377.992096 242.704193 C 377.992096 231.574936 385.58017 223.818192 394.601624 223.818192 C 399.329468 223.833176 403.842682 225.793625 407.080505 229.238831 C 410.318298 232.68396 411.995209 237.310059 411.717133 242.029663 C 411.506348 253.158936 403.918182 260.915741 394.854614 260.915741 Z M 394.264435 226.558319 C 387.983124 226.558319 384.821411 231.743591 384.821411 241.523819 C 384.821411 251.304108 388.741913 258.006927 395.023224 258.006927 C 401.304535 258.006927 404.466248 252.821732 404.466248 243.041443 C 404.466248 233.261154 400.50354 226.558319 394.264435 226.558319 Z M 402.231964 210.918381 L 391.482086 220.361343 L 390.470337 219.560364 L 397.131012 208.979156 C 398.395721 206.997803 399.112366 205.817444 400.84079 205.817444 C 402.24469 205.817245 403.389313 206.943069 403.412323 208.346848 C 403.498779 209.35199 403.050507 210.328644 402.231964 210.918381 Z"/>
            <path id="path30" fill="#bf9650" stroke="none" d="M 449.320526 259.608826 C 446.411743 259.608826 444.135254 259.988281 441.184326 259.988281 L 441.184326 258.006927 C 445.399963 257.627563 446.200928 256.826569 446.200928 252.526611 L 446.200928 237.603317 C 446.200928 232.122986 444.388245 228.581879 438.486328 228.581879 C 435.124878 228.987122 431.950165 230.347733 429.33844 232.50238 L 429.33844 252.526611 C 429.33844 256.742249 430.265869 257.543213 434.355042 258.006927 L 434.355042 259.903961 C 431.446228 259.903961 429.33844 259.524567 426.345367 259.524567 C 423.352234 259.524567 420.780701 259.903961 417.914093 259.903961 L 417.914093 257.922607 C 422.12973 257.711823 423.31012 256.742249 423.31012 252.442276 L 423.31012 234.778778 C 423.31012 230.858276 422.55127 230.057297 418.630768 228.876923 L 418.630768 227.317169 C 422.130707 226.445236 425.545105 225.26004 428.832581 223.776001 L 429.464874 223.776001 L 429.464874 229.509247 C 433.237366 226.696686 437.53894 224.674942 442.111786 223.565262 C 449.573456 223.565262 452.397919 227.148514 452.397919 234.989578 L 452.397919 252.273682 C 452.397919 256.489319 453.493958 257.374542 457.878235 257.753998 L 457.878235 259.903961 C 454.842987 259.903961 452.313599 259.608826 449.320526 259.608826 Z"/>
            <path id="path31" fill="#bf9650" stroke="none" d="M 517.740173 259.903961 C 509.899078 259.903961 493.415955 259.524567 489.874847 259.524567 C 486.33374 259.524567 482.792633 259.903961 479.29364 259.903961 L 479.29364 257.838287 C 482.792633 257.374542 483.972992 257.079498 485.153381 255.899124 C 486.33374 254.71875 486.58667 253.158936 486.58667 249.238419 L 486.58667 219.307434 C 486.58667 215.091812 486.33374 213.574188 485.406281 212.436005 C 483.790558 211.140305 481.735687 210.520782 479.673035 210.707581 L 479.673035 208.641907 C 483.214142 208.641907 486.33374 209.063492 489.874847 209.063492 C 496.914948 209.063492 516.728394 208.641907 516.728394 208.641907 L 516.939148 220.277069 L 515.379395 220.277069 C 513.018677 213.447723 512.217712 211.845825 505.557007 211.845825 L 496.535553 211.845825 C 493.415955 211.845825 493.247375 212.140884 493.247375 215.302612 L 493.247375 232.165115 L 501.25705 231.912186 C 504.798157 231.912186 506.357971 231.532806 507.285431 230.521027 C 508.575714 228.976379 509.25119 227.010071 509.182434 224.998566 L 511.079468 224.998566 C 511.079468 228.160278 510.657928 230.900421 510.657928 233.809204 C 510.657928 236.718002 511.079468 239.542465 511.079468 242.662048 L 509.308899 242.662048 C 509.266571 240.564728 508.60672 238.526505 507.411865 236.802338 C 506.400116 235.832687 504.840332 235.453308 501.299225 235.368973 L 493.28949 235.158234 L 493.28949 251.472702 C 493.28949 255.688324 494.090485 256.826569 498.559021 256.826569 L 507.580475 256.826569 C 513.440186 256.826569 516.601929 252.358017 518.962646 246.4561 L 520.901855 247.00415 Z"/>
            <path id="path32" fill="#bf9650" stroke="none" d="M 552.434753 260.74707 L 552.055359 260.367676 L 552.055359 254.88736 C 549.011658 258.073059 545.018616 260.187897 540.673157 260.915741 C 536.47998 261.070496 532.494995 259.085938 530.091919 255.646194 C 527.653564 252.084702 526.467224 247.814072 526.719482 243.505173 C 526.622681 238.543365 528.279724 233.706604 531.398804 229.846512 C 534.540649 226.098007 539.155273 223.898407 544.045715 223.818192 C 546.94342 223.632477 549.812683 224.484344 552.139709 226.221069 L 552.139709 212.520264 C 552.139709 208.557632 550.959351 207.419403 546.954407 206.618423 L 546.954407 205.1008 C 550.69989 204.074341 554.375183 202.807007 557.957214 201.306747 L 558.67395 201.728271 C 558.252319 205.227249 558.16803 213.489914 558.16803 217.410416 L 558.16803 251.472702 C 558.16803 255.393204 559.517029 255.688324 563.437561 255.393204 L 563.901245 257.374542 C 560.528748 258.006927 555.680786 259.608826 552.434753 260.74707 Z M 551.88678 235.664093 C 551.88678 230.141632 549.52594 226.642654 544.045715 226.642654 C 538.565369 226.642654 533.380188 231.322006 533.380188 241.523819 C 533.380188 251.725632 538.481018 256.278503 543.41333 256.278503 C 546.661987 256.012329 549.682495 254.502106 551.844604 252.062881 Z"/>
            <path id="path33" fill="#bf9650" stroke="none" d="M 595.518555 260.74707 L 595.139038 260.367676 L 594.886108 254.507965 C 591.747925 257.44519 587.986694 259.63559 583.883362 260.915741 C 580.391907 261.189178 577.018982 259.583038 575.030518 256.700104 C 573.180908 253.636154 572.354187 250.063202 572.6698 246.498291 L 572.6698 233.008224 C 572.6698 229.467117 571.742371 228.075958 568.116882 227.696564 L 568.116882 225.71521 C 571.585266 225.503067 575.02771 224.981064 578.403137 224.155457 L 579.0354 224.155457 C 578.782532 230.268097 578.782532 244.011017 578.782532 244.011017 C 578.555176 246.820175 579.018311 249.642319 580.131409 252.231491 C 581.467834 254.488022 583.965698 255.794144 586.581299 255.604004 C 589.713074 254.963135 592.620972 253.509186 595.012573 251.388367 L 595.012573 232.797501 C 595.012573 229.256317 594.085144 227.865158 590.544006 227.485764 L 590.544006 225.504425 C 593.983887 225.285583 597.397766 224.76358 600.745911 223.944656 L 601.378235 223.944656 C 601.125305 230.057297 601.125305 239.078751 601.125305 243.715958 L 601.125305 251.472702 C 601.125305 255.688324 602.221375 255.688324 606.563477 255.393204 L 606.563477 257.374542 C 603.907593 258.006927 597.837097 259.903961 595.518555 260.74707 Z"/>
            <path id="path34" fill="#bf9650" stroke="none" d="M 634.049316 258.428467 C 631.576416 260.136108 628.621948 261.00766 625.618042 260.915741 C 621.644714 260.992401 617.866211 259.196899 615.416321 256.067719 C 612.643005 252.454559 611.252563 247.969162 611.495667 243.420837 C 611.347229 237.725723 613.631653 232.236969 617.777039 228.328888 C 620.876648 225.454498 624.932373 223.832214 629.15918 223.776001 C 636.241394 223.776001 638.602295 227.738693 638.602295 230.478897 C 638.660278 231.707443 638.209351 232.905624 637.355774 233.791138 C 636.502197 234.676697 635.321411 235.171173 634.091553 235.158234 C 632.32312 235.183197 630.851685 233.804901 630.761169 232.038651 C 631.573975 231.517746 632.090332 230.641251 632.152344 229.677917 C 632.152344 228.876923 631.772827 226.305389 627.936768 226.305389 C 624.100525 226.305389 617.777039 230.057297 617.777039 241.060089 C 617.777039 252.062881 623.510254 255.18248 628.23175 255.18248 C 631.857788 255.291183 635.362061 253.868057 637.885559 251.261902 L 639.065918 252.610947 Z"/>
            <path id="path35" fill="#bf9650" stroke="none" d="M 669.502808 260.915741 C 666.38324 260.915741 664.401917 258.428467 664.401917 254.507965 C 661.879578 257.34967 658.714111 259.546753 655.169678 260.915741 C 652.730591 261.186615 650.288513 260.432922 648.426331 258.834473 C 646.564209 257.236053 645.449097 254.936432 645.347168 252.484482 C 645.13208 248.779144 647.628906 245.461945 651.249146 244.643402 L 664.317505 240.42778 L 664.317505 235.748428 C 664.317505 229.846512 661.029297 227.317169 657.108826 227.317169 C 653.188293 227.317169 652.176636 229.677917 652.176636 231.237671 C 652.245544 232.275818 652.695984 233.251831 653.441223 233.977875 C 652.731995 235.425446 651.259216 236.341827 649.647217 236.338608 C 648.602295 236.407181 647.580688 236.009903 646.85675 235.253372 C 646.132874 234.496918 645.780884 233.458832 645.895203 232.418045 C 645.895203 229.298523 649.267822 227.865158 652.808899 226.558319 C 652.808899 226.558319 658.078491 224.492706 660.397034 223.733856 C 666.298889 223.733856 670.472412 226.558319 670.472412 232.418045 L 670.472412 252.062881 C 670.472412 254.803024 671.652771 256.278503 672.959595 256.278503 C 674.222717 256.227173 675.435242 255.768738 676.416443 254.97168 L 677.343811 256.447113 C 675.346069 258.823425 672.56543 260.408142 669.502808 260.915741 Z M 664.317505 242.493393 L 656.350037 245.444382 C 652.387329 246.877686 651.797058 248.985504 651.797058 251.346237 C 651.975891 254.356918 654.472229 256.705383 657.48822 256.700104 C 660.270569 256.700104 664.317505 252.147217 664.317505 252.147217 Z"/>
            <path id="path36" fill="#bf9650" stroke="none" d="M 694.164246 261 C 686.702515 261 685.184937 256.067719 685.269165 250.165863 L 685.606506 229.087723 L 680.421265 229.087723 L 680.421265 227.527969 C 684.731445 225.178162 688.273315 221.636276 690.623108 217.32608 L 691.803467 217.32608 L 691.803467 225.757339 L 702.089661 225.757339 L 702.089661 229.256317 L 691.803467 229.256317 L 691.466187 250.081543 C 691.466187 254.803024 693.068115 256.742249 696.187622 256.742249 C 698.221985 256.673859 700.189331 255.998505 701.836731 254.803024 L 702.848389 256.362854 C 700.312439 258.502686 697.353088 260.082916 694.164246 261 Z"/>
            <path id="path37" fill="#bf9650" stroke="none" d="M 714.862976 259.608826 C 712.122742 259.608826 709.29834 259.988281 706.431702 259.988281 L 706.431702 258.006927 C 710.647339 257.796143 711.869812 256.826569 711.869812 252.526611 L 711.869812 234.863113 C 711.869812 230.942612 711.068787 230.141632 707.148315 228.961258 L 707.148315 227.401428 C 710.648254 226.52951 714.062622 225.344376 717.350159 223.860321 L 717.982483 223.860321 L 717.982483 252.358017 C 717.982483 256.573639 719.078613 257.458893 723.378479 257.838287 L 723.378479 259.903961 C 720.343262 259.903961 717.603088 259.608826 714.862976 259.608826 Z M 714.39917 215.555527 C 711.838135 215.555527 709.761963 213.479431 709.761963 210.918381 C 709.761963 208.35733 711.838135 206.281158 714.39917 206.281158 C 716.960266 206.281158 719.036438 208.35733 719.036438 210.918381 C 719.036438 213.479431 716.960266 215.555527 714.39917 215.555527 Z"/>
            <path id="path38" fill="#bf9650" stroke="none" d="M 758.579041 228.581879 C 757.210693 230.495743 756.15741 232.616364 755.459473 234.863113 L 744.667358 260.367676 L 741.842957 260.74707 L 730.713684 232.923965 C 730.183594 231.389618 729.384155 229.962036 728.352905 228.708344 C 727.476013 227.911789 726.39679 227.372101 725.233398 227.148514 L 725.233398 225.16716 C 727.973511 225.16716 730.08136 225.504425 732.821472 225.504425 C 735.561707 225.504425 738.72345 225.16716 741.547852 225.16716 L 741.547852 227.148514 C 737.332214 227.527969 736.36261 228.328888 736.36261 229.509247 C 736.580139 230.862793 736.977173 232.181198 737.543091 233.42981 L 744.83606 252.653076 L 752.044739 233.42981 C 752.66687 232.203003 753.066589 230.875656 753.225098 229.509247 C 753.225098 228.328888 752.129089 227.527969 748.756531 227.148514 L 748.756531 225.16716 C 751.28595 225.16716 753.225098 225.504425 755.838867 225.504425 C 758.452576 225.504425 759.127075 225.16716 761.698547 225.16716 L 761.698547 227.148514 C 760.53595 227.293823 759.446533 227.794342 758.579041 228.581879 Z"/>
            <path id="path39" fill="#bf9650" stroke="none" d="M 789.353088 260.915741 C 786.191345 260.915741 784.252197 258.428467 784.252197 254.507965 C 781.722412 257.360199 778.540588 259.558533 774.977783 260.915741 C 772.538635 261.186615 770.096619 260.432922 768.234497 258.834473 C 766.372314 257.236053 765.257263 254.936432 765.155396 252.484482 C 764.940308 248.779144 767.437012 245.461945 771.057251 244.643402 L 784.167908 240.42778 L 784.167908 235.748428 C 784.167908 229.846512 780.837524 227.317169 776.917053 227.317169 C 772.996399 227.317169 771.98468 229.677917 771.98468 231.237671 C 772.05365 232.275818 772.504211 233.251831 773.249329 233.977875 C 772.546753 235.41188 771.094299 236.325806 769.497498 236.338608 C 768.445618 236.420364 767.412048 236.028885 766.678345 235.270676 C 765.944641 234.512543 765.587158 233.466675 765.70343 232.418045 C 765.70343 229.298523 769.075928 227.865158 772.617004 226.558319 C 772.617004 226.558319 777.886536 224.492706 780.247314 223.733856 C 786.107056 223.733856 790.280518 226.558319 790.280518 232.418045 L 790.280518 252.062881 C 790.280518 254.803024 791.460876 256.278503 792.7677 256.278503 C 794.030823 256.227173 795.243469 255.768738 796.224548 254.97168 L 797.194214 256.447113 C 795.182373 258.806366 792.408264 260.387299 789.353088 260.915741 Z M 784.167908 242.493393 L 776.158142 245.444382 C 772.23761 246.877686 771.605286 248.985504 771.605286 251.346237 C 771.784912 254.37326 774.306335 256.727905 777.338501 256.700104 C 780.078735 256.700104 784.167908 252.147217 784.167908 252.147217 Z"/>
        </g>
    </g>
    <text id="SMART" xml:space="preserve" x="13" y="66" font-family="Laurentian Std" font-size="96" fill="#000000">SMART</text>
</svg>
