<svg width="1307" height="735" viewBox="0 0 1307 735" xmlns="http://www.w3.org/2000/svg" xmlns:xlink="http://www.w3.org/1999/xlink">
    <g id="talent-center">
        <g id="Capa1-2">
            <path id="Trazado" fill="#bf9650" stroke="none" d="M 37.067493 17.247192 C 36.308678 18.174622 36.182213 19.565735 36.182213 22.432373 L 36.182213 37.271423 C 36.254253 40.49884 35.740047 43.712646 34.664585 46.756531 C 33.821457 49.032959 31.207771 55.187805 20.07851 55.187805 C 8.949252 55.187805 6.335563 48.822205 5.534593 46.756531 C 4.542544 43.668945 4.128109 40.424866 4.312061 37.187073 L 4.312061 22.348022 C 4.312061 19.481445 4.312061 18.132385 3.384623 17.162842 C 2.216371 16.127197 0.685386 15.59668 -0.873162 15.687317 L -0.873162 13.874634 C 2.077778 13.874634 4.860093 14.127563 7.811032 14.127563 C 10.761972 14.127563 13.755069 13.874634 16.790321 13.874634 L 16.790321 15.687317 C 15.270474 15.629333 13.778497 16.10675 12.574693 17.036377 C 11.731566 17.963806 11.562942 19.312805 11.562942 22.263733 L 11.562942 36.259644 C 11.298884 39.379517 11.671788 42.520569 12.659005 45.491882 C 14.346576 48.991699 18.077185 51.026611 21.933386 50.550598 C 25.772499 50.994385 29.473543 48.96637 31.165613 45.491882 C 32.195618 42.529358 32.61158 39.388062 32.388145 36.259644 L 32.388145 22.263733 C 32.388145 19.312805 32.388145 18.048096 31.41855 17.036377 C 30.448956 16.024597 29.437206 15.856018 27.202923 15.687317 L 27.202923 13.874634 C 29.732302 13.874634 31.671488 14.127563 34.200863 14.127563 C 36.730244 14.127563 38.416492 13.874634 41.030182 13.874634 L 41.030182 15.687317 C 38.922367 15.687317 37.615524 16.193237 36.814552 17.078491"/>
            <path id="path1" fill="#bf9650" stroke="none" d="M 87.02269 17.247192 C 86.179565 18.090271 86.095245 19.52356 86.053101 22.348022 L 85.800156 43.636963 C 85.800156 48.737915 86.179565 54.386841 86.179565 54.386841 L 82.89138 55.482849 C 80.966461 53.353271 79.164856 51.115295 77.495369 48.780029 L 57.597603 21.209778 L 58.145634 45.702637 C 58.145634 48.5271 58.356419 49.918274 59.283855 50.803528 C 60.211292 51.688843 61.349514 51.899658 63.963203 52.152588 L 63.963203 54.049561 C 61.012264 54.049561 59.199543 53.754456 56.332912 53.754456 C 53.46629 53.754456 52.117287 54.049561 49.039879 54.049561 L 49.039879 52.236816 C 51.400627 51.899658 52.623161 51.604492 53.46629 50.719177 C 54.309414 49.833923 54.35157 48.5271 54.35157 45.744812 L 54.646664 20.788269 C 54.711159 19.454834 54.187176 18.160278 53.213348 17.247192 C 52.021809 16.265381 50.540569 15.702515 48.997723 15.645203 L 48.997723 13.874634 C 51.063377 13.874634 52.665318 14.127563 54.815289 14.127563 C 56.96526 14.127563 61.054417 13.874634 61.054417 13.874634 C 61.944221 15.493164 62.973953 17.030701 64.131828 18.469666 L 82.596275 43.763428 L 82.301186 22.095093 C 82.301186 19.27063 82.048248 17.879456 81.078659 16.909912 C 79.729012 16.065369 78.159302 15.639954 76.567932 15.687317 L 76.567932 13.874634 C 79.392403 13.874634 81.205116 14.127563 83.90313 14.127563 C 86.601128 14.127563 88.456009 13.874634 91.280479 13.874634 L 91.280479 15.687317 C 89.765862 15.665955 88.28569 16.139648 87.06485 17.036377"/>
            <path id="path2" fill="#bf9650" stroke="none" d="M 108.733177 53.754456 C 105.740082 53.754456 102.578362 54.049561 99.627419 54.049561 L 99.627419 52.194702 C 102.283264 51.857422 103.337166 51.604492 104.180298 50.677063 C 105.023422 49.749634 105.192047 48.231995 105.192047 45.365417 L 105.192047 22.516724 C 105.192047 19.650024 105.192047 18.301086 104.26461 17.204956 C 103.337166 16.108948 102.030327 15.856018 100.048981 15.687317 L 100.048981 13.874634 C 103.042076 13.874634 105.866547 14.127563 108.733177 14.127563 C 111.5998 14.127563 114.719368 13.874634 117.670311 13.874634 L 117.670311 15.687317 C 116.131172 15.64209 114.629677 16.167664 113.454681 17.162842 C 112.653709 18.132385 112.611557 19.650024 112.611557 22.474487 L 112.611557 45.491882 C 112.611557 48.400635 112.611557 49.707458 113.538986 50.634949 C 114.880806 51.658203 116.531357 52.193542 118.218338 52.152588 L 118.218338 54.049561 C 115.267395 54.049561 112.063522 53.754456 109.028267 53.754456"/>
            <path id="path3" fill="#bf9650" stroke="none" d="M 161.175583 18.132385 C 160.514252 19.403442 159.964172 20.729248 159.531494 22.095093 L 150.889465 46.419312 C 150.005371 48.729797 149.273102 51.095581 148.697327 53.501526 C 147.769882 53.712341 144.144455 54.30249 142.331741 54.80835 C 141.665192 51.947998 140.820435 49.13208 139.802353 46.377075 L 130.738754 20.366699 C 130.362152 19.191406 129.71199 18.122253 128.841721 17.247192 C 127.918762 16.446106 126.797768 15.907471 125.595688 15.687317 L 125.595688 13.874634 C 128.546631 13.874634 130.738754 14.127563 133.774017 14.127563 C 136.809265 14.127563 139.886673 13.874634 142.753296 13.874634 L 142.753296 15.687317 C 139.549423 16.066772 138.242569 16.783447 138.242569 18.469666 C 138.396896 20.21637 138.83844 21.925537 139.549423 23.528381 L 147.432648 47.8526 L 155.442352 23.528381 C 156.052582 21.958496 156.449585 20.313721 156.622711 18.638306 C 156.622711 17.078491 155.653122 16.066772 152.069824 15.687317 L 152.069824 13.874634 C 154.767822 13.874634 156.285461 14.127563 159.194244 14.127563 C 162.103027 14.127563 162.735382 13.874634 165.43338 13.874634 L 165.43338 15.687317 C 163.741577 15.857117 162.205139 16.748169 161.217758 18.132385"/>
            <path id="path4" fill="#bf9650" stroke="none" d="M 202.910309 54.049561 C 195.490814 54.049561 183.687042 53.754456 180.651794 53.754456 C 177.616547 53.754456 174.370514 54.049561 171.546051 54.049561 L 171.546051 52.194702 C 173.991104 51.857422 175.213638 51.604492 176.098907 50.677063 C 176.984192 49.749634 177.068512 48.231995 177.068512 45.449646 L 177.068512 22.516724 C 177.068512 19.692261 177.068512 18.301086 176.141083 17.204956 C 175.213638 16.108948 173.864639 15.856018 171.925446 15.687317 L 171.925446 13.874634 C 174.876373 13.874634 177.700851 14.127563 180.693954 14.127563 C 186.174271 14.127563 202.404449 13.832458 202.404449 13.832458 L 202.404449 23.401917 L 200.549561 23.401917 C 198.568222 17.584412 197.851563 16.614807 193.635925 16.614807 L 186.258575 16.614807 C 184.403702 16.614807 184.235077 17.036377 184.235077 18.806946 L 184.235077 32.086121 L 189.968338 32.086121 C 192.244781 32.086121 193.4673 31.791077 194.18396 30.905762 C 195.113541 29.697083 195.617462 28.214966 195.617279 26.690125 L 197.514313 26.690125 C 197.514313 29.261658 197.219223 31.243042 197.219223 33.730225 C 197.219223 36.217468 197.514313 38.198853 197.514313 40.854614 L 195.617279 40.854614 C 195.641693 39.222412 195.139038 37.625671 194.18396 36.301758 C 193.425156 35.416504 192.160461 35.205688 189.968338 35.121399 L 184.235077 35.121399 L 184.235077 47.76825 C 184.235077 50.550598 184.867432 51.267273 187.734055 51.267273 L 194.689835 51.267273 C 198.568222 51.267273 201.055435 48.147705 203.500504 42.835999 L 205.524002 43.510498 Z"/>
            <path id="path5" fill="#bf9650" stroke="none" d="M 245.572464 53.754456 C 243.844055 53.754456 240.176468 54.049561 240.176468 54.049561 L 232.082458 37.903687 C 231.281494 36.259644 230.85994 35.290039 229.215836 35.205688 L 226.096268 35.205688 L 226.096268 45.365417 C 226.096268 48.231995 226.096268 49.581055 226.981552 50.634949 C 227.866821 51.688843 228.836441 51.857422 231.197174 52.152588 L 231.197174 54.049561 C 228.288391 54.049561 225.548233 53.754456 222.512985 53.754456 C 219.477737 53.754456 216.35817 54.049561 213.407242 54.049561 L 213.407242 52.236816 C 215.852295 51.899658 217.116974 51.604492 217.960098 50.677063 C 218.803238 49.749634 218.929703 48.27417 218.929703 45.365417 L 218.929703 22.516724 C 218.929703 19.565735 218.929703 18.301086 218.044418 17.204956 C 216.895737 16.160645 215.379562 15.614868 213.828796 15.687317 L 213.828796 13.874634 C 216.779739 13.874634 219.309113 14.127563 222.260056 14.127563 C 225.210999 14.127563 228.372711 13.832458 231.281494 13.832458 C 233.726166 13.78241 236.162201 14.138489 238.490204 14.886353 C 242.407257 15.825439 245.196564 19.290405 245.277374 23.317627 C 245.277374 29.514587 238.869614 32.844971 235.244171 33.645935 C 237.77356 33.983215 239.459808 36.175293 240.850967 38.999756 L 245.403839 48.021179 C 246.018143 49.218628 246.933411 50.235535 248.059692 50.972168 C 248.989212 51.611328 250.059464 52.016235 251.17926 52.152588 L 251.17926 54.049561 C 249.535172 54.049561 247.258728 53.754456 245.572464 53.754456 M 228.709961 16.108948 L 227.276642 16.108948 C 226.686447 16.108948 226.180588 16.488342 226.180588 17.415771 L 226.180588 33.055786 L 228.836441 33.055786 C 231.187332 33.165649 233.46965 32.246826 235.088684 30.538696 C 236.707733 28.830627 237.503143 26.502441 237.267685 24.160767 C 237.40155 21.872742 236.505554 19.644714 234.824875 18.086426 C 233.144196 16.528137 230.854889 15.802795 228.583496 16.108948"/>
            <path id="path6" fill="#bf9650" stroke="none" d="M 278.791595 51.520203 C 276.118958 53.810242 272.699036 55.040283 269.179993 54.977051 C 265.187012 55.170471 261.274139 53.81073 258.261505 51.182922 L 257.502716 41.444824 L 259.821289 41.107544 C 261.718323 50.002563 266.01828 52.110352 268.969208 52.110352 C 270.824707 52.172058 272.633911 51.523804 274.027954 50.297668 C 275.183167 49.058594 275.843262 47.438416 275.882843 45.744812 C 275.966797 44.109619 275.53952 42.488831 274.660309 41.107544 C 273.628876 39.714111 272.305176 38.562988 270.781952 37.735107 L 265.301605 34.531189 C 263.49707 33.564331 261.871613 32.295288 260.495789 30.779297 C 258.830231 28.803711 257.95874 26.279419 258.05072 23.697083 C 258.008698 20.299011 259.711304 17.116516 262.561462 15.265808 C 265.266418 13.608948 268.417328 12.828613 271.582886 13.031555 C 274.975952 12.970459 278.314148 13.892822 281.19455 15.687317 L 280.8573 24.118591 L 278.918091 24.413696 C 277.990662 17.247192 273.985779 15.687317 271.034882 15.687317 C 267.877136 15.438843 265.086273 17.727356 264.711426 20.87262 C 264.550842 22.579956 265.015198 24.287537 266.01828 25.678406 C 267.061798 26.76239 268.271393 27.673096 269.601563 28.376404 L 275.250488 31.74884 C 277.33667 32.888367 279.183197 34.420044 280.68866 36.259644 C 282.074646 38.198181 282.785583 40.53833 282.712158 42.920349 C 282.733459 46.260132 281.302795 49.44458 278.791595 51.646667"/>
            <path id="path7" fill="#bf9650" stroke="none" d="M 302.652069 53.754456 C 299.616821 53.754456 296.455109 54.049561 293.504181 54.049561 L 293.504181 52.194702 C 296.160004 51.857422 297.213928 51.604492 298.057068 50.677063 C 298.900177 49.749634 299.068817 48.231995 299.068817 45.365417 L 299.068817 22.516724 C 299.068817 19.650024 299.068817 18.301086 298.141357 17.204956 C 297.213928 16.108948 295.907074 15.856018 293.92572 15.687317 L 293.92572 13.874634 C 296.876648 13.874634 299.701141 14.127563 302.356995 14.127563 C 305.012817 14.127563 308.216705 13.874634 311.083344 13.874634 L 311.083344 15.687317 C 309.531738 15.657227 308.026001 16.214355 306.867706 17.247192 C 306.066742 18.216736 305.982422 19.734375 305.982422 22.558838 L 305.982422 45.491882 C 305.982422 48.400635 305.982422 49.707458 306.909882 50.634949 C 308.251678 51.658203 309.902222 52.193542 311.589233 52.152588 L 311.589233 54.049561 C 308.638275 54.049561 305.434418 53.754456 302.441284 53.754456"/>
            <path id="path8" fill="#bf9650" stroke="none" d="M 353.239624 50.339783 C 349.062134 52.943726 344.205933 54.249512 339.285889 54.091736 C 335.070282 54.091736 333.088928 53.754456 330.095825 53.754456 C 327.102722 53.754456 323.983154 54.091736 320.990051 54.091736 L 320.990051 52.194702 C 323.60376 51.857422 324.657654 51.520203 325.542938 50.634949 C 326.428223 49.749634 326.512543 48.358459 326.512543 45.365417 L 326.512543 22.516724 C 326.512543 19.60791 326.512543 18.301086 325.585114 17.204956 C 324.438873 16.156616 322.920929 15.610168 321.369476 15.687317 L 321.369476 13.874634 C 324.404724 13.874634 327.144867 14.127563 330.180115 14.127563 C 333.215393 14.127563 335.533997 13.874634 339.370209 13.874634 C 343.585663 13.716248 347.773804 14.614746 351.553375 16.488342 C 357.804962 19.93573 361.59845 26.594604 361.375793 33.730225 C 361.6474 40.35675 358.453949 46.647827 352.944519 50.339783 M 347.379913 19.27063 C 344.464386 17.081787 340.85675 16.018982 337.220215 16.277527 L 336.377106 16.277527 C 334.227112 16.277527 333.805573 16.741272 333.805573 19.059875 L 333.805573 48.231995 C 333.805573 50.508484 334.648682 51.393738 337.00946 51.393738 L 338.231995 51.393738 C 341.907623 51.600891 345.515503 50.342712 348.265167 47.894714 C 351.729248 43.905334 353.472351 38.706421 353.113159 33.435181 C 353.625916 28.104553 351.576233 22.847412 347.590698 19.27063"/>
            <path id="path9" fill="#bf9650" stroke="none" d="M 396.955688 53.754456 C 394.00473 53.754456 390.927338 54.049561 387.976379 54.049561 L 387.976379 52.194702 C 391.053802 51.730957 392.571442 50.972168 392.571442 49.11731 C 392.434296 48.007324 392.165405 46.917603 391.770447 45.871277 L 389.746979 39.210571 L 376.762848 39.210571 L 374.317749 45.871277 C 373.971344 46.924377 373.745087 48.013367 373.64325 49.11731 C 373.64325 50.972168 374.823639 51.857422 378.196136 52.152588 L 378.196136 54.049561 C 375.666748 54.049561 373.72757 53.754456 371.198212 53.754456 C 368.668823 53.754456 367.572754 54.049561 365.043396 54.049561 L 365.043396 52.194702 C 366.581329 52.056458 367.989594 51.275818 368.921753 50.044739 C 369.683899 48.71283 370.292053 47.298523 370.734497 45.829102 L 379.966675 21.462769 C 380.843903 19.092529 381.575958 16.671143 382.158844 14.211914 C 382.158844 14.211914 386.964661 13.579529 388.566559 13.242249 C 389.285828 16.028442 390.158356 18.772827 391.180267 21.462769 L 400.243896 47.726135 C 400.603424 48.921448 401.255432 50.008118 402.1409 50.887878 C 403.059387 51.70575 404.207489 52.220947 405.429077 52.363342 L 405.429077 54.260376 C 402.520325 54.260376 400.117432 53.965271 396.997833 53.965271 M 383.423523 19.692261 L 377.732422 36.133179 L 388.735199 36.133179 Z"/>
            <path id="path10" fill="#bf9650" stroke="none" d="M 444.170715 50.339783 C 439.978149 52.944763 435.108246 54.250305 430.174835 54.091736 C 425.959198 54.091736 424.02002 53.754456 420.984772 53.754456 C 417.949524 53.754456 414.872131 54.091736 411.879028 54.091736 L 411.879028 52.194702 C 414.534851 51.857422 415.588776 51.520203 416.431885 50.634949 C 417.275024 49.749634 417.401489 48.358459 417.401489 45.365417 L 417.401489 22.516724 C 417.401489 19.60791 417.401489 18.301086 416.47406 17.204956 C 415.5466 16.108948 414.197601 15.856018 412.258423 15.687317 L 412.258423 13.874634 C 415.293671 13.874634 418.075958 14.127563 421.069061 14.127563 C 424.062195 14.127563 426.549408 13.874634 430.343475 13.874634 C 434.558929 13.716248 438.74707 14.614746 442.526642 16.488342 C 448.778229 19.93573 452.571716 26.594604 452.34906 33.730225 C 452.676575 40.308044 449.584076 46.588745 444.170715 50.339783 M 438.35318 19.27063 C 435.441132 17.07489 431.830841 16.011292 428.193481 16.277527 L 427.139587 16.277527 C 424.989594 16.277527 424.568054 16.741272 424.568054 19.059875 L 424.568054 48.231995 C 424.568054 50.508484 425.411194 51.393738 427.771942 51.393738 L 429.120941 51.393738 C 432.797852 51.610291 436.409241 50.350891 439.154114 47.894714 C 442.649841 43.921448 444.410706 38.714661 444.04425 33.435181 C 444.54657 28.097534 442.480743 22.839111 438.479645 19.27063"/>
            <path id="path11" fill="#bf9650" stroke="none" d="M 551.92218 651.994324 C 547.38269 655.291748 541.841309 656.915466 536.240051 656.589355 C 520.557922 656.589355 510.356079 646.471802 510.356079 629.609314 C 510.169922 622.576904 512.872925 615.77533 517.835327 610.789063 C 522.797729 605.802734 529.586304 603.067078 536.619446 603.219482 C 542.405151 603.007935 548.128845 604.471802 553.1026 607.43512 L 553.35553 619.281006 L 551.542725 619.576172 C 549.982971 611.735046 545.640869 606.001831 536.240051 606.001831 C 526.839172 606.001831 518.492249 614.095825 518.492249 629.777954 C 518.492249 645.460083 526.417664 653.554077 535.860657 653.554077 C 543.959534 653.478027 551.081848 648.179016 553.481995 640.443481 L 555.463318 641.160156 Z"/>
            <path id="path12" fill="#bf9650" stroke="none" d="M 586.237427 653.554077 C 583.43457 655.574402 580.036072 656.598389 576.583618 656.462891 C 567.140625 656.462891 561.660278 648.832642 561.660278 638.462158 C 561.660278 628.091675 569.121948 619.323242 578.143433 619.323242 C 587.164856 619.323242 590.284363 626.068176 590.284363 632.770996 C 590.284363 633.909241 589.904968 634.541565 588.724609 634.541565 L 567.941528 634.330811 C 567.941528 634.330811 567.941528 635.51123 567.941528 636.691589 C 567.941528 645.122803 572.157166 650.813904 578.986511 650.813904 C 582.964355 650.973755 586.823975 649.442139 589.609924 646.598267 L 590.790283 647.947266 Z M 577.216003 621.93689 C 573.000366 621.93689 568.784729 625.309387 568.110229 632.349487 L 581.810974 631.970093 C 582.991394 631.970093 583.412964 631.590637 583.455078 630.410278 C 583.455078 625.309387 581.262939 621.93689 577.216003 621.93689 Z"/>
            <path id="path13" fill="#bf9650" stroke="none" d="M 627.719177 655.113831 C 624.810364 655.113831 622.533997 655.493225 619.583008 655.493225 L 619.583008 653.554077 C 623.798645 653.174683 624.599609 652.373718 624.599609 648.07373 L 624.599609 633.150452 C 624.599609 627.670166 622.786926 624.129028 616.88501 624.129028 C 613.513672 624.544678 610.328186 625.903625 607.694946 628.049561 L 607.694946 648.07373 C 607.694946 652.289368 608.664551 653.090393 612.753662 653.554077 L 612.753662 655.493225 C 609.84491 655.493225 607.694946 655.113831 604.744019 655.113831 C 601.793091 655.113831 599.179382 655.493225 596.312744 655.493225 L 596.312744 653.554077 C 600.528381 653.301147 601.70874 652.373718 601.70874 648.07373 L 601.70874 630.410278 C 601.70874 626.489746 600.94989 625.688782 597.029419 624.508423 L 597.029419 622.948608 C 600.523621 622.057617 603.936401 620.872986 607.231201 619.407471 L 607.821411 619.407471 L 607.821411 625.140747 C 611.581787 622.29895 615.886658 620.261353 620.468323 619.154541 C 627.929993 619.154541 630.754456 622.779968 630.754456 630.621094 L 630.754456 647.905151 C 630.754456 652.120789 631.850464 653.006042 636.234802 653.385437 L 636.234802 655.324646 C 633.241638 655.493225 630.71228 655.113831 627.719177 655.113831 Z"/>
            <path id="path14" fill="#bf9650" stroke="none" d="M 654.109009 656.547119 C 646.6474 656.547119 645.129761 651.572754 645.213989 645.713013 L 645.55127 624.634888 L 640.366089 624.634888 L 640.366089 623.075134 C 644.667664 620.713867 648.206665 617.174866 650.567871 612.87323 L 651.74823 612.87323 L 651.74823 621.304504 L 662.034424 621.304504 L 662.034424 624.845703 L 651.74823 624.845703 L 651.411011 645.628662 C 651.411011 650.350159 653.012939 652.331543 656.132568 652.331543 C 658.172729 652.258667 660.1427 651.567749 661.781494 650.350159 L 662.793152 651.910034 C 660.260864 654.055176 657.300354 655.636047 654.109009 656.547119 Z"/>
            <path id="path15" fill="#bf9650" stroke="none" d="M 688.12915 628.21814 C 686.682251 628.41571 685.28833 627.596802 684.756653 626.236816 C 685.065308 625.98999 685.250244 625.620117 685.262512 625.225098 C 685.252808 624.929565 685.119507 624.651733 684.895081 624.459351 C 684.670593 624.266968 684.37561 624.177673 684.082092 624.213257 C 681.890015 624.213257 679.192017 628.428894 677.800842 630.874023 L 677.800842 648.07373 C 677.800842 652.289368 678.475342 653.174683 684.377258 653.554077 L 684.377258 655.493225 C 681.257629 655.493225 678.264587 655.113831 675.271484 655.113831 C 672.27832 655.113831 669.243164 655.493225 666.25 655.493225 L 666.25 653.554077 C 670.465637 653.301147 671.688171 652.373718 671.688171 648.07373 L 671.688171 630.410278 C 671.688171 626.489746 670.887268 625.688782 666.966675 624.508423 L 666.966675 622.948608 C 670.460938 622.057617 673.873657 620.872986 677.168457 619.407471 L 677.800842 619.407471 L 677.800842 627.248535 C 680.92041 622.147705 684.461548 619.154541 687.201721 619.154541 C 688.447266 619.047302 689.680115 619.471741 690.595642 620.322998 C 691.511169 621.174316 692.024048 622.373047 692.007507 623.623108 C 692.112488 624.74884 691.760864 625.86969 691.031616 626.733704 C 690.302307 627.597717 689.256592 628.132568 688.12915 628.21814 Z"/>
            <path id="path16" fill="#bf9650" stroke="none" d="M 714.055237 656.462891 C 709.33136 656.435669 704.8255 654.471497 701.590332 651.029114 C 698.355164 647.586792 696.674072 642.967896 696.939819 638.251343 C 696.939819 627.079956 704.527954 619.323242 713.591492 619.323242 C 718.312012 619.349731 722.814148 621.315247 726.042725 624.759033 C 729.271362 628.202881 730.942566 632.822266 730.664795 637.534668 C 730.664795 648.66394 723.07666 656.462891 714.055237 656.462891 Z M 713.422913 622.063354 C 707.141602 622.063354 703.979858 627.248535 703.979858 637.070984 C 703.979858 646.893372 707.942566 653.554077 714.181702 653.554077 C 720.420898 653.554077 723.624756 648.368896 723.624756 638.546448 C 723.624756 628.72406 719.704163 622.063354 713.422913 622.063354 Z"/>
            <path id="path17" fill="#bf9650" stroke="none" d="M 765.064392 655.113831 C 761.523254 655.113831 757.982056 655.493225 754.440979 655.493225 L 754.440979 653.469788 C 758.361511 652.921692 759.162476 652.668762 760.342896 651.488403 C 761.523254 650.308044 761.734009 648.748291 761.734009 644.827698 L 761.734009 614.938904 C 761.734009 610.723267 761.523254 609.205688 760.553589 608.025269 C 758.944702 606.747803 756.910156 606.129883 754.862549 606.296875 L 754.862549 604.273376 C 758.361511 604.273376 761.523254 604.652771 765.064392 604.652771 C 768.605469 604.652771 771.725037 604.273376 775.266174 604.273376 L 775.266174 606.212585 C 772.483826 606.465515 770.544678 606.84491 769.617249 608.025269 C 768.689819 609.205688 768.43689 610.765442 768.43689 614.854614 L 768.43689 644.827698 C 768.43689 648.748291 768.43689 650.350159 769.743713 651.488403 C 771.050537 652.626648 772.188782 653.090393 775.729919 653.469788 L 775.729919 655.493225 C 772.104431 655.493225 768.563354 655.113831 765.064392 655.113831 Z"/>
            <path id="path18" fill="#bf9650" stroke="none" d="M 812.363708 655.113831 C 809.454956 655.113831 807.178467 655.493225 804.185364 655.493225 L 804.185364 653.554077 C 808.401001 653.174683 809.244141 652.373718 809.244141 648.07373 L 809.244141 633.150452 C 809.244141 627.670166 807.431458 624.129028 801.529541 624.129028 C 798.158203 624.544678 794.972717 625.903625 792.339478 628.049561 L 792.339478 648.07373 C 792.339478 652.289368 793.309082 653.090393 797.356079 653.554077 L 797.356079 655.493225 C 794.489441 655.493225 792.339478 655.113831 789.38855 655.113831 C 786.437561 655.113831 783.781738 655.493225 780.957275 655.493225 L 780.957275 653.554077 C 785.172913 653.301147 786.353271 652.373718 786.353271 648.07373 L 786.353271 630.410278 C 786.353271 626.489746 785.552307 625.688782 781.631775 624.508423 L 781.631775 622.948608 C 785.130066 622.071106 788.543945 620.886108 791.833557 619.407471 L 792.465942 619.407471 L 792.465942 625.140747 C 796.233765 622.311157 800.53595 620.27478 805.112854 619.154541 C 812.574524 619.154541 815.398987 622.779968 815.398987 630.621094 L 815.398987 647.905151 C 815.398987 652.120789 816.494995 653.006042 820.879272 653.385437 L 820.879272 655.324646 C 817.844055 655.493225 815.35675 655.113831 812.363708 655.113831 Z"/>
            <path id="path19" fill="#bf9650" stroke="none" d="M 836.224182 656.547119 C 832.57605 656.714844 828.997131 655.511841 826.190979 653.174683 L 825.558594 643.900269 L 827.497803 643.563049 C 828.678162 649.08551 831.418335 653.933472 835.929077 653.933472 C 837.658508 654.096924 839.372925 653.495544 840.621338 652.287659 C 841.869812 651.079773 842.527344 649.386108 842.421082 647.652161 C 842.421082 642.804199 838.205505 640.991516 834.411438 639.220947 C 830.617371 637.450378 826.359558 634.75238 826.359558 628.892639 C 826.527344 626.149292 827.81311 623.59491 829.916687 621.825989 C 832.020264 620.057129 834.757385 619.228577 837.488831 619.533936 C 840.653503 619.403564 843.796021 620.116455 846.594604 621.599609 L 846.594604 629.567139 L 844.781921 629.820068 C 843.854492 623.918213 840.313293 621.894653 837.573181 621.894653 C 836.070862 621.688477 834.55249 622.139404 833.406311 623.132263 C 832.260071 624.125061 831.597168 625.563538 831.586975 627.079956 C 831.586975 631.801453 836.940857 633.361206 840.481934 635.300415 C 845.822693 636.987549 849.043701 642.417419 847.96405 647.913269 C 846.884277 653.409058 841.848328 657.216797 836.266296 656.757935 Z"/>
            <path id="path20" fill="#bf9650" stroke="none" d="M 868.052124 656.547119 C 860.632629 656.547119 859.115051 651.572754 859.199341 645.713013 L 859.536621 624.634888 L 854.351318 624.634888 L 854.351318 623.075134 C 858.652954 620.713867 862.191956 617.174866 864.553162 612.87323 L 865.733582 612.87323 L 865.733582 621.304504 L 875.977539 621.304504 L 875.977539 624.845703 L 865.691406 624.845703 L 865.354126 645.628662 C 865.354126 650.350159 866.956116 652.331543 870.075684 652.331543 C 872.115906 652.258667 874.085876 651.567749 875.724609 650.350159 L 876.736328 651.910034 C 874.204712 654.056274 871.243958 655.637268 868.052124 656.547119 Z"/>
            <path id="path21" fill="#bf9650" stroke="none" d="M 888.624451 655.113831 C 885.884277 655.113831 883.059753 655.493225 880.193176 655.493225 L 880.193176 653.554077 C 884.408813 653.301147 885.589172 652.373718 885.589172 648.07373 L 885.589172 630.410278 C 885.589172 626.489746 884.830383 625.688782 880.90979 624.508423 L 880.90979 622.948608 C 884.404114 622.057617 887.816833 620.872986 891.111633 619.407471 L 891.744019 619.407471 L 891.744019 647.905151 C 891.744019 652.120789 892.840027 653.006042 897.140015 653.385437 L 897.140015 655.324646 C 894.273376 655.493225 891.533203 655.113831 888.624451 655.113831 Z M 888.160706 611.102661 C 886.277832 611.136963 884.561218 610.029114 883.816895 608.299316 C 883.07251 606.569458 883.44812 604.561279 884.767456 603.217468 C 886.086792 601.873718 888.087769 601.461304 889.830994 602.173828 C 891.574097 602.886353 892.713257 604.582336 892.713562 606.465515 C 892.74762 607.661987 892.304688 608.822876 891.482422 609.692627 C 890.660034 610.562378 889.525818 611.069641 888.329285 611.102661 Z"/>
            <path id="path22" fill="#bf9650" stroke="none" d="M 915.225037 656.547119 C 907.763367 656.547119 906.287903 651.572754 906.372253 645.713013 L 906.667297 624.634888 L 901.524231 624.634888 L 901.524231 623.075134 C 905.825867 620.713867 909.364868 617.174866 911.726074 612.87323 L 912.864258 612.87323 L 912.864258 621.304504 L 923.108215 621.304504 L 923.108215 624.845703 L 912.864258 624.845703 L 912.527039 645.628662 C 912.527039 650.350159 914.086792 652.331543 917.248535 652.331543 C 919.286804 652.248291 921.253784 651.558411 922.897522 650.350159 L 923.90918 651.910034 C 921.377625 654.056274 918.41687 655.637268 915.225037 656.547119 Z"/>
            <path id="path23" fill="#bf9650" stroke="none" d="M 954.85199 656.29425 L 954.472534 655.914856 L 954.219604 650.013 C 951.078247 652.934021 947.337891 655.135071 943.258972 656.462891 C 939.757813 656.725647 936.37738 655.123535 934.364014 652.247253 C 932.542603 649.173035 931.731628 645.604858 932.04541 642.045471 L 932.04541 628.513245 C 932.04541 624.972168 931.075806 623.538818 927.492493 623.159363 L 927.492493 621.220215 C 930.949951 621.00946 934.379761 620.473083 937.73645 619.618286 L 938.368835 619.618286 C 938.158081 625.730896 938.158081 639.473877 938.158081 639.473877 C 937.887634 642.349182 938.336731 645.246582 939.464905 647.905151 C 940.815125 650.146912 943.303406 651.447937 945.914795 651.277588 C 949.046448 650.636719 951.954285 649.1828 954.346069 647.062012 L 954.346069 628.513245 C 954.346069 624.972168 953.418579 623.538818 949.877502 623.159363 L 949.877502 621.220215 C 953.320984 621.008545 956.736694 620.472168 960.079285 619.618286 L 960.71167 619.618286 C 960.71167 625.730896 960.71167 634.75238 960.71167 639.389587 L 960.71167 646.556152 C 960.71167 650.771729 961.807739 650.771729 966.107666 650.476685 L 966.360596 652.415833 C 963.241028 653.554077 957.212708 655.493225 954.85199 656.29425 Z"/>
            <path id="path24" fill="#bf9650" stroke="none" d="M 993.382813 653.807007 C 990.979858 655.499939 988.101257 656.38562 985.162292 656.336426 C 981.18158 656.403015 977.401794 654.591187 974.960449 651.446289 C 972.170288 647.841858 970.777832 643.349976 971.039978 638.799377 C 970.887329 633.124268 973.155884 627.6521 977.279053 623.749573 C 980.383057 620.88208 984.435974 619.260864 988.661255 619.196655 C 995.74353 619.196655 998.104309 623.117249 998.104309 625.857361 C 998.161682 627.08252 997.717651 628.278137 996.874573 629.168945 C 996.031555 630.059692 994.862183 630.568787 993.635742 630.578918 C 991.859436 630.604919 990.375488 629.232239 990.263245 627.459351 C 991.057068 626.92041 991.567566 626.054077 991.654358 625.098633 C 991.654358 624.297607 991.275024 621.726074 987.438782 621.726074 C 983.602539 621.726074 977.321228 625.477966 977.321228 636.480774 C 977.321228 647.483582 983.054443 650.603149 987.733826 650.603149 C 991.35614 650.691101 994.852295 649.27124 997.387634 646.682617 L 998.567993 647.989441 Z"/>
            <path id="path25" fill="#bf9650" stroke="none" d="M 1011.762939 655.113831 C 1009.022766 655.113831 1006.198303 655.493225 1003.331726 655.493225 L 1003.331726 653.554077 C 1007.547302 653.301147 1008.727722 652.373718 1008.727722 648.07373 L 1008.727722 630.410278 C 1008.727722 626.489746 1007.968872 625.688782 1004.04834 624.508423 L 1004.04834 622.948608 C 1007.542542 622.057617 1010.955261 620.872986 1014.250183 619.407471 L 1014.840332 619.407471 L 1014.840332 647.905151 C 1014.840332 652.120789 1015.936401 653.006042 1020.278503 653.385437 L 1020.278503 655.324646 C 1017.243225 655.493225 1014.503113 655.113831 1011.762939 655.113831 Z M 1011.299255 611.102661 C 1009.412964 611.154175 1007.683716 610.057617 1006.925903 608.329468 C 1006.168152 606.601379 1006.53302 604.586426 1007.848755 603.233887 C 1009.164429 601.881348 1011.168457 601.460815 1012.91687 602.170532 C 1014.665222 602.880249 1015.809204 604.578613 1015.809937 606.465515 C 1015.844055 607.683594 1015.383972 608.863647 1014.534363 609.737122 C 1013.684692 610.610657 1012.517761 611.10321 1011.299255 611.102661 Z"/>
            <path id="path26" fill="#bf9650" stroke="none" d="M 1042.368408 656.462891 C 1037.644409 656.435669 1033.13855 654.471497 1029.903442 651.029114 C 1026.668335 647.586792 1024.987183 642.967896 1025.25293 638.251343 C 1025.25293 627.079956 1032.841064 619.323242 1041.862549 619.323242 C 1046.590332 619.338196 1051.103516 621.298645 1054.341309 624.743774 C 1057.579102 628.188965 1059.256104 632.815002 1058.978027 637.534668 C 1058.978027 648.66394 1051.389893 656.462891 1042.368408 656.462891 Z M 1041.736084 622.063354 C 1035.454712 622.063354 1032.293091 627.248535 1032.293091 637.070984 C 1032.293091 646.893372 1036.213501 653.554077 1042.494873 653.554077 C 1048.776123 653.554077 1051.937866 648.368896 1051.937866 638.546448 C 1051.937866 628.72406 1048.017334 622.063354 1041.736084 622.063354 Z"/>
            <path id="path27" fill="#bf9650" stroke="none" d="M 1096.792114 655.113831 C 1093.925537 655.113831 1091.649048 655.493225 1088.656006 655.493225 L 1088.656006 653.554077 C 1092.871704 653.174683 1093.672607 652.373718 1093.672607 648.07373 L 1093.672607 633.150452 C 1093.672607 627.670166 1091.859863 624.129028 1086.000122 624.129028 C 1082.624023 624.526489 1079.433594 625.887573 1076.810059 628.049561 L 1076.810059 648.07373 C 1076.810059 652.289368 1077.737549 653.090393 1081.82666 653.554077 L 1081.82666 655.493225 C 1078.917969 655.493225 1076.810059 655.113831 1073.816895 655.113831 C 1070.823853 655.113831 1068.252319 655.493225 1065.385742 655.493225 L 1065.385742 653.554077 C 1069.601318 653.301147 1070.823853 652.373718 1070.823853 648.07373 L 1070.823853 630.410278 C 1070.823853 626.489746 1070.022949 625.688782 1066.102417 624.508423 L 1066.102417 622.948608 C 1069.59668 622.057617 1073.009399 620.872986 1076.304199 619.407471 L 1076.936523 619.407471 L 1076.936523 625.140747 C 1080.696899 622.29895 1085.001831 620.261353 1089.583496 619.154541 C 1097.045044 619.154541 1099.869507 622.779968 1099.869507 630.621094 L 1099.869507 647.905151 C 1099.869507 652.120789 1100.965576 653.006042 1105.349854 653.385437 L 1105.349854 655.324646 C 1102.314575 655.493225 1099.785278 655.113831 1096.792114 655.113831 Z"/>
            <path id="path28" fill="#bf9650" stroke="none" d="M 1134.775024 656.462891 C 1131.655396 656.462891 1129.674072 653.933472 1129.674072 650.013 C 1127.154297 652.867554 1123.989014 655.078918 1120.441772 656.462891 C 1118.005371 656.720947 1115.570313 655.962708 1113.711182 654.366821 C 1111.852051 652.771057 1110.733521 650.479004 1110.619385 648.031616 C 1110.418335 644.321472 1112.904663 641.000427 1116.52124 640.148376 L 1129.589722 635.932739 L 1129.589722 631.211243 C 1129.589722 625.351563 1126.301514 622.990784 1122.381104 622.990784 C 1118.460449 622.990784 1117.44873 625.351563 1117.44873 626.911316 C 1117.5177 627.949463 1117.968262 628.925415 1118.713379 629.651489 C 1118.00415 631.09906 1116.531494 632.015442 1114.919312 632.012207 C 1113.874512 632.080811 1112.852905 631.683533 1112.129028 630.927063 C 1111.405151 630.170532 1111.052979 629.132507 1111.16748 628.091675 C 1111.16748 624.929932 1114.539917 623.538818 1118.081055 622.189819 C 1118.081055 622.189819 1123.350586 620.166321 1125.669189 619.365356 C 1131.571045 619.365356 1135.744507 622.189819 1135.744507 628.091675 L 1135.744507 647.694397 C 1135.744507 650.434509 1136.882813 651.910034 1138.231689 651.910034 C 1139.503052 651.862427 1140.721191 651.387085 1141.688599 650.560974 L 1142.616089 652.078613 C 1140.60498 654.423584 1137.825806 655.977478 1134.775024 656.462891 Z M 1129.589722 637.998413 L 1121.622192 640.991516 C 1117.659424 642.424805 1117.069336 644.532654 1117.069336 646.893372 C 1117.269409 649.887451 1119.759644 652.211731 1122.760498 652.205078 C 1125.542847 652.205078 1129.589722 647.652161 1129.589722 647.652161 Z"/>
            <path id="path29" fill="#bf9650" stroke="none" d="M 1153.365845 655.113831 C 1149.866943 655.113831 1147.084595 655.493225 1144.93457 655.493225 L 1144.93457 653.554077 C 1149.403076 653.174683 1150.414917 652.373718 1150.414917 648.07373 L 1150.414917 608.025269 C 1150.414917 604.104797 1149.234619 602.924377 1145.229736 602.123413 L 1145.229736 600.563599 C 1148.974121 599.550415 1152.649292 598.29718 1156.232544 596.811707 L 1156.991333 597.191162 C 1156.527588 600.7323 1156.527588 608.952759 1156.527588 612.915405 L 1156.527588 648.07373 C 1156.527588 652.289368 1157.454956 653.174683 1162.007935 653.554077 L 1162.007935 655.493225 C 1159.520752 655.493225 1156.907104 655.113831 1153.365845 655.113831 Z"/>
            <path id="path30" fill="#bf9650" stroke="none" d="M 535.860657 734.74707 L 535.439087 734.367676 L 535.439087 728.887329 C 532.395386 732.073059 528.402283 734.187866 524.056885 734.91571 C 519.868408 735.040771 515.889954 733.08313 513.433472 729.688354 C 511.015289 726.117432 509.830933 721.853821 510.060974 717.547302 C 509.976105 712.580261 511.648285 707.742981 514.782471 703.888733 C 517.924316 700.140198 522.539001 697.940552 527.429382 697.860352 C 530.325867 697.685669 533.191406 698.536377 535.523376 700.263245 L 535.523376 686.5625 C 535.523376 682.599792 534.343018 681.461548 530.338196 680.660522 L 530.338196 679.100769 C 534.067871 678.067932 537.728699 676.80072 541.298828 675.306763 L 542.015442 675.728271 C 541.636047 679.227234 541.551758 687.489929 541.551758 691.4104 L 541.551758 725.472717 C 541.551758 729.393188 542.900757 729.688354 546.821289 729.393188 L 547.284973 731.374573 C 543.912476 732.006958 538.980225 733.608826 535.860657 734.74707 Z M 535.312622 709.664124 C 535.312622 704.141602 532.951843 700.642639 527.429382 700.642639 C 521.906921 700.642639 516.763855 705.322021 516.763855 715.523804 C 516.763855 725.725647 521.864746 730.278503 526.839172 730.278503 C 530.08783 730.012329 533.108337 728.502136 535.270447 726.062866 Z"/>
            <path id="path31" fill="#bf9650" stroke="none" d="M 577.131653 732.006958 C 574.328796 734.027283 570.930298 735.05127 567.477905 734.91571 C 558.034851 734.91571 552.554504 727.327576 552.554504 716.957092 C 552.554504 706.586731 560.016174 697.818176 569.037659 697.818176 C 578.059082 697.818176 581.17865 704.563171 581.17865 711.223877 C 581.17865 712.404236 580.799194 713.036621 579.618835 713.036621 L 558.835815 712.783691 C 558.835815 712.783691 558.835815 713.96405 558.835815 715.144409 C 558.835815 723.575684 562.840637 729.266724 569.922913 729.266724 C 573.885376 729.409302 577.72522 727.879456 580.50415 725.051086 L 581.684509 726.358032 Z M 568.110229 700.389709 C 563.894592 700.389709 559.678955 703.762268 559.004456 710.844482 L 572.7052 710.422852 C 573.88562 710.422852 574.30719 710.043457 574.391541 708.863098 C 574.391541 703.762268 572.157166 700.389709 568.236694 700.389709 Z"/>
            <path id="path32" fill="#bf9650" stroke="none" d="M 615.156616 733.608826 C 611.657654 733.608826 608.116516 733.988281 604.575378 733.988281 L 604.575378 731.922607 C 608.495911 731.374573 609.296936 731.163818 610.477295 729.983459 C 611.657654 728.80304 611.868469 727.243286 611.868469 723.322754 L 611.868469 693.391785 C 611.868469 689.176147 611.868469 687.658508 610.688049 686.520264 C 609.076538 685.216614 607.018372 684.59613 604.954834 684.791931 L 604.954834 682.726257 C 608.495911 682.726257 611.657654 683.147827 615.156616 683.147827 C 618.65564 683.147827 621.859436 682.726257 625.358459 682.726257 L 625.358459 684.707581 C 623.313354 684.570801 621.293152 685.219116 619.709534 686.520264 C 618.697754 687.658508 618.529053 689.260498 618.529053 693.349609 L 618.529053 723.322754 C 618.529053 727.243286 618.529053 728.80304 619.878113 729.983459 C 621.227173 731.163818 622.323181 731.543213 625.864319 731.922607 L 625.864319 733.903931 C 622.238831 733.903931 618.824219 733.608826 615.156616 733.608826 Z"/>
            <path id="path33" fill="#bf9650" stroke="none" d="M 662.498108 733.608826 C 659.589294 733.608826 657.312927 733.988281 654.319763 733.988281 L 654.319763 732.006958 C 658.5354 731.627563 659.336426 730.826599 659.336426 726.526611 L 659.336426 711.603333 C 659.336426 706.122986 657.565857 702.581848 651.66394 702.581848 C 648.290161 702.988525 645.102295 704.348511 642.473877 706.50238 L 642.473877 726.526611 C 642.473877 730.742249 643.401306 731.543213 647.490479 732.006958 L 647.490479 733.903931 C 644.581726 733.903931 642.473877 733.524597 639.480774 733.524597 C 636.487671 733.524597 633.916138 733.903931 631.0495 733.903931 L 631.0495 731.922607 C 635.265137 731.711792 636.487671 730.742249 636.487671 726.442261 L 636.487671 708.778809 C 636.487671 704.858276 635.686707 704.057312 631.766235 702.876953 L 631.766235 701.317139 C 635.267822 700.45105 638.682739 699.265686 641.968018 697.776001 L 642.600342 697.776001 L 642.600342 703.509277 C 646.375793 700.701721 650.676331 698.68042 655.247253 697.565247 C 662.708923 697.565247 665.533386 701.148499 665.533386 708.989563 L 665.533386 726.273682 C 665.533386 730.489319 666.629395 731.374573 671.013733 731.754028 L 671.013733 733.903931 C 667.978455 733.903931 665.491272 733.608826 662.498108 733.608826 Z"/>
            <path id="path34" fill="#bf9650" stroke="none" d="M 706.340637 733.608826 C 703.431885 733.608826 701.155396 733.988281 698.204468 733.988281 L 698.204468 732.006958 C 702.420105 731.627563 703.22113 730.826599 703.22113 726.526611 L 703.22113 711.603333 C 703.22113 706.122986 701.408325 702.581848 695.50647 702.581848 C 692.14502 702.987122 688.970337 704.347717 686.358582 706.50238 L 686.358582 726.526611 C 686.358582 730.742249 687.286011 731.543213 691.375183 732.006958 L 691.375183 733.903931 C 688.466431 733.903931 686.358582 733.524597 683.365479 733.524597 C 680.372437 733.524597 677.800842 733.903931 674.934204 733.903931 L 674.934204 731.922607 C 679.149841 731.711792 680.3302 730.742249 680.3302 726.442261 L 680.3302 708.778809 C 680.3302 704.858276 679.571411 704.057312 675.650879 702.876953 L 675.650879 701.317139 C 679.150818 700.445251 682.565186 699.260071 685.852661 697.776001 L 686.485046 697.776001 L 686.485046 703.509277 C 690.257507 700.696655 694.559082 698.674927 699.131958 697.565247 C 706.593628 697.565247 709.418091 701.148499 709.418091 708.989563 L 709.418091 726.273682 C 709.418091 730.489319 710.514099 731.374573 714.898376 731.754028 L 714.898376 733.903931 C 711.863159 733.903931 709.33374 733.608826 706.340637 733.608826 Z"/>
            <path id="path35" fill="#bf9650" stroke="none" d="M 736.861816 734.91571 C 732.137878 734.88855 727.632019 732.924377 724.396912 729.481995 C 721.161682 726.039673 719.480652 721.420715 719.746338 716.704163 C 719.746338 705.574951 727.376648 697.818176 736.398071 697.818176 C 741.125916 697.833191 745.639099 699.79364 748.876953 703.238831 C 752.114746 706.68396 753.791687 711.310059 753.51355 716.029663 C 753.724304 727.158936 745.88324 734.91571 736.861816 734.91571 Z M 736.229492 700.55835 C 729.948181 700.55835 726.828613 705.743591 726.828613 715.523804 C 726.828613 725.304077 730.749146 732.006958 737.030396 732.006958 C 743.311707 732.006958 746.431274 726.821716 746.431274 717.041443 C 746.431274 707.261169 742.510742 700.55835 736.229492 700.55835 Z"/>
            <path id="path36" fill="#bf9650" stroke="none" d="M 791.116943 702.581848 C 789.749207 704.502319 788.683044 706.620544 787.9552 708.863098 L 777.205383 734.367676 L 774.380859 734.74707 L 763.251587 706.92395 C 762.705322 705.396973 761.907349 703.972046 760.890869 702.708313 C 759.992737 701.918945 758.902039 701.380859 757.729126 701.148499 L 757.729126 699.167175 C 760.511475 699.167175 762.619263 699.504395 765.359436 699.504395 C 768.099609 699.504395 771.261353 699.167175 774.085815 699.167175 L 774.085815 701.148499 C 769.870178 701.527954 768.900574 702.328857 768.900574 703.509277 C 769.098511 704.867188 769.496277 706.188354 770.080994 707.42981 L 777.373962 726.653076 L 784.582764 707.42981 C 785.186523 706.19574 785.585205 704.871521 785.763123 703.509277 C 785.763123 702.328857 784.666992 701.527954 781.294495 701.148499 L 781.294495 699.167175 C 783.781738 699.167175 785.763123 699.504395 788.334656 699.504395 C 790.906189 699.504395 791.664978 699.167175 794.236511 699.167175 L 794.236511 701.148499 C 793.071594 701.285583 791.979736 701.78717 791.116943 702.581848 Z"/>
            <path id="path37" fill="#bf9650" stroke="none" d="M 821.848877 734.91571 C 818.729309 734.91571 816.747925 732.428467 816.747925 728.507935 C 814.225708 731.34967 811.060181 733.546753 807.515686 734.91571 C 805.07666 735.186584 802.634583 734.432922 800.7724 732.834473 C 798.910278 731.236084 797.795166 728.936401 797.693298 726.484497 C 797.491821 722.79718 799.959717 719.494751 803.553101 718.643433 L 816.663635 714.427795 L 816.663635 709.748413 C 816.663635 703.846497 813.375427 701.317139 809.454956 701.317139 C 805.534363 701.317139 804.522644 703.677917 804.522644 705.237671 C 804.591614 706.275818 805.042053 707.251831 805.787354 707.977844 C 805.041809 709.392273 803.591492 710.294617 801.993225 710.338623 C 800.948486 710.407166 799.92688 710.009888 799.202881 709.253357 C 798.478943 708.496887 798.126892 707.458801 798.241333 706.41803 C 798.241333 703.298523 801.613831 701.865173 805.154968 700.55835 C 805.154968 700.55835 810.382385 698.492676 812.743103 697.733887 C 818.644958 697.733887 822.818481 700.55835 822.818481 706.41803 L 822.818481 726.062866 C 822.818481 728.80304 823.956726 730.278503 825.305664 730.278503 C 826.568787 730.227173 827.781372 729.768738 828.762512 728.97168 L 829.689941 730.447144 C 827.6922 732.823425 824.91156 734.408142 821.848877 734.91571 Z M 816.663635 716.493408 L 808.653931 719.444397 C 804.733459 720.877686 804.14325 722.985474 804.14325 725.346252 C 804.32196 728.356934 806.818359 730.705383 809.83429 730.700134 C 812.616638 730.700134 816.663635 726.147217 816.663635 726.147217 Z"/>
            <path id="path38" fill="#bf9650" stroke="none" d="M 855.911194 732.428467 C 853.438171 734.136108 850.483704 735.007629 847.479919 734.91571 C 843.50647 734.992432 839.728088 733.196899 837.278076 730.067749 C 834.504822 726.45459 833.11438 721.969177 833.357544 717.420837 C 833.209045 711.725708 835.49353 706.236938 839.638855 702.328857 C 842.738403 699.454468 846.794128 697.832214 851.020996 697.776001 C 858.103271 697.776001 860.46405 701.738708 860.46405 704.478882 C 860.521667 705.700134 860.076477 706.891602 859.232178 707.775757 C 858.387756 708.659973 857.218079 709.159607 855.995422 709.158264 C 854.219238 709.184204 852.735168 707.811523 852.622986 706.038635 C 853.43573 705.517761 853.952209 704.641235 854.014099 703.677917 C 854.014099 702.876953 853.634705 700.30542 849.798462 700.30542 C 845.96228 700.30542 839.638855 704.057312 839.638855 715.06012 C 839.638855 726.062866 845.37207 729.182495 850.093567 729.182495 C 853.719604 729.291199 857.223877 727.868042 859.747314 725.261902 L 860.927734 726.610962 Z"/>
            <path id="path39" fill="#bf9650" stroke="none" d="M 874.291321 733.608826 C 871.508972 733.608826 868.684509 733.988281 865.860046 733.988281 L 865.860046 732.006958 C 870.075684 731.796143 871.256042 730.826599 871.256042 726.526611 L 871.256042 708.863098 C 871.256042 704.942627 870.455078 704.141602 866.534485 702.961243 L 866.534485 701.401428 C 870.038513 700.54303 873.454041 699.357422 876.736328 697.860352 L 877.368713 697.860352 L 877.368713 726.358032 C 877.368713 730.573669 878.464722 731.458862 882.806824 731.838257 L 882.806824 733.903931 C 879.771545 733.903931 877.031433 733.608826 874.291321 733.608826 Z M 873.7854 689.555542 C 871.902527 689.589844 870.185913 688.481934 869.441589 686.752075 C 868.697205 685.022339 869.072876 683.014099 870.392151 681.670349 C 871.711487 680.326599 873.712463 679.914124 875.455688 680.626648 C 877.198792 681.339172 878.337952 683.035156 878.338257 684.918396 C 878.372681 686.143799 877.906921 687.330444 877.048035 688.2052 C 876.189148 689.079956 875.01123 689.567505 873.7854 689.555542 Z"/>
            <path id="path40" fill="#bf9650" stroke="none" d="M 904.854614 734.91571 C 900.170898 734.832031 895.723999 732.841553 892.541382 729.404358 C 889.358765 725.967102 887.715759 721.380432 887.992126 716.704163 C 887.992126 705.574951 895.5802 697.818176 904.601624 697.818176 C 909.329468 697.833191 913.842651 699.79364 917.080505 703.238831 C 920.318298 706.68396 921.995178 711.310059 921.717102 716.029663 C 921.506348 727.158936 913.918213 734.91571 904.854614 734.91571 Z M 904.264404 700.55835 C 897.983093 700.55835 894.821411 705.743591 894.821411 715.523804 C 894.821411 725.304077 898.741882 732.006958 905.023193 732.006958 C 911.304504 732.006958 914.466248 726.821716 914.466248 717.041443 C 914.466248 707.261169 910.50354 700.55835 904.264404 700.55835 Z M 912.231995 684.918396 L 901.482117 694.361328 L 900.470337 693.560364 L 907.131042 682.979187 C 908.395752 680.997803 909.112366 679.817444 910.84082 679.817444 C 912.24469 679.817261 913.389282 680.943054 913.412354 682.346863 C 913.498779 683.35199 913.050476 684.328613 912.231995 684.918396 Z"/>
            <path id="path41" fill="#bf9650" stroke="none" d="M 959.320557 733.608826 C 956.411743 733.608826 954.135254 733.988281 951.184326 733.988281 L 951.184326 732.006958 C 955.399963 731.627563 956.200928 730.826599 956.200928 726.526611 L 956.200928 711.603333 C 956.200928 706.122986 954.388245 702.581848 948.486328 702.581848 C 945.124878 702.987122 941.950134 704.347717 939.33844 706.50238 L 939.33844 726.526611 C 939.33844 730.742249 940.265869 731.543213 944.355042 732.006958 L 944.355042 733.903931 C 941.446228 733.903931 939.33844 733.524597 936.345337 733.524597 C 933.352234 733.524597 930.780701 733.903931 927.914124 733.903931 L 927.914124 731.922607 C 932.129761 731.711792 933.31012 730.742249 933.31012 726.442261 L 933.31012 708.778809 C 933.31012 704.858276 932.55127 704.057312 928.630737 702.876953 L 928.630737 701.317139 C 932.130676 700.445251 935.545105 699.260071 938.832581 697.776001 L 939.464905 697.776001 L 939.464905 703.509277 C 943.237366 700.696655 947.53894 698.674927 952.111755 697.565247 C 959.573425 697.565247 962.397888 701.148499 962.397888 708.989563 L 962.397888 726.273682 C 962.397888 730.489319 963.493958 731.374573 967.878235 731.754028 L 967.878235 733.903931 C 964.843018 733.903931 962.313599 733.608826 959.320557 733.608826 Z"/>
            <path id="path42" fill="#bf9650" stroke="none" d="M 1027.740112 733.903931 C 1019.899109 733.903931 1003.415955 733.524597 999.874878 733.524597 C 996.33374 733.524597 992.792603 733.903931 989.29364 733.903931 L 989.29364 731.838257 C 992.792603 731.374573 993.973022 731.079468 995.153381 729.899109 C 996.33374 728.71875 996.58667 727.158936 996.58667 723.238403 L 996.58667 693.307434 C 996.58667 689.091797 996.33374 687.574158 995.406311 686.436035 C 993.790588 685.14032 991.735718 684.520752 989.673035 684.707581 L 989.673035 682.641907 C 993.214172 682.641907 996.33374 683.063477 999.874878 683.063477 C 1006.914917 683.063477 1026.728394 682.641907 1026.728394 682.641907 L 1026.939209 694.2771 L 1025.379395 694.2771 C 1023.018677 687.447693 1022.217712 685.845825 1015.557007 685.845825 L 1006.535522 685.845825 C 1003.415955 685.845825 1003.247375 686.140869 1003.247375 689.302612 L 1003.247375 706.1651 L 1011.257019 705.91217 C 1014.798157 705.91217 1016.357971 705.532776 1017.2854 704.520996 C 1018.575745 702.976379 1019.251221 701.010071 1019.182434 698.998535 L 1021.079468 698.998535 C 1021.079468 702.160278 1020.657959 704.900391 1020.657959 707.809204 C 1020.657959 710.718018 1021.079468 713.54248 1021.079468 716.662048 L 1019.308899 716.662048 C 1019.266602 714.564697 1018.60675 712.526489 1017.411865 710.802307 C 1016.400085 709.832703 1014.840332 709.453308 1011.299255 709.368958 L 1003.28949 709.158264 L 1003.28949 725.472717 C 1003.28949 729.688354 1004.090454 730.826599 1008.559021 730.826599 L 1017.580505 730.826599 C 1023.440186 730.826599 1026.601929 726.358032 1028.962646 720.456116 L 1030.901855 721.00415 Z"/>
            <path id="path43" fill="#bf9650" stroke="none" d="M 1062.434814 734.74707 L 1062.05542 734.367676 L 1062.05542 728.887329 C 1059.011719 732.073059 1055.018677 734.187866 1050.673218 734.91571 C 1046.47998 735.070496 1042.494995 733.085938 1040.091919 729.646179 C 1037.653564 726.084717 1036.467285 721.814087 1036.719482 717.505188 C 1036.622681 712.543335 1038.279785 707.706604 1041.398804 703.846497 C 1044.540649 700.098022 1049.155273 697.898376 1054.045654 697.818176 C 1056.943481 697.632507 1059.812622 698.484375 1062.139648 700.221069 L 1062.139648 686.520264 C 1062.139648 682.557617 1060.959351 681.419373 1056.954468 680.618408 L 1056.954468 679.100769 C 1060.699951 678.074341 1064.375244 676.807007 1067.957275 675.306763 L 1068.67395 675.728271 C 1068.252319 679.227234 1068.167969 687.489929 1068.167969 691.4104 L 1068.167969 725.472717 C 1068.167969 729.393188 1069.51709 729.688354 1073.4375 729.393188 L 1073.901245 731.374573 C 1070.528809 732.006958 1065.680786 733.608826 1062.434814 734.74707 Z M 1061.886719 709.664124 C 1061.886719 704.141602 1059.526001 700.642639 1054.045654 700.642639 C 1048.56543 700.642639 1043.380127 705.322021 1043.380127 715.523804 C 1043.380127 725.725647 1048.481079 730.278503 1053.41333 730.278503 C 1056.661987 730.012329 1059.682495 728.502136 1061.844604 726.062866 Z"/>
            <path id="path44" fill="#bf9650" stroke="none" d="M 1105.518555 734.74707 L 1105.139038 734.367676 L 1104.886108 728.507935 C 1101.747925 731.44519 1097.986694 733.63562 1093.883423 734.91571 C 1090.391968 735.189209 1087.018921 733.583069 1085.030518 730.700134 C 1083.180908 727.636169 1082.354248 724.063232 1082.6698 720.498291 L 1082.6698 707.00824 C 1082.6698 703.467102 1081.74231 702.075928 1078.116943 701.696533 L 1078.116943 699.71521 C 1081.585205 699.503052 1085.02771 698.981079 1088.403076 698.155457 L 1089.0354 698.155457 C 1088.782471 704.268066 1088.782471 718.011047 1088.782471 718.011047 C 1088.555176 720.82019 1089.018311 723.642334 1090.131348 726.231506 C 1091.467773 728.488037 1093.965698 729.794128 1096.581299 729.604004 C 1099.713013 728.963135 1102.620972 727.509155 1105.012573 725.388367 L 1105.012573 706.797485 C 1105.012573 703.256348 1104.085083 701.865173 1100.544067 701.485779 L 1100.544067 699.504395 C 1103.983887 699.285583 1107.397705 698.76355 1110.74585 697.944641 L 1111.378174 697.944641 C 1111.125244 704.057312 1111.125244 713.078735 1111.125244 717.715942 L 1111.125244 725.472717 C 1111.125244 729.688354 1112.221436 729.688354 1116.563477 729.393188 L 1116.563477 731.374573 C 1113.907593 732.006958 1107.837036 733.903931 1105.518555 734.74707 Z"/>
            <path id="path45" fill="#bf9650" stroke="none" d="M 1144.049316 732.428467 C 1141.576416 734.136108 1138.621948 735.007629 1135.618042 734.91571 C 1131.644653 734.992432 1127.866211 733.196899 1125.416382 730.067749 C 1122.642944 726.45459 1121.252563 721.969177 1121.495728 717.420837 C 1121.347168 711.725708 1123.631714 706.236938 1127.7771 702.328857 C 1130.876587 699.454468 1134.932373 697.832214 1139.15918 697.776001 C 1146.241455 697.776001 1148.602295 701.738708 1148.602295 704.478882 C 1148.660278 705.707458 1148.209351 706.90564 1147.355835 707.791138 C 1146.502197 708.676697 1145.321411 709.171143 1144.091553 709.158264 C 1142.32312 709.183228 1140.851685 707.804871 1140.761108 706.038635 C 1141.573975 705.517761 1142.090332 704.641235 1142.152344 703.677917 C 1142.152344 702.876953 1141.772827 700.30542 1137.936768 700.30542 C 1134.100464 700.30542 1127.7771 704.057312 1127.7771 715.06012 C 1127.7771 726.062866 1133.510254 729.182495 1138.231689 729.182495 C 1141.857788 729.291199 1145.362061 727.868042 1147.88562 725.261902 L 1149.065918 726.610962 Z"/>
            <path id="path46" fill="#bf9650" stroke="none" d="M 1179.502808 734.91571 C 1176.383301 734.91571 1174.401855 732.428467 1174.401855 728.507935 C 1171.879517 731.34967 1168.714111 733.546753 1165.169678 734.91571 C 1162.730591 735.186584 1160.288574 734.432922 1158.42627 732.834473 C 1156.564209 731.236084 1155.449097 728.936401 1155.347168 726.484497 C 1155.13208 722.779114 1157.628906 719.461975 1161.249146 718.643433 L 1174.317505 714.427795 L 1174.317505 709.748413 C 1174.317505 703.846497 1171.029297 701.317139 1167.108765 701.317139 C 1163.188354 701.317139 1162.176636 703.677917 1162.176636 705.237671 C 1162.245605 706.275818 1162.695923 707.251831 1163.441284 707.977844 C 1162.731934 709.425476 1161.259155 710.341797 1159.647217 710.338623 C 1158.602295 710.407166 1157.580688 710.009888 1156.856812 709.253357 C 1156.132813 708.496887 1155.780884 707.458801 1155.895264 706.41803 C 1155.895264 703.298523 1159.267822 701.865173 1162.80896 700.55835 C 1162.80896 700.55835 1168.078491 698.492676 1170.396973 697.733887 C 1176.298828 697.733887 1180.472412 700.55835 1180.472412 706.41803 L 1180.472412 726.062866 C 1180.472412 728.80304 1181.652832 730.278503 1182.959595 730.278503 C 1184.222656 730.227173 1185.435303 729.768738 1186.416504 728.97168 L 1187.34375 730.447144 C 1185.346069 732.823425 1182.56543 734.408142 1179.502808 734.91571 Z M 1174.317505 716.493408 L 1166.350098 719.444397 C 1162.387329 720.877686 1161.797119 722.985474 1161.797119 725.346252 C 1161.975952 728.356934 1164.47229 730.705383 1167.488159 730.700134 C 1170.270508 730.700134 1174.317505 726.147217 1174.317505 726.147217 Z"/>
            <path id="path47" fill="#bf9650" stroke="none" d="M 1204.164185 735 C 1196.702515 735 1195.184937 730.067749 1195.269165 724.165894 L 1195.606567 703.087708 L 1190.421265 703.087708 L 1190.421265 701.527954 C 1194.731445 699.178162 1198.273315 695.636292 1200.623169 691.326111 L 1201.803467 691.326111 L 1201.803467 699.757324 L 1212.0896 699.757324 L 1212.0896 703.256348 L 1201.803467 703.256348 L 1201.466187 724.081543 C 1201.466187 728.80304 1203.068115 730.742249 1206.187622 730.742249 C 1208.222046 730.673889 1210.189331 729.998535 1211.83667 728.80304 L 1212.848389 730.362854 C 1210.3125 732.502686 1207.353149 734.082886 1204.164185 735 Z"/>
            <path id="path48" fill="#bf9650" stroke="none" d="M 1224.863037 733.608826 C 1222.122681 733.608826 1219.29834 733.988281 1216.431763 733.988281 L 1216.431763 732.006958 C 1220.647339 731.796143 1221.869751 730.826599 1221.869751 726.526611 L 1221.869751 708.863098 C 1221.869751 704.942627 1221.068848 704.141602 1217.148315 702.961243 L 1217.148315 701.401428 C 1220.648193 700.52948 1224.062622 699.34436 1227.35022 697.860352 L 1227.982544 697.860352 L 1227.982544 726.358032 C 1227.982544 730.573669 1229.078613 731.458862 1233.37854 731.838257 L 1233.37854 733.903931 C 1230.343262 733.903931 1227.603149 733.608826 1224.863037 733.608826 Z M 1224.39917 689.555542 C 1221.838135 689.555542 1219.761963 687.479431 1219.761963 684.918396 C 1219.761963 682.3573 1221.838135 680.281189 1224.39917 680.281189 C 1226.960205 680.281189 1229.036377 682.3573 1229.036377 684.918396 C 1229.036377 687.479431 1226.960205 689.555542 1224.39917 689.555542 Z"/>
            <path id="path49" fill="#bf9650" stroke="none" d="M 1268.578979 702.581848 C 1267.210693 704.495728 1266.157471 706.616333 1265.459473 708.863098 L 1254.667358 734.367676 L 1251.843018 734.74707 L 1240.713623 706.92395 C 1240.183594 705.389587 1239.384155 703.962036 1238.352905 702.708313 C 1237.476074 701.911804 1236.396729 701.372131 1235.233398 701.148499 L 1235.233398 699.167175 C 1237.973511 699.167175 1240.081299 699.504395 1242.821411 699.504395 C 1245.561768 699.504395 1248.723511 699.167175 1251.547852 699.167175 L 1251.547852 701.148499 C 1247.332275 701.527954 1246.362549 702.328857 1246.362549 703.509277 C 1246.580078 704.862793 1246.977173 706.181213 1247.543091 707.42981 L 1254.83606 726.653076 L 1262.044678 707.42981 C 1262.66687 706.203003 1263.06665 704.875671 1263.225098 703.509277 C 1263.225098 702.328857 1262.12915 701.527954 1258.756592 701.148499 L 1258.756592 699.167175 C 1261.285889 699.167175 1263.225098 699.504395 1265.838867 699.504395 C 1268.452515 699.504395 1269.127075 699.167175 1271.698608 699.167175 L 1271.698608 701.148499 C 1270.535889 701.293823 1269.446533 701.794312 1268.578979 702.581848 Z"/>
            <path id="path50" fill="#bf9650" stroke="none" d="M 1299.353027 734.91571 C 1296.191284 734.91571 1294.252197 732.428467 1294.252197 728.507935 C 1291.722412 731.360229 1288.540649 733.558533 1284.977783 734.91571 C 1282.538696 735.186584 1280.096558 734.432922 1278.234497 732.834473 C 1276.372314 731.236084 1275.257324 728.936401 1275.155396 726.484497 C 1274.940308 722.779114 1277.437012 719.461975 1281.057251 718.643433 L 1294.167969 714.427795 L 1294.167969 709.748413 C 1294.167969 703.846497 1290.837524 701.317139 1286.916992 701.317139 C 1282.99646 701.317139 1281.984741 703.677917 1281.984741 705.237671 C 1282.053589 706.275818 1282.50415 707.251831 1283.24939 707.977844 C 1282.546753 709.411865 1281.09436 710.325806 1279.497437 710.338623 C 1278.445679 710.420349 1277.412109 710.02887 1276.678345 709.270691 C 1275.944702 708.512573 1275.587158 707.466675 1275.703491 706.41803 C 1275.703491 703.298523 1279.075928 701.865173 1282.617065 700.55835 C 1282.617065 700.55835 1287.886597 698.492676 1290.247314 697.733887 C 1296.107056 697.733887 1300.280518 700.55835 1300.280518 706.41803 L 1300.280518 726.062866 C 1300.280518 728.80304 1301.460815 730.278503 1302.7677 730.278503 C 1304.030762 730.227173 1305.243408 729.768738 1306.224609 728.97168 L 1307.194214 730.447144 C 1305.182373 732.806396 1302.408203 734.387329 1299.353027 734.91571 Z M 1294.167969 716.493408 L 1286.158081 719.444397 C 1282.237671 720.877686 1281.605347 722.985474 1281.605347 725.346252 C 1281.784912 728.373291 1284.306274 730.727905 1287.338501 730.700134 C 1290.078735 730.700134 1294.167969 726.147217 1294.167969 726.147217 Z"/>
        </g>
        <path id="path51" fill="#bf9650" stroke="none" d="M 407.655609 520.34314 C 395.903595 520.34314 386.847382 511.623901 386.594666 502.567688 C 386.384064 495.533325 388.36377 485.718933 402.179779 478.347595 C 402.179779 478.347595 427.452911 465.289825 430.443542 463.436432 L 430.443542 505.17926 C 430.443542 505.17926 416.585449 520.34314 407.739868 520.34314 M 89.298401 85.687378 L 446.491974 85.687378 L 446.491974 125.661072 C 441.142517 116.225769 430.401428 111.550232 416.669678 111.63446 L 391.396545 121.154053 C 379.686676 125.661072 368.482269 130.462952 368.566498 140.867065 C 368.206421 144.345886 369.408936 147.805115 371.849243 150.310486 C 374.289551 152.815918 377.715942 154.109009 381.203064 153.840637 C 386.568512 153.784912 391.44986 150.725891 393.83963 145.921692 C 391.365387 143.526733 389.86496 140.300842 389.627441 136.865479 C 389.627441 131.642395 392.955078 123.765625 406.012848 123.723511 C 419.070618 123.681335 430.064423 131.389648 430.148712 150.976318 L 430.148712 155.69397 C 421.724335 160.917053 386.215576 178.524048 386.215576 178.524048 C 374.92691 183.915649 365.154633 191.792419 365.154633 207.461731 C 365.154633 223.131104 380.487 235.262207 402.221863 235.135834 C 412.643158 229.265076 422.221619 222.010376 430.696259 213.569458 C 430.696259 226.206024 436.888184 234.209137 446.618347 234.630402 L 446.618347 261.925354 L 443.627686 261.925354 C 434.302582 268.634094 423.25354 272.536316 411.783569 273.171906 L 411.783569 278.352905 C 424.841339 282.270233 427.410767 284.881775 427.410767 297.939575 L 427.410767 356.825958 C 427.410767 371.1474 423.7883 374.306549 409.424713 375.064758 L 409.424713 381.593658 L 446.491974 381.593658 L 446.491974 424.389465 C 441.058258 415.459625 430.527771 410.99472 417.259369 410.99472 L 391.986237 420.387909 C 380.234253 424.600098 368.987701 429.528351 368.987701 439.974548 C 368.629608 443.456726 369.831207 446.918793 372.269592 449.430359 C 374.707977 451.941895 378.133057 453.2453 381.624268 452.990234 C 386.95639 452.939667 391.821655 449.939423 394.260834 445.197693 C 391.77771 442.774475 390.277588 439.519196 390.048645 436.05722 C 390.048645 430.834106 393.460541 422.999451 406.476196 422.999451 C 419.491821 422.999451 430.485657 430.834106 430.485657 450.378662 L 430.485657 455.138458 C 422.061279 460.277313 386.426147 477.673676 386.426147 477.673676 C 375.095398 483.023132 365.365234 490.857819 365.365234 506.485046 C 365.643494 515.697998 370.835144 524.05603 378.970612 528.388428 L 345.820679 528.388428 C 340.471191 526.156006 338.786316 521.859497 338.786316 512.339966 L 338.786316 449.157135 C 338.786316 421.230316 325.09671 408.846466 299.570862 411.247437 C 287.65036 417.776337 262.082367 431.086853 262.082367 431.086853 L 262.335083 412.04776 L 258.75473 412.04776 C 248.790939 417.891022 237.76683 421.699371 226.320892 423.252197 L 226.320892 428.475281 C 239.378677 432.392639 241.990234 435.004181 241.990234 448.019836 L 241.990234 512.592712 C 241.990234 521.775269 240.431732 526.324463 235.629822 528.641113 L 206.397232 528.641113 L 217.391052 517.352478 L 215.453445 514.825195 C 212.198654 517.445923 208.173538 518.92572 203.996292 519.037354 C 199.784103 519.037354 195.571915 514.361816 195.571915 505.221375 L 195.571915 439.974548 C 195.571915 420.387909 181.755936 410.99472 162.211365 410.99472 L 136.938248 420.387909 C 125.186241 424.600098 113.981819 429.528351 113.981819 439.974548 C 113.608292 443.460297 114.804787 446.931549 117.24678 449.446808 C 119.688766 451.962067 123.123146 453.26059 126.618385 452.990234 C 131.942383 452.911774 136.794464 449.919647 139.254959 445.197693 C 136.771835 442.774475 135.271713 439.519196 135.04277 436.05722 C 135.04277 430.834106 138.412521 422.999451 151.470291 422.999451 C 164.528091 422.999451 175.437653 430.834106 175.437653 450.378662 L 175.437653 455.138458 C 167.013275 460.277313 131.378159 477.673676 131.378159 477.673676 C 120.089493 483.023132 110.317215 490.857819 110.317215 506.485046 C 110.578003 515.703186 115.774673 524.069336 123.922585 528.388428 L 75.356049 528.388428 C 75.945763 528.093567 76.661835 527.84082 77.209412 527.503906 L 95.069092 511.160553 L 94.85849 504.715912 C 83.627762 512.392456 70.298286 516.408936 56.696056 516.21521 C 33.234165 516.21521 15.163878 499.661316 14.574172 465.668945 C 14.026587 438.247559 26.410421 419.840302 48.271679 419.840302 C 62.256145 419.840302 73.88179 425.821625 73.88179 435.299042 C 73.88179 441.027588 70.427788 444.439484 66.510452 444.313141 C 66.894226 450.268829 72.009026 454.80069 77.967613 454.464478 C 81.908524 454.400391 85.655449 452.742859 88.353806 449.869873 C 91.052155 446.996948 92.471832 443.153595 92.289047 439.21637 C 91.952072 424.094604 76.029999 411.542267 49.282604 411.542267 C 31.562012 411.501495 14.811111 419.628326 3.875213 433.572052 L 3.875213 381.593658 L 39.089108 381.593658 L 39.089108 375.064758 C 25.27313 373.758972 22.240356 371.1474 22.240356 356.825958 L 22.240356 291.410675 C 28.769247 286.187561 41.068836 277.047119 52.778721 277.047119 C 71.059624 277.047119 75.777267 288.799103 75.777267 307.080017 L 75.777267 356.825958 C 75.777267 371.1474 72.618126 373.674713 58.928516 375.064758 L 58.928516 381.593658 L 112.928772 381.593658 L 112.928772 375.064758 C 99.112801 373.758972 96.080017 371.1474 96.080017 356.825958 L 96.080017 302.067505 C 96.080017 296.844391 95.785164 291.621307 95.785164 291.621307 C 102.314064 286.398163 114.824257 277.257721 126.576263 277.257721 C 144.857162 277.257721 149.532684 289.009735 149.532684 307.290619 L 149.532684 356.825958 C 149.532684 371.1474 146.415665 373.674713 132.683945 375.064758 L 132.683945 381.593658 L 188.32695 381.593658 L 188.32695 375.064758 C 173.710663 373.758972 170.046051 371.1474 170.046051 356.825958 L 170.046051 299.413849 C 170.046051 270.897339 153.407898 258.850464 130.030258 261.293518 C 118.784714 269.587158 106.976151 277.088898 94.689995 283.744507 C 89.340515 264.621155 75.566666 258.471375 56.7803 261.293518 C 45.625492 268.998016 34.0214 276.030792 22.029745 282.354462 L 22.029745 262.009613 L 17.817558 262.009613 C 13.841202 265.677277 9.06888 268.373444 3.875213 269.886383 L 3.875213 231.976685 L 50.546261 231.976685 L 50.546261 225.11084 C 37.488476 223.552307 33.697506 222.499268 29.485319 218.624084 C 25.27313 214.74884 25.27313 209.483643 25.27313 196.425842 L 25.27313 172.079407 L 53.958138 172.079407 C 66.720764 172.391663 79.191399 168.234802 89.214157 160.327332 C 101.278328 150.438782 108.025909 135.478821 107.452927 119.890381 C 107.677505 106.107178 100.784538 93.180908 89.214157 85.687378 M 253.994965 261.293518 C 224.509644 261.293518 197.088303 283.87085 197.088303 324.223633 C 197.088303 356.236267 217.643768 384.710663 253.826477 384.710663 C 260.282013 384.71521 266.681702 383.515289 272.697083 381.172394 C 288.534912 370.136505 298.728394 363.312744 298.728394 363.312744 L 298.728394 356.699585 C 287.529205 363.613831 274.516632 367.017334 261.366302 366.471863 C 234.998001 366.471863 222.529922 343.768188 221.055649 328.562164 L 298.728394 312.977081 C 301.550568 272.961304 277.66745 261.251434 253.994965 261.251434 M 352.391693 288.125183 L 352.64444 261.925354 L 348.011017 261.925354 C 338.585876 268.093079 327.830292 271.93335 316.630188 273.129791 L 316.630188 278.352905 C 329.687988 282.270233 332.299561 284.881775 332.299561 297.939575 L 332.299561 356.825958 C 332.299561 371.1474 328.677063 374.306549 314.313507 375.064758 L 314.313507 381.593658 L 374.589935 381.593658 L 374.589935 375.064758 C 355.003235 373.758972 352.64444 371.1474 352.64444 356.825958 L 352.64444 299.835052 C 357.362061 292.000366 366.207672 277.678955 373.705353 277.678955 C 374.684113 277.546326 375.672791 277.839081 376.42157 278.483185 C 377.170349 279.127289 377.607544 280.061157 377.622711 281.048706 C 377.580719 282.336609 377.018402 283.55249 376.064178 284.418427 C 377.781464 288.973602 382.458893 291.699188 387.268616 290.947327 C 394.678925 290.175262 400.212189 283.775146 399.905182 276.331024 C 399.979218 272.18573 398.294373 268.202942 395.268005 265.369202 C 392.241577 262.535461 388.156708 261.115875 384.025208 261.462006 C 378.937988 261.785583 374.117889 263.853485 370.377747 267.316956 C 361.447876 278.647766 352.686554 288.377899 352.686554 288.377899 M 222.445679 231.892456 L 277.498962 231.892456 L 277.498962 225.405701 C 263.93573 223.847168 260.650238 221.488342 260.650238 207.124817 L 260.650238 140.614319 C 267.179108 135.391235 280.742371 127.556519 291.146484 127.556519 C 310.733124 127.556519 316.756561 139.308594 316.756561 157.547363 L 316.756561 207.166931 C 316.756561 221.530457 313.597412 224.015656 299.907806 225.447815 L 299.907806 231.934601 L 355.508728 231.934601 L 355.508728 225.405701 C 340.892426 224.015656 337.269928 221.488342 337.269928 207.166931 L 337.269928 149.712708 C 337.269928 121.785889 323.580322 109.402039 298.054474 111.802979 C 286.133972 118.163391 260.523865 131.347534 260.523865 131.347534 L 260.818695 112.266357 L 257.238342 112.266357 C 247.285339 118.140747 236.257645 121.964661 224.804489 123.512878 L 224.804489 128.735962 C 237.862289 132.65332 240.431732 135.264832 240.431732 148.280518 L 240.431732 207.166931 C 240.431732 221.530457 236.809235 224.647491 222.445679 225.447815 Z M 175.690384 155.69397 C 167.266006 160.917053 131.757263 178.524048 131.757263 178.524048 C 120.46859 183.915649 110.69632 191.792419 110.69632 207.461731 C 110.69632 223.131104 125.986557 235.262207 147.76358 235.135834 C 158.177795 229.254333 167.754883 222.000671 176.237961 213.569458 C 176.237961 226.627228 182.893219 234.925232 193.086716 234.883118 C 196.982758 234.720184 200.782364 233.622192 204.16478 231.681854 L 217.896515 217.444641 L 215.958908 214.917358 C 212.729828 217.622681 208.708588 219.204529 204.501755 219.424377 C 200.036835 219.424377 196.077377 214.74884 196.077377 205.650513 L 195.698273 140.403748 C 195.698273 120.817078 181.713806 111.508118 162.000763 111.63446 L 136.727631 121.154053 C 125.017754 125.661072 113.855461 130.462952 113.897583 140.867065 C 113.537514 144.345886 114.740021 147.805115 117.180328 150.310486 C 119.620628 152.815918 123.047028 154.109009 126.534149 153.840637 C 131.893982 153.765686 136.766129 150.712463 139.170715 145.921692 C 136.696457 143.526733 135.196045 140.300842 134.958527 136.865479 C 134.958527 131.642395 138.286148 123.765625 151.343933 123.723511 C 164.401718 123.681335 175.353409 131.389648 175.479767 150.976318 Z M 386.510437 203.375916 C 386.847382 212.432129 395.987854 221.067139 407.571381 221.025024 C 416.416962 221.025024 430.190796 205.734802 430.190796 205.734802 L 429.93808 164.034119 C 427.031647 165.887451 401.758514 179.071655 401.758514 179.071655 C 388.026825 186.527161 386.047089 196.341614 386.341919 203.375916 M 153.365784 221.025024 C 162.211365 221.025024 175.943115 205.734802 175.943115 205.734802 L 175.732513 164.034119 C 172.699722 165.887451 147.42659 179.071655 147.42659 179.071655 C 133.694855 186.527161 131.757263 196.341614 132.009995 203.375916 C 132.389084 212.432129 141.529526 221.067139 153.070923 221.025024 M 254.96376 269.591553 C 233.31311 269.591553 219.623505 288.883362 220.171097 320.853851 L 276.361694 309.565186 C 280.573883 280.079926 266.673645 269.591553 254.96376 269.591553 M 430.61203 513.013916 C 424.829193 518.782776 418.462708 523.935242 411.615051 528.388428 L 435.076965 528.388428 C 431.93634 523.89502 430.366852 518.490601 430.61203 513.013916 M 27.968931 85.687378 C 25.862837 87.540771 25.357374 90.657776 25.357374 97.186707 L 25.357374 163.697144 L 51.178089 163.697144 C 67.605621 163.697144 81.969185 149.881165 81.969185 122.501953 C 81.969185 101.440979 71.775696 90.026001 55.390278 85.687378 L 27.968931 85.687378 M 3.875213 512.255737 L 3.875213 528.388428 L 23.082792 528.388428 C 15.498354 524.599731 8.916889 519.071838 3.875213 512.255737 M 175.521881 513.013916 C 169.739044 518.782776 163.372559 523.935242 156.524918 528.388428 L 179.986816 528.388428 C 176.846222 523.89502 175.276718 518.490601 175.521881 513.013916 M 318.441437 512.339966 L 318.441437 456.907562 C 318.441437 438.668793 312.417999 426.916779 292.831329 426.916779 C 282.427246 426.916779 268.864014 434.751434 262.335083 439.974548 L 262.335083 512.339966 C 262.335083 522.028015 263.851471 526.198059 268.948242 528.388428 L 312.081024 528.388428 C 316.967194 526.156006 318.441437 521.859497 318.441437 512.339966 M 175.227036 505.17926 L 175.227036 463.436432 C 172.320633 465.289825 146.963257 478.347595 146.963257 478.347595 C 133.147278 485.761047 131.167542 495.533325 131.420288 502.567688 C 131.715134 511.623901 140.813461 520.34314 152.481232 520.34314 C 161.326813 520.34314 175.142807 505.17926 175.142807 505.17926"/>
    </g>
    <text id="SMART" xml:space="preserve" x="505" y="536" font-family="Laurentian Std" font-size="96" fill="#000000">SMART</text>
</svg>
