<svg width="826" height="516" viewBox="0 0 826 516" xmlns="http://www.w3.org/2000/svg" xmlns:xlink="http://www.w3.org/1999/xlink">
    <g id="talent-center">
        <g id="Capa1-2">
            <path id="Trazado" fill="#bf9650" stroke="none" d="M 37.909695 4.618469 C 37.151501 5.545135 37.025135 6.93512 37.025135 9.799438 L 37.025135 24.626343 C 37.097118 27.851196 36.583332 31.062317 35.508751 34.10379 C 34.666309 36.378326 32.054756 42.528168 20.934576 42.528168 C 9.814399 42.528168 7.202842 36.167694 6.402526 34.10379 C 5.411287 31.018677 4.99719 27.777283 5.180992 24.542084 L 5.180992 9.715179 C 5.180992 6.850922 5.180992 5.502991 4.25431 4.53421 C 3.087012 3.49939 1.557276 2.96936 0 3.059875 L 0 1.248718 C 2.948532 1.248718 5.728576 1.501404 8.677108 1.501404 C 11.62564 1.501404 14.616294 1.248718 17.649071 1.248718 L 17.649071 3.059875 C 16.130463 3.001953 14.639704 3.478943 13.436881 4.407837 C 12.594443 5.334534 12.425956 6.682404 12.425956 9.63092 L 12.425956 23.615417 C 12.162114 26.732758 12.534714 29.871216 13.521125 32.840118 C 15.207318 36.337067 18.934883 38.370331 22.787939 37.894714 C 26.623919 38.338135 30.321943 36.311798 32.01263 32.840118 C 33.041798 29.880005 33.45742 26.741302 33.234165 23.615417 L 33.234165 9.63092 C 33.234165 6.682404 33.234165 5.418732 32.265362 4.407837 C 31.29656 3.396912 30.285635 3.228455 28.053175 3.059875 L 28.053175 1.248718 C 30.58049 1.248718 32.518093 1.501404 35.045406 1.501404 C 37.572723 1.501404 39.257595 1.248718 41.869152 1.248718 L 41.869152 3.059875 C 39.763058 3.059875 38.457283 3.56543 37.656963 4.449921"/>
            <path id="path1" fill="#bf9650" stroke="none" d="M 87.824135 4.618469 C 86.981689 5.460876 86.897446 6.893005 86.855331 9.715179 L 86.602592 30.986725 C 86.602592 36.083496 86.981689 41.727814 86.981689 41.727814 L 83.69619 42.822968 C 81.77285 40.695099 79.97271 38.458984 78.304588 36.12561 L 58.423054 8.57785 L 58.970638 33.05072 C 58.970638 35.872894 59.181248 37.262909 60.107933 38.14743 C 61.034611 39.032043 62.171902 39.242645 64.783463 39.495361 L 64.783463 41.390839 C 61.834927 41.390839 60.023685 41.095947 57.159397 41.095947 C 54.295113 41.095947 52.947208 41.390839 49.872311 41.390839 L 49.872311 39.579559 C 52.231136 39.242645 53.452671 38.947754 54.295113 38.063171 C 55.137547 37.17865 55.179672 35.872894 55.179672 33.092834 L 55.474522 8.156677 C 55.538963 6.82431 55.015408 5.530823 54.042377 4.618469 C 52.85181 3.637451 51.37178 3.075073 49.830189 3.017822 L 49.830189 1.248718 C 51.894161 1.248718 53.494793 1.501404 55.643009 1.501404 C 57.791225 1.501404 61.877048 1.248718 61.877048 1.248718 C 62.766125 2.865845 63.795017 4.402191 64.95195 5.839966 L 83.401329 31.113098 L 83.106476 9.462463 C 83.106476 6.640289 82.853745 5.250275 81.884949 4.281464 C 80.536407 3.437622 78.967979 3.012512 77.377907 3.059875 L 77.377907 1.248718 C 80.200073 1.248718 82.011307 1.501404 84.707115 1.501404 C 87.402908 1.501404 89.256279 1.248718 92.078445 1.248718 L 92.078445 3.059875 C 90.565063 3.038574 89.086098 3.511902 87.866257 4.407837"/>
            <path id="path2" fill="#bf9650" stroke="none" d="M 109.516899 41.095947 C 106.526253 41.095947 103.367111 41.390839 100.418571 41.390839 L 100.418571 39.537476 C 103.07225 39.2005 104.125298 38.947754 104.967735 38.021088 C 105.810181 37.094391 105.978661 35.578003 105.978661 32.713745 L 105.978661 9.883698 C 105.978661 7.019379 105.978661 5.671509 105.051987 4.576294 C 104.125298 3.48114 102.819519 3.228455 100.839798 3.059875 L 100.839798 1.248718 C 103.830444 1.248718 106.652611 1.501404 109.516899 1.501404 C 112.381187 1.501404 115.498207 1.248718 118.446747 1.248718 L 118.446747 3.059875 C 116.908859 3.014709 115.408585 3.539856 114.234558 4.53421 C 113.434235 5.502991 113.392113 7.019379 113.392113 9.841522 L 113.392113 32.840118 C 113.392113 35.746521 113.392113 37.052307 114.318794 37.978973 C 115.659515 39.001434 117.308723 39.536316 118.994324 39.495361 L 118.994324 41.390839 C 116.045792 41.390839 112.844536 41.095947 109.811752 41.095947"/>
            <path id="path3" fill="#bf9650" stroke="none" d="M 161.916519 5.502991 C 161.255737 6.772949 160.7061 8.097687 160.273773 9.462463 L 151.638779 33.766785 C 150.755417 36.075409 150.023758 38.43924 149.448441 40.843231 C 148.521759 41.053864 144.899292 41.643555 143.088043 42.149017 C 142.422058 39.290985 141.577972 36.477386 140.56073 33.72464 L 131.504517 7.735443 C 131.128235 6.561096 130.478592 5.492828 129.609039 4.618469 C 128.686829 3.818054 127.566757 3.279846 126.365654 3.059875 L 126.365654 1.248718 C 129.314194 1.248718 131.504517 1.501404 134.537308 1.501404 C 137.570068 1.501404 140.644974 1.248718 143.509262 1.248718 L 143.509262 3.059875 C 140.307999 3.439026 139.002213 4.155121 139.002213 5.839966 C 139.156418 7.585236 139.597595 9.29303 140.307999 10.894592 L 148.184799 35.198914 L 156.187958 10.894592 C 156.797699 9.325928 157.194366 7.682526 157.367371 6.008484 C 157.367371 4.449921 156.39856 3.439026 152.818192 3.059875 L 152.818192 1.248718 C 155.513992 1.248718 157.03038 1.501404 159.936798 1.501404 C 162.843201 1.501404 163.475037 1.248718 166.170837 1.248718 L 166.170837 3.059875 C 164.480408 3.229492 162.945236 4.119904 161.958649 5.502991"/>
            <path id="path4" fill="#bf9650" stroke="none" d="M 203.617188 41.390839 C 196.203751 41.390839 184.409607 41.095947 181.376846 41.095947 C 178.344055 41.095947 175.100677 41.390839 172.278519 41.390839 L 172.278519 39.537476 C 174.721573 39.2005 175.943115 38.947754 176.827667 38.021088 C 177.712219 37.094391 177.796478 35.578003 177.796478 32.797943 L 177.796478 9.883698 C 177.796478 7.061523 177.796478 5.671509 176.869797 4.576294 C 175.943115 3.48114 174.595215 3.228455 172.657608 3.059875 L 172.657608 1.248718 C 175.606125 1.248718 178.428314 1.501404 181.418961 1.501404 C 186.894806 1.501404 203.11174 1.206543 203.11174 1.206543 L 203.11174 10.768219 L 201.258362 10.768219 C 199.278641 4.955444 198.562561 3.986572 194.350372 3.986572 L 186.97905 3.986572 C 185.125687 3.986572 184.957199 4.407837 184.957199 6.176941 L 184.957199 19.445313 L 190.685776 19.445313 C 192.960358 19.445313 194.181885 19.150482 194.897964 18.2659 C 195.826782 17.058228 196.330292 15.577301 196.330109 14.053711 L 198.225601 14.053711 C 198.225601 16.623169 197.93074 18.602905 197.93074 21.088074 C 197.93074 23.573303 198.225601 25.55304 198.225601 28.206665 L 196.330109 28.206665 C 196.354492 26.575745 195.852249 24.980377 194.897964 23.657501 C 194.139771 22.77298 192.876114 22.562347 190.685776 22.478088 L 184.957199 22.478088 L 184.957199 35.114655 C 184.957199 37.894714 185.589035 38.610779 188.453323 38.610779 L 195.403427 38.610779 C 199.278641 38.610779 201.76384 35.493805 204.206894 30.186401 L 206.228745 30.860382 Z"/>
            <path id="path5" fill="#bf9650" stroke="none" d="M 246.244537 41.095947 C 244.517532 41.095947 240.852936 41.390839 240.852936 41.390839 L 232.765533 25.258148 C 231.965225 23.615417 231.544006 22.646606 229.90126 22.562347 L 226.784225 22.562347 L 226.784225 32.713745 C 226.784225 35.578003 226.784225 36.925934 227.668777 37.978973 C 228.553345 39.032043 229.522156 39.2005 231.880966 39.495361 L 231.880966 41.390839 C 228.974564 41.390839 226.236633 41.095947 223.203873 41.095947 C 220.171097 41.095947 217.054062 41.390839 214.105545 41.390839 L 214.105545 39.579559 C 216.548615 39.242645 217.812256 38.947754 218.654709 38.021088 C 219.497147 37.094391 219.623505 35.620178 219.623505 32.713745 L 219.623505 9.883698 C 219.623505 6.93512 219.623505 5.671509 218.738953 4.576294 C 217.591202 3.532837 216.076263 2.987488 214.526764 3.059875 L 214.526764 1.248718 C 217.475296 1.248718 220.002609 1.501404 222.951141 1.501404 C 225.899673 1.501404 229.058807 1.206543 231.965225 1.206543 C 234.407898 1.156555 236.841934 1.512329 239.16806 2.259583 C 243.081909 3.197876 245.868942 6.660034 245.949677 10.68396 C 245.949677 16.875885 239.54715 20.203552 235.924667 21.003876 C 238.451996 21.340851 240.136856 23.531158 241.526886 26.353302 L 246.07605 35.367371 C 246.68985 36.563812 247.60437 37.579926 248.729721 38.315979 C 249.658493 38.95459 250.727875 39.359192 251.846756 39.495361 L 251.846756 41.390839 C 250.203995 41.390839 247.929413 41.095947 246.244537 41.095947 M 229.395782 3.48114 L 227.963638 3.48114 C 227.373932 3.48114 226.868469 3.860229 226.868469 4.786926 L 226.868469 20.414154 L 229.522156 20.414154 C 231.87114 20.523956 234.151596 19.605865 235.769302 17.89917 C 237.387039 16.192474 238.181793 13.86618 237.946533 11.526459 C 238.080292 9.240265 237.185013 7.014038 235.505707 5.457031 C 233.826401 3.900024 231.538956 3.175293 229.269424 3.48114"/>
            <path id="path6" fill="#bf9650" stroke="none" d="M 279.436554 38.863495 C 276.766083 41.151672 273.348969 42.380707 269.832794 42.317535 C 265.843048 42.510803 261.933411 41.152191 258.923218 38.52652 L 258.165039 28.796387 L 260.48175 28.459381 C 262.377228 37.347107 266.673645 39.453217 269.622192 39.453217 C 271.476166 39.514862 273.283875 38.867096 274.676819 37.641998 C 275.831085 36.4039 276.490631 34.785065 276.530182 33.092834 C 276.614044 31.459015 276.187134 29.839539 275.308655 28.459381 C 274.278046 27.067047 272.955414 25.916901 271.433441 25.089691 L 265.957581 21.888397 C 264.15451 20.922302 262.530365 19.654327 261.155701 18.139557 C 259.491486 16.165588 258.620728 13.643341 258.712616 11.06311 C 258.670593 7.667816 260.371857 4.487915 263.219666 2.638733 C 265.922394 0.983154 269.07077 0.203491 272.233734 0.40625 C 275.624023 0.345276 278.959503 1.266907 281.837555 3.059875 L 281.500549 11.484283 L 279.562958 11.779175 C 278.636261 4.618469 274.634674 3.059875 271.686157 3.059875 C 268.531006 2.811646 265.742432 5.098267 265.367889 8.240936 C 265.207428 9.946869 265.671417 11.653076 266.673645 13.042847 C 267.716339 14.125885 268.924957 15.035858 270.254028 15.738647 L 275.898346 19.108337 C 277.982819 20.246918 279.82782 21.777344 281.332062 23.615417 C 282.716919 25.552399 283.427277 27.890656 283.353912 30.27066 C 283.375214 33.607788 281.945709 36.789612 279.436554 38.989868"/>
            <path id="path7" fill="#bf9650" stroke="none" d="M 303.277557 41.095947 C 300.244781 41.095947 297.085663 41.390839 294.137115 41.390839 L 294.137115 39.537476 C 296.790802 39.2005 297.843842 38.947754 298.68631 38.021088 C 299.528717 37.094391 299.697205 35.578003 299.697205 32.713745 L 299.697205 9.883698 C 299.697205 7.019379 299.697205 5.671509 298.770538 4.576294 C 297.843842 3.48114 296.538086 3.228455 294.55835 3.059875 L 294.55835 1.248718 C 297.506866 1.248718 300.329041 1.501404 302.982727 1.501404 C 305.636383 1.501404 308.837646 1.248718 311.701935 1.248718 L 311.701935 3.059875 C 310.151611 3.029846 308.647125 3.586487 307.489746 4.618469 C 306.689423 5.58725 306.605194 7.103638 306.605194 9.925781 L 306.605194 32.840118 C 306.605194 35.746521 306.605194 37.052307 307.531891 37.978973 C 308.872589 39.001434 310.52179 39.536316 312.207428 39.495361 L 312.207428 41.390839 C 309.258881 41.390839 306.057617 41.095947 303.066956 41.095947"/>
            <path id="path8" fill="#bf9650" stroke="none" d="M 353.823822 37.684113 C 349.64975 40.285858 344.797516 41.590607 339.8815 41.432953 C 335.669312 41.432953 333.689575 41.095947 330.698914 41.095947 C 327.708282 41.095947 324.591248 41.432953 321.600586 41.432953 L 321.600586 39.537476 C 324.212158 39.2005 325.265198 38.863495 326.14975 37.978973 C 327.034302 37.094391 327.118561 35.704376 327.118561 32.713745 L 327.118561 9.883698 C 327.118561 6.977264 327.118561 5.671509 326.191895 4.576294 C 325.04657 3.528748 323.529907 2.982788 321.979706 3.059875 L 321.979706 1.248718 C 325.012482 1.248718 327.750366 1.501404 330.783142 1.501404 C 333.815948 1.501404 336.13266 1.248718 339.965729 1.248718 C 344.177765 1.090454 348.362457 1.98822 352.138947 3.860229 C 358.385437 7.30481 362.175842 13.958282 361.953369 21.088074 C 362.224762 27.709198 359.033936 33.995148 353.528992 37.684113 M 347.968903 6.640289 C 345.055756 4.453217 341.45108 3.391296 337.817505 3.649597 L 336.975067 3.649597 C 334.826843 3.649597 334.40564 4.112946 334.40564 6.429657 L 334.40564 35.578003 C 334.40564 37.852631 335.248077 38.737152 337.606903 38.737152 L 338.828461 38.737152 C 342.501068 38.944183 346.106018 37.686981 348.853455 35.241028 C 352.314697 31.254883 354.056366 26.060211 353.697479 20.793243 C 354.209808 15.46701 352.161804 10.214111 348.179504 6.640289"/>
            <path id="path9" fill="#bf9650" stroke="none" d="M 397.504242 41.095947 C 394.555695 41.095947 391.480804 41.390839 388.532257 41.390839 L 388.532257 39.537476 C 391.607178 39.074127 393.123566 38.315979 393.123566 36.462585 C 392.986542 35.353485 392.717865 34.264709 392.323242 33.219177 L 390.301392 26.563934 L 377.32785 26.563934 L 374.884766 33.219177 C 374.538635 34.271454 374.312561 35.359528 374.210815 36.462585 C 374.210815 38.315979 375.390259 39.2005 378.759979 39.495361 L 378.759979 41.390839 C 376.232666 41.390839 374.295074 41.095947 371.767761 41.095947 C 369.240448 41.095947 368.145294 41.390839 365.617981 41.390839 L 365.617981 39.537476 C 367.154633 39.399353 368.561768 38.619324 369.493164 37.389282 C 370.254669 36.058441 370.862366 34.645264 371.304413 33.177094 L 380.529083 8.830658 C 381.405579 6.462311 382.137024 4.042908 382.719452 1.585693 C 382.719452 1.585693 387.521332 0.953796 389.121948 0.616821 C 389.840637 3.400757 390.712463 6.142883 391.733521 8.830658 L 400.789734 35.072571 C 401.148987 36.266876 401.800476 37.352722 402.685211 38.231689 C 403.602936 39.04892 404.750122 39.56369 405.970703 39.705994 L 405.970703 41.601471 C 403.064331 41.601471 400.663391 41.30658 397.546326 41.30658 M 383.983124 7.061523 L 378.296631 23.489044 L 389.290466 23.489044 Z"/>
            <path id="path10" fill="#bf9650" stroke="none" d="M 444.680725 37.684113 C 440.491577 40.286957 435.625641 41.59137 430.696259 41.432953 C 426.48407 41.432953 424.546478 41.095947 421.513702 41.095947 C 418.480927 41.095947 415.406036 41.432953 412.415375 41.432953 L 412.415375 39.537476 C 415.069061 39.2005 416.122101 38.863495 416.964539 37.978973 C 417.806976 37.094391 417.93335 35.704376 417.93335 32.713745 L 417.93335 9.883698 C 417.93335 6.977264 417.93335 5.671509 417.006653 4.576294 C 416.079987 3.48114 414.732086 3.228455 412.794464 3.059875 L 412.794464 1.248718 C 415.82724 1.248718 418.607269 1.501404 421.597931 1.501404 C 424.588623 1.501404 427.073792 1.248718 430.864777 1.248718 C 435.076782 1.090454 439.261505 1.98822 443.037994 3.860229 C 449.284485 7.30481 453.07486 13.958282 452.852386 21.088074 C 453.179626 27.660553 450.089691 33.936096 444.680725 37.684113 M 438.86792 6.640289 C 435.958252 4.44635 432.350922 3.383606 428.716553 3.649597 L 427.663483 3.649597 C 425.515259 3.649597 425.094055 4.112946 425.094055 6.429657 L 425.094055 35.578003 C 425.094055 37.852631 425.936523 38.737152 428.295319 38.737152 L 429.643219 38.737152 C 433.317169 38.953552 436.925598 37.69516 439.668213 35.241028 C 443.161102 31.270935 444.920532 26.068451 444.554382 20.793243 C 445.056274 15.459961 442.992126 10.205841 438.994293 6.640289"/>
            <path id="path11" fill="#bf9650" stroke="none" d="M 407.655609 507.34314 C 395.903595 507.34314 386.847382 498.623901 386.594666 489.567688 C 386.384064 482.533356 388.36377 472.718933 402.179779 465.347595 C 402.179779 465.347595 427.452911 452.289825 430.443542 450.436432 L 430.443542 492.17926 C 430.443542 492.17926 416.585449 507.34314 407.739868 507.34314 M 89.298401 72.687378 L 446.491974 72.687378 L 446.491974 112.661072 C 441.142517 103.225739 430.401428 98.550201 416.669678 98.63446 L 391.396545 108.154053 C 379.686676 112.661072 368.482269 117.462952 368.566498 127.867065 C 368.206421 131.345917 369.408936 134.805145 371.849243 137.310486 C 374.289551 139.815918 377.715942 141.109009 381.203064 140.840607 C 386.568512 140.784882 391.44986 137.725891 393.83963 132.921692 C 391.365387 130.526733 389.86496 127.300812 389.627441 123.865509 C 389.627441 118.642365 392.955078 110.765594 406.012848 110.723511 C 419.070618 110.681335 430.064423 118.389648 430.148712 137.976288 L 430.148712 142.694 C 421.724335 147.917053 386.215576 165.524048 386.215576 165.524048 C 374.92691 170.915649 365.154633 178.792419 365.154633 194.461761 C 365.154633 210.131104 380.487 222.262207 402.221863 222.135834 C 412.643158 216.265076 422.221619 209.010376 430.696259 200.569458 C 430.696259 213.206024 436.888184 221.209137 446.618347 221.630402 L 446.618347 248.925354 L 443.627686 248.925354 C 434.302582 255.634094 423.25354 259.536316 411.783569 260.171875 L 411.783569 265.352905 C 424.841339 269.270233 427.410767 271.881775 427.410767 284.939575 L 427.410767 343.825958 C 427.410767 358.1474 423.7883 361.306549 409.424713 362.064758 L 409.424713 368.593628 L 446.491974 368.593628 L 446.491974 411.389465 C 441.058258 402.459625 430.527771 397.99469 417.259369 397.99469 L 391.986237 407.387909 C 380.234253 411.600098 368.987701 416.528351 368.987701 426.974548 C 368.629608 430.456726 369.831207 433.918793 372.269592 436.430359 C 374.707977 438.941895 378.133057 440.2453 381.624268 439.990234 C 386.95639 439.939697 391.821655 436.939423 394.260834 432.197693 C 391.77771 429.774475 390.277588 426.519226 390.048645 423.05722 C 390.048645 417.834106 393.460541 409.999451 406.476196 409.999451 C 419.491821 409.999451 430.485657 417.834106 430.485657 437.378662 L 430.485657 442.138458 C 422.061279 447.277283 386.426147 464.673676 386.426147 464.673676 C 375.095398 470.023132 365.365234 477.857819 365.365234 493.485016 C 365.643494 502.697968 370.835144 511.056061 378.970612 515.388428 L 345.820679 515.388428 C 340.471191 513.155945 338.786316 508.859528 338.786316 499.339966 L 338.786316 436.157104 C 338.786316 408.230316 325.09671 395.846497 299.570862 398.247437 C 287.65036 404.776337 262.082367 418.086853 262.082367 418.086853 L 262.335083 399.04776 L 258.75473 399.04776 C 248.790939 404.891022 237.76683 408.699341 226.320892 410.252197 L 226.320892 415.475281 C 239.378677 419.392639 241.990234 422.00415 241.990234 435.019836 L 241.990234 499.592712 C 241.990234 508.775299 240.431732 513.324402 235.629822 515.641174 L 206.397232 515.641174 L 217.391052 504.352478 L 215.453445 501.825165 C 212.198654 504.445892 208.173538 505.92572 203.996292 506.037354 C 199.784103 506.037354 195.571915 501.361816 195.571915 492.221375 L 195.571915 426.974548 C 195.571915 407.387909 181.755936 397.99469 162.211365 397.99469 L 136.938248 407.387909 C 125.186241 411.600098 113.981819 416.528351 113.981819 426.974548 C 113.608292 430.460297 114.804787 433.931549 117.24678 436.446808 C 119.688766 438.962067 123.123146 440.26059 126.618385 439.990234 C 131.942383 439.911774 136.794464 436.919647 139.254959 432.197693 C 136.771835 429.774475 135.271713 426.519226 135.04277 423.05722 C 135.04277 417.834106 138.412521 409.999451 151.470291 409.999451 C 164.528091 409.999451 175.437653 417.834106 175.437653 437.378662 L 175.437653 442.138458 C 167.013275 447.277283 131.378159 464.673676 131.378159 464.673676 C 120.089493 470.023132 110.317215 477.857819 110.317215 493.485016 C 110.578003 502.703217 115.774673 511.069366 123.922585 515.388428 L 75.356049 515.388428 C 75.945763 515.093567 76.661835 514.84082 77.209412 514.503845 L 95.069092 498.160553 L 94.85849 491.715912 C 83.627762 499.392456 70.298286 503.408966 56.696056 503.21521 C 33.234165 503.21521 15.163878 486.661316 14.574172 452.668945 C 14.026587 425.247559 26.410421 406.840302 48.271679 406.840302 C 62.256145 406.840302 73.88179 412.821625 73.88179 422.299042 C 73.88179 428.027588 70.427788 431.439484 66.510452 431.313141 C 66.894226 437.268829 72.009026 441.80072 77.967613 441.464478 C 81.908524 441.400391 85.655449 439.742859 88.353806 436.869873 C 91.052155 433.996948 92.471832 430.153595 92.289047 426.21637 C 91.952072 411.094604 76.029999 398.542297 49.282604 398.542297 C 31.562012 398.501495 14.811111 406.628326 3.875213 420.572021 L 3.875213 368.593628 L 39.089108 368.593628 L 39.089108 362.064758 C 25.27313 360.758972 22.240356 358.1474 22.240356 343.825958 L 22.240356 278.410675 C 28.769247 273.187561 41.068836 264.047119 52.778721 264.047119 C 71.059624 264.047119 75.777267 275.799103 75.777267 294.080017 L 75.777267 343.825958 C 75.777267 358.1474 72.618126 360.674713 58.928516 362.064758 L 58.928516 368.593628 L 112.928772 368.593628 L 112.928772 362.064758 C 99.112801 360.758972 96.080017 358.1474 96.080017 343.825958 L 96.080017 289.067505 C 96.080017 283.844421 95.785164 278.621277 95.785164 278.621277 C 102.314064 273.398163 114.824257 264.257721 126.576263 264.257721 C 144.857162 264.257721 149.532684 276.009735 149.532684 294.290619 L 149.532684 343.825958 C 149.532684 358.1474 146.415665 360.674713 132.683945 362.064758 L 132.683945 368.593628 L 188.32695 368.593628 L 188.32695 362.064758 C 173.710663 360.758972 170.046051 358.1474 170.046051 343.825958 L 170.046051 286.413849 C 170.046051 257.897339 153.407898 245.850464 130.030258 248.293518 C 118.784714 256.587158 106.976151 264.088928 94.689995 270.744507 C 89.340515 251.621155 75.566666 245.471375 56.7803 248.293518 C 45.625492 255.998016 34.0214 263.030762 22.029745 269.354462 L 22.029745 249.009613 L 17.817558 249.009613 C 13.841202 252.677277 9.06888 255.373444 3.875213 256.886383 L 3.875213 218.976685 L 50.546261 218.976685 L 50.546261 212.11084 C 37.488476 210.552307 33.697506 209.499268 29.485319 205.624054 C 25.27313 201.748871 25.27313 196.483612 25.27313 183.425842 L 25.27313 159.079407 L 53.958138 159.079407 C 66.720764 159.391632 79.191399 155.234802 89.214157 147.327362 C 101.278328 137.438782 108.025909 122.478821 107.452927 106.890381 C 107.677505 93.107208 100.784538 80.180878 89.214157 72.687378 M 253.994965 248.293518 C 224.509644 248.293518 197.088303 270.87085 197.088303 311.223633 C 197.088303 343.236267 217.643768 371.710663 253.826477 371.710663 C 260.282013 371.71521 266.681702 370.515259 272.697083 368.172424 C 288.534912 357.136475 298.728394 350.312744 298.728394 350.312744 L 298.728394 343.699585 C 287.529205 350.613831 274.516632 354.017334 261.366302 353.471863 C 234.998001 353.471863 222.529922 330.768188 221.055649 315.562195 L 298.728394 299.977112 C 301.550568 259.961304 277.66745 248.251434 253.994965 248.251434 M 352.391693 275.125183 L 352.64444 248.925354 L 348.011017 248.925354 C 338.585876 255.093079 327.830292 258.93335 316.630188 260.129791 L 316.630188 265.352905 C 329.687988 269.270233 332.299561 271.881775 332.299561 284.939575 L 332.299561 343.825958 C 332.299561 358.1474 328.677063 361.306549 314.313507 362.064758 L 314.313507 368.593628 L 374.589935 368.593628 L 374.589935 362.064758 C 355.003235 360.758972 352.64444 358.1474 352.64444 343.825958 L 352.64444 286.835052 C 357.362061 279.000366 366.207672 264.678955 373.705353 264.678955 C 374.684113 264.546326 375.672791 264.83905 376.42157 265.483185 C 377.170349 266.127289 377.607544 267.061157 377.622711 268.048706 C 377.580719 269.336609 377.018402 270.55249 376.064178 271.418427 C 377.781464 275.973602 382.458893 278.699219 387.268616 277.947327 C 394.678925 277.175262 400.212189 270.775146 399.905182 263.331055 C 399.979218 259.18573 398.294373 255.202942 395.268005 252.369202 C 392.241577 249.535461 388.156708 248.115875 384.025208 248.462006 C 378.937988 248.785583 374.117889 250.853485 370.377747 254.316956 C 361.447876 265.647766 352.686554 275.377899 352.686554 275.377899 M 222.445679 218.892456 L 277.498962 218.892456 L 277.498962 212.405701 C 263.93573 210.847168 260.650238 208.488342 260.650238 194.124817 L 260.650238 127.614349 C 267.179108 122.391205 280.742371 114.556549 291.146484 114.556549 C 310.733124 114.556549 316.756561 126.308594 316.756561 144.547363 L 316.756561 194.166901 C 316.756561 208.530487 313.597412 211.015656 299.907806 212.447815 L 299.907806 218.934601 L 355.508728 218.934601 L 355.508728 212.405701 C 340.892426 211.015656 337.269928 208.488342 337.269928 194.166901 L 337.269928 136.712677 C 337.269928 108.785858 323.580322 96.402008 298.054474 98.803009 C 286.133972 105.163391 260.523865 118.347534 260.523865 118.347534 L 260.818695 99.266327 L 257.238342 99.266327 C 247.285339 105.140747 236.257645 108.964661 224.804489 110.512878 L 224.804489 115.735931 C 237.862289 119.65332 240.431732 122.264862 240.431732 135.280487 L 240.431732 194.166901 C 240.431732 208.530487 236.809235 211.647491 222.445679 212.447815 Z M 175.690384 142.694 C 167.266006 147.917053 131.757263 165.524048 131.757263 165.524048 C 120.46859 170.915649 110.69632 178.792419 110.69632 194.461761 C 110.69632 210.131104 125.986557 222.262207 147.76358 222.135834 C 158.177795 216.254333 167.754883 209.000671 176.237961 200.569458 C 176.237961 213.627228 182.893219 221.925232 193.086716 221.883118 C 196.982758 221.720184 200.782364 220.622192 204.16478 218.681854 L 217.896515 204.444672 L 215.958908 201.917358 C 212.729828 204.62265 208.708588 206.204559 204.501755 206.424377 C 200.036835 206.424377 196.077377 201.748871 196.077377 192.650513 L 195.698273 127.403717 C 195.698273 107.817078 181.713806 98.508118 162.000763 98.63446 L 136.727631 108.154053 C 125.017754 112.661072 113.855461 117.462952 113.897583 127.867065 C 113.537514 131.345917 114.740021 134.805145 117.180328 137.310486 C 119.620628 139.815918 123.047028 141.109009 126.534149 140.840607 C 131.893982 140.765686 136.766129 137.712463 139.170715 132.921692 C 136.696457 130.526733 135.196045 127.300812 134.958527 123.865509 C 134.958527 118.642365 138.286148 110.765594 151.343933 110.723511 C 164.401718 110.681335 175.353409 118.389648 175.479767 137.976288 Z M 386.510437 190.375946 C 386.847382 199.432129 395.987854 208.067139 407.571381 208.025024 C 416.416962 208.025024 430.190796 192.734772 430.190796 192.734772 L 429.93808 151.034119 C 427.031647 152.887482 401.758514 166.071655 401.758514 166.071655 C 388.026825 173.527191 386.047089 183.341583 386.341919 190.375946 M 153.365784 208.025024 C 162.211365 208.025024 175.943115 192.734772 175.943115 192.734772 L 175.732513 151.034119 C 172.699722 152.887482 147.42659 166.071655 147.42659 166.071655 C 133.694855 173.527191 131.757263 183.341583 132.009995 190.375946 C 132.389084 199.432129 141.529526 208.067139 153.070923 208.025024 M 254.96376 256.591553 C 233.31311 256.591553 219.623505 275.883362 220.171097 307.853882 L 276.361694 296.565186 C 280.573883 267.079895 266.673645 256.591553 254.96376 256.591553 M 430.61203 500.013947 C 424.829193 505.782776 418.462708 510.935242 411.615051 515.388428 L 435.076965 515.388428 C 431.93634 510.89502 430.366852 505.490601 430.61203 500.013947 M 27.968931 72.687378 C 25.862837 74.540741 25.357374 77.657776 25.357374 84.186707 L 25.357374 150.697113 L 51.178089 150.697113 C 67.605621 150.697113 81.969185 136.881165 81.969185 109.501923 C 81.969185 88.440979 71.775696 77.026001 55.390278 72.687378 L 27.968931 72.687378 M 3.875213 499.255737 L 3.875213 515.388428 L 23.082792 515.388428 C 15.498354 511.599701 8.916889 506.071838 3.875213 499.255737 M 175.521881 500.013947 C 169.739044 505.782776 163.372559 510.935242 156.524918 515.388428 L 179.986816 515.388428 C 176.846222 510.89502 175.276718 505.490601 175.521881 500.013947 M 318.441437 499.339966 L 318.441437 443.907562 C 318.441437 425.668793 312.417999 413.916779 292.831329 413.916779 C 282.427246 413.916779 268.864014 421.751465 262.335083 426.974548 L 262.335083 499.339966 C 262.335083 509.028015 263.851471 513.198059 268.948242 515.388428 L 312.081024 515.388428 C 316.967194 513.155945 318.441437 508.859528 318.441437 499.339966 M 175.227036 492.17926 L 175.227036 450.436432 C 172.320633 452.289825 146.963257 465.347595 146.963257 465.347595 C 133.147278 472.761078 131.167542 482.533356 131.420288 489.567688 C 131.715134 498.623901 140.813461 507.34314 152.481232 507.34314 C 161.326813 507.34314 175.142807 492.17926 175.142807 492.17926"/>
        </g>
    </g>
    <text id="SMART" xml:space="preserve" x="477" y="509" font-family="American Typewriter" font-size="96" fill="#000000">SMART</text>
</svg>
