<?xml version="1.0" encoding="UTF-8"?>
<!-- Generated by Pixelmator Pro 2.4.2 -->
<svg width="512" height="512" viewBox="0 0 512 512" xmlns="http://www.w3.org/2000/svg" xmlns:xlink="http://www.w3.org/1999/xlink">
    <path id="Trazado" fill="#fe73c6" stroke="none" d="M 384 0 L 384 128 L 512 128 L 384 0 Z M 247.399994 242.299988 C 236.199997 230.899994 234.300003 229.5 231.699997 220.799988 C 230.800003 217.899994 229.899994 214.200012 228.5 209 C 227.800003 206.399994 226.899994 204 225.600006 201.799988 C 221.800003 195.100006 215.5 190.100006 207.899994 188 C 195.100006 184.5 191.300003 183.799988 186.600006 180 C 184.800003 178.5 182.800003 176.5 179.100006 173.700012 C 178.600006 172.299988 176.100006 170.600006 175.100006 168.799988 C 172.600006 166.200012 169.699997 164.399994 166.600006 162.100006 C 165.800003 162.600006 165.100006 162.299988 164.300003 162 C 161.199997 160.799988 157.800003 160 154.399994 160 C 154.382401 160 154.417603 160 154.399994 160 C 154.397995 160 154.401993 160 154.399994 160 C 154.397995 160 154.401993 160 154.399994 160 C 151.899994 160 149.399994 160.299988 146.899994 161 C 147.144104 160.933594 147.380905 160.960907 147.625 160.906189 C 147.399994 160.100006 147.100006 160.899994 146.899994 161 C 136.699997 163.799988 132.300003 165.100006 127.099998 165.100006 C 122.740997 165.100006 118.403 163.725006 108.279999 160.975006 C 106.699997 160.299988 104.099998 160 101.599998 160 C 101.582397 160 101.617599 160 101.599998 160 C 98.18 160 94.860001 160.799988 91.68 162 C 90.889999 162.299988 90.160004 162.600006 89.400002 162.100006 C 86.309998 164.399994 83.370003 166.200012 80.889999 168.799988 C 65.889999 183.899994 68.389999 182.399994 48.139999 188 C 38.02 190.799988 30.1 198.799988 27.48 209 C 25.42 216.799988 24.379999 221.299988 23.049999 224.600006 C 20.84 230.299988 17.9 232.799988 8.606 242.299988 C 6.731 244.100006 5.188 246.200012 3.906 248.5 C 0.0625 255.200012 -1.038 263.299988 1.024 271.100006 C 6.524 291.720001 6.399 288.850006 1.024 309.480011 C -1.038 317.167999 0.0624 325.279999 3.906 332.019989 C 5.187 334.265991 6.731 336.359985 8.606 338.234985 C 19.666 349.575012 21.695999 351.005005 24.326 359.714996 C 25.201 362.617004 26.106001 366.328003 27.481001 371.484985 C 30.106001 381.86499 38.021 389.86499 48.151001 392.605011 C 55.339001 394.542999 58.210999 395.292999 59.831001 395.808014 C 61.451 396.322998 61.834 396.604889 64.018997 397.605011 L 64.018997 512 L 128.009003 480 L 191.998993 512 L 191.998993 397.600006 C 196.248993 395.600006 193.5 396.475006 207.869003 392.600006 C 215.460999 390.537994 221.779007 385.522003 225.578995 378.76001 C 226.845001 376.51001 227.835999 374.065002 228.492004 371.471008 C 229.867004 366.28299 230.794998 362.557007 231.660995 359.651001 C 234.255005 350.924011 236.210007 349.561005 247.360992 338.221008 C 254.860992 330.721008 257.740997 319.721008 254.985992 309.471008 C 249.610992 288.851013 249.485992 291.721008 254.985992 271.091003 C 257.700012 260.799988 254.899994 249.799988 247.399994 242.299988 Z M 128 352 C 123.578003 352 119.259003 351.554688 115.089996 350.703003 C 106.753998 349 99.010002 345.675995 92.199997 341.078003 C 85.392998 336.476013 79.519997 330.608002 74.919998 323.798004 C 68.040001 313.600006 64.019997 301.299988 64.019997 288 C 64.019997 274.700012 68.041 262.420013 74.940002 252.200012 C 79.536003 245.390991 85.410004 239.52002 92.220001 234.919983 C 99.028999 230.322021 106.769997 226.997986 115.110001 225.294983 C 119.300003 224.399994 123.599998 224 128 224 C 163.369995 224 191.990005 252.619995 191.990005 288 C 191.990005 323.380005 163.399994 352 128 352 Z"/>
    <path id="path1" fill="#b4094d" stroke="none" opacity="0.4" d="M 384 128 L 384 0 L 176 0 C 149.5 0 128 21.48999 128 48 L 128.000702 132.940002 C 129.732697 132.553284 131.804703 131.927979 134.679703 131.147003 L 138.474701 130.115997 C 143.660706 128.710022 149.014694 127.994995 154.374695 127.994995 C 170.604706 127.994995 186.474701 134.671021 197.924698 146.315002 L 200.666702 149.108002 C 202.8367 151.326996 204.354706 152.975006 205.693695 154.210022 C 207.384705 154.764709 209.502701 155.276001 212.396698 156.065002 L 216.246704 157.119995 C 237.346695 162.901001 253.796707 179.539978 259.386688 200.690002 L 260.510712 204.942017 C 261.301697 207.950012 261.803711 210.122009 262.364685 211.85199 C 263.604706 213.261993 265.284698 214.856018 267.5737 217.175995 L 269.985687 219.621002 C 285.545685 235.390991 291.605713 258.101013 285.865692 279.501007 L 285.013702 282.675995 C 284.121094 286.003998 283.417694 288.321014 283.029694 290.234985 C 283.399994 292 284 294.100006 284.799988 297.100006 L 285.884003 301.225006 C 291.595001 322.515015 285.50119 345.375 270.164001 360.704987 L 267.289001 363.618988 C 265.13501 365.799011 263.535004 367.321991 262.339996 368.665985 C 261.77951 370.411987 261.273987 372.606995 260.479004 375.643005 L 259.496613 379.369995 C 254.748596 398.140015 241.476593 413.429993 223.976593 420.839996 L 223.100006 512 L 464 512 C 490.51001 512 512 490.51001 512 464 L 512 128 L 384 128 Z"/>
</svg>
